<?xml version="1.0" encoding="utf-8"?>
<!-- Generator: Adobe Illustrator 21.0.2, SVG Export Plug-In . SVG Version: 6.00 Build 0)  -->
<svg version="1.1" id="Layer_1" xmlns="http://www.w3.org/2000/svg" xmlns:xlink="http://www.w3.org/1999/xlink" x="0px" y="0px"
	 viewBox="0 0 192 198.5" style="enable-background:new 0 0 192 198.5;" xml:space="preserve">
<style type="text/css">
	.st0{fill:#231F20;}
</style>
<path class="st0" d="M192,92.5l-0.1-7.4L145.5,105l22-71.2L114,87L96,0L78.3,86.8L24.5,32l22.2,73.8L0,85.5l0,7l41.4,48.3l-35.4-1
	c24,56.2,80.2,58.8,80.2,58.8L86,163.8h0c-9.3-3.9-15.8-13.1-15.8-23.8c0-14.2,11.5-25.8,25.8-25.8s25.8,11.5,25.8,25.8
	c0,11.2-7.2,20.8-17.2,24.3l0.2,34.2c0,0,58.8-2.5,80.2-58.8c-34.2,1.2-34.2,1.2-34.2,1.2L192,92.5z"/>
</svg>
