<?xml version="1.0" encoding="utf-8"?>
<!-- Generator: Adobe Illustrator 21.0.2, SVG Export Plug-In . SVG Version: 6.00 Build 0)  -->
<svg version="1.1" id="Layer_1" xmlns="http://www.w3.org/2000/svg" xmlns:xlink="http://www.w3.org/1999/xlink" x="0px" y="0px"
	 viewBox="0 0 62 62" style="enable-background:new 0 0 62 62;" xml:space="preserve">
<style type="text/css">
	.st0{stroke:#000000;stroke-width:2;stroke-miterlimit:10;}
	.st1{opacity:0.5;}
</style>
<path class="st0" d="M52.2,9.8C57.9,15.4,61,23,61,31s-3.1,15.6-8.8,21.2S39,61,31,61s-15.6-3.1-21.2-8.8S1,39,1,31
	S4.1,15.4,9.8,9.8S23,1,31,1S46.6,4.1,52.2,9.8z M59.8,31C59.8,15.1,46.9,2.2,31,2.2S2.2,15.1,2.2,31S15.1,59.8,31,59.8
	S59.8,46.9,59.8,31z"/>
<path d="M43.4,31L43.4,31c1,1,1,2.6,0,3.6L32.8,45.1c-1,1-2.6,1-3.6,0L18.7,34.6c-1-1-1-2.6,0-3.6l0,0c1-1,2.6-1,3.6,0l6.9,6.9
	c1,1,2.6,1,3.6,0l6.9-6.9C40.7,29.9,42.4,29.9,43.4,31z"/>
<path class="st1" d="M43.4,18.1L43.4,18.1c1,1,1,2.6,0,3.6L32.8,32.2c-1,1-2.6,1-3.6,0L18.7,21.7c-1-1-1-2.6,0-3.6l0,0
	c1-1,2.6-1,3.6,0l6.9,6.9c1,1,2.6,1,3.6,0l6.9-6.9C40.7,17.1,42.4,17.1,43.4,18.1z"/>
</svg>
