<?xml version="1.0" encoding="utf-8"?>
<!-- Generator: Adobe Illustrator 21.0.2, SVG Export Plug-In . SVG Version: 6.00 Build 0)  -->
<svg version="1.1" id="Layer_1" xmlns="http://www.w3.org/2000/svg" xmlns:xlink="http://www.w3.org/1999/xlink" x="0px" y="0px"
	 viewBox="0 0 2040.5 1178.5" style="enable-background:new 0 0 2040.5 1178.5;" xml:space="preserve">
<style type="text/css">
	.st0{fill:#2C3E50;}
	.st1{fill:#BDC3C7;stroke:#2C3E50;stroke-width:0.2;}
	.st2{display:none;}
	.st3{display:inline;fill:none;stroke:#010101;stroke-width:5;stroke-miterlimit:10;}
	.st4{display:inline;fill:none;stroke:#EC2227;stroke-width:3;stroke-miterlimit:10;}
	.st5{display:inline;fill:#FF0000;}
</style>
<rect class="st0" width="2043" height="1180.8"/>
<g>
	<path class="st1" d="M975.3,657.7L975.3,657.7c0.1,0.1,0.1,0.2,0.2,0.2C975.5,657.9,975.4,657.8,975.3,657.7
		C975.4,657.8,975.4,657.8,975.3,657.7z"/>
	<path class="st1" d="M832.9,381.5c1.1,0.9,1.4,0.1,1.7-1s2.1-1.2,5.1-1.7s3.6,1.6,5.1,3.7s-0.8,3.1,0,4.8s0.8,2.8,2,4.4
		s4,1,5.4,1.4s3.2,1.8,3,2.7c-0.1,0.5-0.9,0.6-1.7,0.7c1.4-0.1,2.9,0.2,4.1,0.7c2.4,0.9,2.5,2.1,5.1,3.4c2.5,1.3,7.8-0.7,9.1-1.4
		c1.3-0.7,0.3-3,0.3-3l3,0.3v-1.7c0,0-5.4,0.6-6.8-1c-1.3-1.6-2.3-0.7-3.4-1.7c-1.1-1-6.1-7.1-6.1-7.1c-0.7-0.7-0.7-0.9-1.7-1
		c-1-0.2-3.4-2.7-6.8-4.7c-3.4-2-4.9-3.8-6.1-5.1c-0.1-0.5-0.4-0.7-0.7-0.7s-0.7,0-1.2,0.1c-1,0.2-2.4,0.7-4.4,1.4
		c-4,1.3-5.7,1.4-6.4,2.4S831.8,380.6,832.9,381.5z"/>
	<path class="st1" d="M797.9,447.9c0-0.8,0-1.6,0.2-2.2c0.1-0.4,0.3-0.7,0.6-1c0.3-0.2,0.6-0.4,1.1-0.5s1-0.1,1.6-0.1
		c3.7,0,9.4,1.9,13.1,3.8c1.9,0.3,3.8,0.7,5.6,1.6c2,1-2,5.1,0,7.1c0.9,0.6,1.8,1.1,2.7,1.5c4.6,1.7,8.8,0.4,12.8-2.2
		c1.6-1,3.2-2.3,4.7-3.6c1.5,0.1,2.8,0.4,4.1,0.4c0.6,0,1.3,0,1.9-0.2c0.6-0.2,1.2-0.5,1.9-1c0.7-0.7,1.8-1.4,2.4-1.9l3-2.1l1.4-1.5
		l4.2-4.4c0.1,0.1,0.2,0.2,0.4,0.3c-0.3-0.3-0.1-0.2-0.7-0.9c-1.7-1.9-2.7-2.6-4.6-2.5c-0.7-1.4-3.1-2.2-7.1-1.4
		c-4.5,1-7.1-3.2-8.1-3.7c-4.6-2.3-8.8,6.8-13.9,6.8c-13.2-2.3-7.7-4.4-16.9-7.5c-3.7-1.3-6.8-2.5-9.4-3.4c-2.7,0.4-7.4,1.2-14,2.7
		l0.6,1.2c-1.1,14.1,4.7,15.7,12.4,15.2l0,0C797.8,448.2,797.9,448.1,797.9,447.9z"/>
	<path class="st1" d="M994.7,175.1c1.8-0.3,3.6-2.5,5.1-2.4s2.9,2.3,8.8,0.7c5.9-1.7,9.3-1.2,10.2-1.7s-1-1.5-5.8-1.4
		c-4.7,0.2-13.7,0.5-17.9-0.7c0-0.1-0.1-0.7-0.7-0.9c-0.5-0.2-1.3-0.1-2.4,0.3c-2.1,0.9-2.8,2.7-1.7,4.1
		C991.4,174.4,992.9,175.4,994.7,175.1z"/>
	<path class="st1" d="M931.7,198.1c2.1,0,5-2.9,5.8-4.7s1.9-2.1,4.4-2.7c2.5-0.6,3.7-2,5.4-1.7c1.8,0.4,1.4-1.4-1.7-2
		c-3.1-0.6-16.6,8.7-18.3,10.5c-0.6,1,0.1,0.6,0.3,2C927.9,200.9,929.6,198.1,931.7,198.1z"/>
	<path class="st1" d="M866.2,438.5l1.7,3.1h0.6c1,0.9,2.3,1.2,3.9,0.7v0.1c0.1-0.1,0.2-0.1,0.3-0.1c1.2,0,1.6-0.6,1.7-1.7
		c-0.1-1.9-1.1-4.8-1.8-7.5h0.1c0-0.2-0.1-0.3-0.1-0.5c1.2,0.1,2.4,0.5,3.1,0.9c1.5,0.9,4.4,0.9,4.4-1.1c0-0.4,0.6-1,1.4-1.5
		c0.6-0.4,1.4-0.7,2.1-1.1c0.3-0.2,0.6-0.3,0.9-0.5c-0.1,0.2-0.2,0.4-0.3,0.6c0.1,0,0.2-0.1,0.3-0.1c-0.3,0.8-0.6,1.5-0.7,2
		c0,0.1,0.1,0.2,0.1,0.3c0,0.1,0.1,0.1,0.1,0.1c1.2,1,2.3,1.6,3.3,2c0.2,0,0.4,0.1,0.6,0.2c0.9,0.3,1.6,0.3,2.4,0.2
		c0.4,0,0.8-0.1,1.2-0.2c0.1,0,0.2-0.1,0.3-0.1c2.8-1,5.1-3.9,7.3-6.4l0.2,2l4.7-5.8l4.4,1.8l2.4,5.1l-0.2,0.4l0.1,0.2l-2.2,3.9
		c0,0-3.6-3.3-4.3-0.6c-0.2,3,4,1.9,5.9,1.6c2-0.3,4.7-1.5,5.9,2.2c0.1,0.4,0.1,1.6,0.1,1.6l7.5-5.5l1.7-5.6l4.7,0.8l2.4,6l-2.5,4.5
		c1.4,4.2,3,8.7,4.8,12.3l5.4-1.1l2.2,3.4l-0.6,4.2c3.3,0.6,6.7,1,10.2,1.5h0.1l4.1-0.5l6-4.6l4.7,5.6l-0.2,5.6l7.9,4l0.5,2.1
		l8.8,0.2l0.4,4.4l4.3-1.9c0.8,0.8,1.7,1.5,2.4,2.5c0.4,0.8-0.1,1.6-1,2.3c-1,1-2.5,2-3.6,3c-0.2,0.3-0.4,0.5-0.5,0.8
		c-1.2,3.5-3.3,6.6-5.1,9.8l0.1,0.2l1.2,2.7l-0.2,0.2v0.1l-4.1,3.9c-0.1,0.1-0.1,0.3-0.1,0.4c0,0.5,0.4,0.9,0.9,1.1
		c0.9,0.5,2.3,0.6,3,1c0.3,0.2,0.4,0.5,0.2,1s-0.5,1-0.9,1.4c-1.1,1.5-3.1,2.6-4.6,4.1c-0.3,0.3-0.5,0.6-0.7,0.9l0.1,0.2l0.4,0.5
		l-0.3,0.1l0.1,0.1l-4.3,1.7c-0.3,0.8-1.5,5.1,0.5,7c1.2,0.9,2,1.3,2.5,1.7c0.2,0.2,0.4,0.3,0.5,0.6s0.2,0.6,0.2,1.1
		c0,1.7-0.3,3.2-1.5,4.3c-0.2,0.2-0.3,0.3-0.5,0.5c-0.7,0.9,4.2,1.8,5.7,0.5c0.1-0.1,0.1-0.2,0.2-0.3c0.1-0.3,0.3-0.6,0.5-0.7
		c1.1-1.4,3.6-0.1,4.3,1.4c0.4,0.8,1.7,1.1,3.1,1c1.3,0,2.7-0.4,3.1-0.8c0.2-0.3,0.5-0.1,0.8,0.1c0.9,0.7,2.1,2.8,3.1,1.8
		c0.3-0.3,0.9-0.4,1.7-0.5c0.7-0.1,1.6-0.1,2.5,0c1.7,0.1,3.4,0.5,3.6,0.5l0.2,0.2h0.1c-0.1-0.1-0.1-0.3-0.2-0.4
		c-0.4-0.5-0.7-0.9-1.1-1.4c-1-2.1-2.1-4.3-1.9-5c1-4,8.1-4,9.1-8.1c1.6-10.4-3.6-13.2-8.3-15.1c-1.2-0.4-2.3-0.9-3.2-1.4
		c-2.7-1.4-4.2-3.3-1.8-8c0.1-0.4,0.3-0.8,0.5-1.2c0.1,0,0.2,0,0.3-0.1l0,0c1.4-0.5,1.6,0.2,1.5,1.1c0.2,0.9,0.1,2,0.8,2.3
		l19.2-17.2c1.1-5.1-12.2,1-8.1-7.1c3-7.1,10.2-12.2,13.2-19.3c5.6-13.6-0.5-24.8-7.4-34.1l1.1-4.2c-0.4-0.2-1.1-0.4-1.9-0.8
		c-1.9-0.9-4.6-2.6-4.5-4.9c0.2-3.4,0.6-4.5,0.7-4.6l-6-2.7l0,0l-0.4-0.2l3.4-3.4l-2.7-4.8c-0.4-1.4-0.6-2.8,0.6-3.4
		c1.3-0.8,2.7-1.1,4.1-1.3c2.8-0.4,5.8,0.1,8.9,0c1.4-0.1,2.9-0.2,4.3-0.7c1.9-1-1.7-6.6-0.2-6.2c0.1-0.1,0.2-0.1,0.5,0.1
		c6.1,2,10.2,9.1,17.3,9.1c0.2,0,0.5,0,0.7,0.1c5.4,0,17.8-3.6,26.8-8l0.1,0.1h0.1l1,1.1c0.5-0.4,3.1-2.5,5.4-5.2
		c1.5-1.1,2.7-2.3,3.2-3.4c0.2-0.5,0-1,0-1.4c0.1-0.3,0.1-0.7,0-1l-0.1-0.1c-0.5-1.2-2-2.5-5.7-5c-8.2-5.6-2.7-5.6-0.8-8.8
		c0.1,0,0.1,0,0.1-0.1c2-1.3,3.9-2.5,5.9-3.6c2.2,0,4.4-0.3,4.7-1.2c0.1-0.6,0.8-1.6,1.3-2.5c4.8-3,9.2-6.2,12.2-10.4
		c1.3-0.5,1.8-1.5,1.4-2.7c2.4-4.7,3.6-10.3,2.3-18.2c-0.2-2.7-1.7-4.7-4-6.2c-0.4-1-1-2.5-1.4-3.3l-1.6,1.8
		c-0.1-0.1-0.3-0.1-0.5-0.1l-1.5,2.4l-20.7-8.2l0.1-0.1l-0.5-0.2l0.8-1.7c-1.9-1.8-2.4-4.1-0.3-7.6c1-3,6.1,0,6.1-2c1.1-3-4-6-3-9.1
		c0-2,3.1-2,5.1-2c1.9,0,3.7,0.2,5.4,0.5c5,0.8,9.7,2.5,15,2.6c6.1-0.1,3.5-9.3,3.2-17.4c0.9-5.3,2-11.1,5-14.7
		c4.3-5.2,6-12.2,7.4-16.7c0.6-2,0.7-3.8,0.5-5.6c0.1-0.3,0.2-0.7,0.4-1c-0.3-2-0.7-4.1-1.1-6.5c-0.7-5-2.6-2.4,0.5-6.4
		c2.3-3.1,1.1-8.2,0.2-11c-0.9,0.4-2,0.6-3.3,0.3c-1.5-0.4-2.5-1.2-3.3-2.2c-1.9-1.3-3.6-3.2-5.3-5.4c-3.2-0.4-8.8-4.6-11-7.2
		c-2.4-2.9-1-9.3-2.6-12.4c-1.6-3.2-6-4.2-9.9-4c-1.3,0.1-2.6,0.3-3.6,0.5c-4.3,1.2-12.4,2.9-18.2,4.1c-5.7,1.2-12.9,1-17.5,0
		c-0.7-0.2-1.4-0.1-2.1-0.2c-0.4,1.2-1.4,2.6-1.9,3.7c-1.1,2.2,5.4,6.6,1.5,5.2c-3.6-1.3-5-4-2.3-9.1c-3-0.1-5.9,0-8.7,0.1
		c-6,0.3-12.3,1.2-16,2.4c-4.1,1.4-10.5,4.2-17.7,7.9c-3.5,1.8-12.8,6.2-16.5,9.4c-0.4,0.4-0.7,0.8-1,1.2c-3.4,4-5.3,8.1-7.5,11.9
		l-27.1,24.4l-4.7-0.7c-3.4,3.6-4.3,6.5-11.5,4.1c-4.5-1.5-5-3.9-3.1-9.1c-3-0.2-5.1-3.1-6.1-2c-13.2,16.3-9.2,48.8-15.3,66.1
		c-6.1,15.3-18.3,32.5-29.5,44.7c-4.1,5.1-7.1,11.2-12.2,14.2c-3,2-9.1-1-10.2,3c-2.8,4.2-3.4,13.1,15.6,26.4
		c5.1,3.5,14.4,11.1,22.4,11.9c4.4,0.4,10.2-1.4,10.2-1.4s3.3,3.4-5.7,4.4c-8.8,1-11-4.3-14.2-0.3c-3.6,4.4-7.7,4.6-13.2,6.1
		c-3.8,1.1-5.3-5.5-10.2-4.1c-5,1.5,2,6.1,2,6.1s-11.5-4.1-14.2,1.4c-1.4,2.9,3.7,6.1,8.8,8.5s9.4,3.9,10.5,9.8
		c0.2,0.9-10.4,2.4-13.2-1.7c-3.1-4.6-13.2-18.8-16.3-19.3c-10.2,2.1-16.6-0.9-23-1c-5.4-0.1-10.1,1.5-12.5,6.8
		c-1.7,3.7,4.5,10.3,8.1,11.9c3.8,1.7,14.1,3.8,15.2,5.8c3,5.1,9.8,4.9,12.9,4.4c2,0,0.7-4.4,2.7-6.4c4.1-3.1,8.1,4.1,12.2,5.1
		c3.3,1.6,4.3-2.1,11.9,4.1c0.7,0.7,1.9,1.1,3.2,1.3c0.5,1.2,0.7,1.7,1.3,2.8h0.1c-0.1-0.2-0.1-0.3-0.2-0.5L866.2,438.5z
		 M941.5,297.3c-1.1-4.9-11.2-13.9-6.1-21c6.4-4.1,5.4,3.6,9.1,2.7c3.7-0.9,13.5-8.9,12.5-13.2c-0.9-0.8-1.9-3.4-5.7-3
		c-5.1,0.4-5.5-2.7-6.8-4.4c-2.6-3.4,0.5-8,0.3-10.2c-0.2-2.3-1.5-6.9-1.5-6.9l24.9-22.3c0,0-0.4,3.2-0.5,4.2
		c-0.3,2.7,1.9,8.5,1.7,10.5c-0.8,7.1-3.7,4.7-4.8,11.9c0,4.6,3.8,3.7,12.2,5.4c3.8,0.8,11.2-3.3,14.2,0c2.8,3.1,0.2,3.2-4.7,5.1
		c-4.6,1.7-6.4,12.5-4.4,19.7c1,3.6,2.5,6.4,5.1,6.4c3.9,0.1,10.2,0.5,13.1,1.2c5.5-0.9,7.3-0.9,9.1-1.9c2-1.1,4.4-3,4.4-3l2.8,2.4
		c0,0-4.6,2.7-6.7,2.9c-2.1,0.2-3.3-0.5-5.9,0.3c-2.3,0.7-3,2.6-3.1,3.7c0.5,0.9,1.5,1.6,1.8,2.4c0.6,1.6,1.5,6.8-2.4,12.9
		c-1,1.6-2.5,3-5.4,5.4c-5.9,4.2-10.5,6.2-12.9,8.1c-4.1,3.3-5.7,5.6-6.4,8.1c-1.3,4-4,4.3-9.5,5.1c-2.9,0.4-4.9,0.1-6.1-1.7
		c-2.1-3.2-5.7-3.4-6.8-4.7c-1.9-2.3-7.6-2.2-8.8-2.4c-1.7-0.3-1-1.5-2-2.7l-13.2-5.8C925.6,311.1,942.9,303.4,941.5,297.3z"/>
	<path class="st1" d="M1031.7,173.8c0.9-0.8,1.3-2.4,2.7-2.4c1.4,0,7.1-1.2,10.2-2.4s5.8-1.9,5.1-2.7c-0.2-0.2-1-0.4-2.1-0.3
		c-1.1,0-2.7,0.2-4.4,0.3c-3.3,0.2-7.4,0.7-9.8,0.7c-1.1-0.1-1.8,2.8-2.4,4.4C1030.5,173,1030.8,174.6,1031.7,173.8z"/>
	<path class="st1" d="M956.1,182.2c1.3-0.6,1.9-1.8,4.8-2.4c2.9-0.5,6.4-0.3,8.8-2c2.4-1.8,2.3-1.4,6.1-1.4c3.8,0.1,5.4-2.4,7.5-2.7
		c2-0.4,3.9-1.4,1.7-2.4c-0.6-0.2-1.2-0.3-2.1-0.3c-2.5,0.1-6.2,1.1-8.8,1.7c-3.4,0.8-15.6,2.8-17.6,3.7c-1.6,0.8-3.6,3.9-4.1,4.8
		C952,182.1,954.8,182.8,956.1,182.2z"/>
	<path class="st1" d="M920.2,225.9c3.7-1.2,2.8-2.5,5.4-4.1c2.6-1.6,4.2-4.3,4.4-6.4c0.2-2.1,1.2-5.7,0.7-7.8s-2.1-5.2-3.7-5.4
		c-1.6-0.2-5.4,6-10.2,13.5c-1.4,2.3-2.9,2.9-3,8.5C913.6,229.8,916.5,227.1,920.2,225.9z"/>
	<path class="st1" d="M819.8,395.3c2.2,0.4,4.7-2.3,6.1-3.4c1.4-1.1,1.6,0.9,1.7,2c0.1,1.1,1.5-0.2,3.4,1c1.8,1.2,1.7,4.3,2,5.7
		c0.4,1.4,3.1,0.2,3.7,0.3c0.6,0.2-0.6,2.6,3.7,2.7s7.6-1.9,9.5-3.4c1.8-1.5-0.4-2,0.7-3c0.4-0.4,1.6-0.8,2.9-0.9
		c-0.7,0.1-1.6,0-2,0c-0.9,0-2,1.4-2,1.4c0-0.1-0.2-0.4-1-0.3c-1.6,0.1-0.4-1.5-3-2s-1.8-1.8-2.7-3.1c-1-1.2-2.2-4-3.4-4.4
		s-4,0.6-4.7-0.7c-0.7-1.3-2.2-0.6-3.7-0.7s-1.1-0.7-6.4-1c-5.4-0.4-7.2,1.9-8.5,4.4C814.9,392.4,817.6,395,819.8,395.3z"/>
	<path class="st1" d="M944.7,316.7c1.4-0.3,3,0.1,4.8,0.7s4.7,2.4,6.8,4.1c2,1.7,4.9,5.1,5.8,6.4c0.9,1.3,4.6,0.3,7.8-0.3
		c3.2-0.6,3.2-0.8,4.4-4.1c1.2-3.2,0.9-4.7,0.3-6.1c-0.5-1.4,2.2-2.6,3.4-2s2.9-0.1,3.7-1.4c0.8-1.2,8-5.1,8.8-5.4
		c0.6-0.3,1.5,0.2,4.4-1.7c6.1-5.9,7.6-12.4,6.1-15.9s-3.5-3.7-5.7-3.7s-8-2.1-8.8-3c-0.6-0.6-0.8-0.8-1.4-0.8
		c-0.6-0.1-1.5,0-3.2,0.1c-3.5,0.1-7.8,5.2-9.1,5.7s-2.6-0.1-3.7,1.7c-1.1,1.8-1.1,2.2-1,3.1s-4.4,3-4.4,3s-21.7,12.5-22.4,13.5
		c-0.6,1.1,1,5.8,1,5.8C942.8,317.5,943.3,317,944.7,316.7z"/>
	<path class="st1" d="M1055,164.7c1.7,2.6,1.4,0.9,3.8,0.3s1.9-1,0.1-2s-2.2,0.3-3-1.1c-0.1-0.3-0.4-0.4-0.8-0.3
		C1054.2,161.9,1053.1,163.6,1055,164.7z"/>
	<path class="st1" d="M1068.2,163.7c1.6-0.8,0.4-1.8-1.3-1.5c-0.5,0.1-1.1,0.3-1.7,0.7C1063,164.5,1066.2,164.8,1068.2,163.7z"/>
	<path class="st1" d="M715.1,485.8c-0.1,0.1-0.2,0.1-0.3,0.2c0.1,0.4,0.1,0.7,0.2,1.1c-1.1,0.7-1.6,1.4-1.8,2.4
		c0,1.2,0.3,2.6,0.6,4.6c0.7,5.4,1.3,10,4.8,9.1c0.5-0.1,1,0.1,1.5,0.2c1.6,3.6,3.7,6.7,6.3,9c1.7,5.2,7.4,9.9,11.3,9.3
		c4-0.6,3.4-5.4,6-6.7s6.2-3.6,8.4-3.2c2.2,0.4,4.6-1.1,7.2-0.9c2.6,0.2,1.9,2.6,3.4,6.5c1,2.6,1.4,3.7,3.1,4.8
		c0.6,6.5,0.4,13.1,1.5,17.6c0,0.1,0,0.2-0.1,0.3c0.1,0.3,0.1,0.5,0.2,0.8c-0.2,0.7-0.3,1.4-0.3,2c0.6,2.8,3.1,4.9,5.3,7.4
		c2.8,3.2,6.1,2.4,10.8-1.7c1.9-0.1,3.7-0.1,5.5-0.1c-0.3,0.3-0.6,0.7-0.9,1c0.4,0,0.8,0,1.2,0c-1.6,1.7-2.5,2.9-2.9,3.7
		c0.4,0.3,1.2,0.4,2.5,0.4c4.3,0,8-1.3,9.3,3.4c0.3,1.2,1,2.6,1.5,3.9c0,0.2-0.1,0.5-0.1,0.7c0,0.1,0.1,0.2,0.1,0.3
		c-0.4,2.1-1,4.3-1.1,6.3c0,0.5,0.1,1,0.2,1.5c0.1,0.2,0.3,0.5,0.5,0.7c0,0.3,0,0.6,0,0.9c0,0,0,0,0,0.1c0,0.3,0,0.6-0.1,0.9
		c0.1,3.5,1.2,5.7,2.8,6.9c2.6,1.8,2.1-5.6,8.4-4.7c6.3,1,5.9,4.7,11.9,3c3.2-0.9,5.3-1.5,8.6-2.5c0.4,0.1,0.7,0.2,1.1,0.3l8.9,14.2
		l2.8-0.9c-0.2,0.4-0.4,0.8-0.6,1.1l0.4-0.1c-2,4.1-6.2,7.9-7,12.2c0,0.2,0,0.3,0,0.5c-1,4,7.1,4,7.1,7.1c0,0.5-0.1,0.9-0.1,1.4
		c-0.4,4.8-5.2,7.7-8.1,12.6c0,0.1-0.1,0.1-0.1,0.2c0.4,3.4,10.7,6.9,21.9,7.1c5.2,2,11.9,2,14.2,0c3-2.6,12.5-3.3,12.5-3.3l0,0
		l0.4-8.2l0.1-0.1v-0.8l12.7-10.5l4.1,1.2c0,0-0.3,0.3-0.6,0.7l0.5,0.2c0,0-5.6,6.1-6.5,9.4c0,0.3,0,0.5,0.2,0.7
		c0.4,0.6,0.4,1.6,0.1,2.7c-0.2,1.8-1.2,4.3-2.2,6.5c1.8,2.2,5.4,3.6,6.1,6.7c0,0.7-0.1,1.3-0.4,2c-0.8,3.3-4,6.8-4.8,10
		c-0.1,1.2,0.1,2.3,1.1,3.2c3.2,4.8,9.9,4.1,16.1,4.9c1,0.8,2.1,1.7,2.9,2.1c3,1.5,3.2,5.2,5.8,6.7c0.8,0.5,1.8,0.8,2.7,1.1
		c0.8,1.3,1.8,2.6,3,3.5c1,1,4.1-3,6.1-2c2.1,1,3.1,3.1,4.1,5.1c0,0.1-0.1,0.3-0.3,0.5c0.1,0.1,0.1,0.2,0.2,0.3c0,0.8-3.1,2.2-4,3.3
		c3.1,2,8.2,0,10.2,3c3.1,4-1,13.2,4.1,15.2c6.1,3.1,13.2-4,20.3-3c2,0,4,0.5,6,1.1c0.9-2.2,2.3-4.4,4.2-3.8c1.1,0.4,2,0.6,2.8,0.9
		c0.5-0.5,0.9-1.1,1.4-1.6c-0.3,0.2-0.6,0.3-0.9,0.4c0.7-1,1.5-1.7,2-2.4c0.2-0.6,0.2-1.1,0-1.8c0-0.1,0-0.2,0-0.3
		c-0.1-0.3,0-0.6,0.1-0.9c0.7-2.9,4.1-5.4,3.1-8.3c-0.1-0.2-0.2-0.3-0.3-0.5c-1-0.7-1.4-1.4-1.6-2.2c-0.3-1.2,0.3-2.5,1-3.7
		c-1.9-1.1-3.2-2.5-4-4.2c-0.5-1.1-0.9-2.4-1-3.8c0-0.2-0.1-0.4-0.2-0.6c-0.6-1.1-1.7-1.7-2.8-2.1c0.2,0.5,0.3,1,0.5,1.5
		c-0.3-0.3-0.3-1-0.7-1.2c-0.2-0.1-0.1-0.2,0-0.4c-0.1,0-0.1-0.1-0.2-0.1c-0.9-0.4-1.7-0.8-2-1.7c-0.3-0.5-0.4-1.3-0.2-2.3
		c-0.3-3.2,1.6-5.7,3-8c-0.7-0.4-1.1-0.9-1.3-1.5c-0.5-1-0.3-2.2,0.2-3.3c0.8-1.8,2.2-3.7,2.9-5.1c2.7-0.6,4.1-2.6,2.9-4.9
		c-0.1-0.1-0.2-0.3-0.2-0.4l0,0c0-0.1-0.1-0.1-0.1-0.2c1.8-2.4,5.7-3.1,5-7c-0.2-4.2,1.6-8,5.9-8.8c2.8-1.7,2.6-6.9,6.8-6.2
		c0.6,0.1,0.9,0.6,1.2,1.1s0.5,1,0.7,1.5c0.4,0.8,1,1.3,2.5,0.5c1.5-1.4,3-2.5,4.1,0c0.1,0.2,0.1,0.3,0.2,0.5
		c0.3,0.8,0.3,1.6,0.7,2.6c2.1-1.3,5-3.1,6.4-4c1.1-0.6,0.4-2.2,0-4c-0.4-1.7-0.5-3.6,1.7-4.6c4.4-2.1,7.6-3.9,7.8-6.3
		c0.2-1.9,1.2-2.3,3.4-2.3c0.7,0,1.5,0,2.4,0.1c3.3-0.1,4.3-4.5,1.5-7.3c-2.9-2.9,1.7-10-1.2-15.2c-2.9-5.2-9-3-11.5-5.2
		c-2.5-2.1-2.3-6.9,1.9-10.6c4.2-3.8,4.7-6.3,1.2-6.8c-3.6-0.5-6.8-1.7-9.5-6.8s-0.7-6.1-5.9-6.6c-1.1-0.1-2.2-1.4-3.3-2.9h-0.2
		c0.1,0.1,0.1,0.2,0.2,0.3h-0.3l-0.2-0.2c-0.5-0.1-6.6-1.3-7.9,0c-1.3,1.3-3.1-2.8-3.9-2c-0.9,0.8-5.5,1.5-6.3-0.2
		c-0.8-1.3-2.9-2.5-4.1-1.6c-0.1,0.1-0.2,0.3-0.3,0.5s-0.2,0.4-0.4,0.5c-1.3,1.7-7.2,0.6-5.8-0.4c0,0,0,0,0.1-0.1l0.1-0.1
		c0.2-0.1,0.3-0.2,0.4-0.4c1-1.1,1.3-2.5,1.3-4.1c0-1.9-0.9-1.4-3.2-3.4c-2.4-2-0.5-7.1-0.5-7.1l0.2-0.1c0-0.1,0-0.1,0-0.1l4.2-1.7
		l-0.4-0.6c0.3-0.4,0.6-0.7,0.9-1.1c1.4-1.6,3.4-2.7,4.6-4.1c0.3-0.4,0.5-0.8,0.7-1.2c1-2-4.1-1-4.1-3c0-0.2,0.2-0.4,0.2-0.6
		l0.1-0.1c0-0.1,0.1-0.1,0.1-0.2l0.3-0.3l3.7-3.5l-1.4-2.8c1.8-3.2,3.9-6.3,5.1-9.8c0.2-0.3,0.5-0.7,0.8-1.1c0.9-1,2.5-2,3.6-3
		c0.7-0.7,1-1.4,0.7-2c-0.8-0.9-1.6-1.6-2.4-2.5l-4.3,1.9l-0.4-4.4l-8.8-0.2l-0.5-2.1l-7.9-4l0.2-5.6l-4.7-5.6l-6,4.6l-4.1,0.5
		c-3.6-0.5-7-0.9-10.3-1.5l0.6-4.2l-2.2-3.4l-5.4,1.1c-1.8-3.7-3.4-8.1-4.8-12.4l2.5-4.5l-2.2-5.6l-4.7-0.8l-1.7,5.6l-7.5,5.5
		c0-0.5,0-1.2-0.1-1.6c-1.2-3.7-3.9-2.5-5.9-2.2s-6.4,1.3-5.9-1.9c0-0.1,0.1-0.2,0.1-0.3c0-0.1,0-0.2,0-0.3c0.5-3.2,4.4,0.3,4.4,0.3
		l2-3.5l-2.3-4.9l-4.4-1.9l-4.7,5.8l-0.2-2.2c-3.9,4.5-7.9,10.4-15.1,4.4c-0.1-0.2-0.2-0.4-0.1-0.8c-0.1-0.4,0.2-1.1,0.5-1.9
		c-2.2,1-4.1,2.1-4.1,3c0,2-3,2-4.4,1.1c-0.7-0.4-1.8-0.9-3-0.9c0.7,2.9,1.8,5.8,1.7,7.5c0.1,1.3-0.3,2.2-1.7,2.2
		c-1.8,0.5-3.1,0.3-4.1-0.7H868l-1.7-3.1l-4.6,0.7c0.3,0.7,0.6,1.5,0.8,1.7c1,1.3,0.6,1.9,0.2,4.3c-0.1,0.5-0.1,1.1-0.1,1.1
		s-0.9-0.6-0.9-1.9c0-2.1-0.8-2.1-2.1-3l0,0l-5.6,5.9l-3,2.1c0-0.1-0.1-0.1-0.1-0.1c-0.7,0.6-1.4,1.3-2.3,1.9
		c-2.6,1.9-4.9,1-7.9,0.8c-5.4,4.7-11.3,8.2-17.9,5.6c-1-0.4-2-0.9-3-1.6c0,0,0,0-0.1,0c-2-2,1.9-6,0-7.1c-1.8-0.8-3.6-1.3-5.5-1.5
		c-1.7-1-4.1-1.8-6.4-2.5c-0.4-0.1-0.7-0.3-1-0.4c0,0,0,0-0.1,0c-1.3-0.4-2.6-0.6-3.8-0.8c-0.5,0-1-0.1-1.5-0.1s-0.9,0-1.3,0.1
		c-1.8,0.3-2,2.2-1.9,4.2c-0.1,0-0.2,0-0.3,0c0,0,0,0,0,0.1c-3.9,0.2-7.4,0-9.7-2.1s-3.5-6-3-13.2l-0.6-1.2c-4.5,0.9-9,1.4-11.9,2.8
		c-2.4,1.1-3.8,1.4-5.9,2.5c-19.2,9.8-39.5,22.5-53.7,26.5l-1,1c0,0.1,0,0.2,0,0.3c0.1,0,0.2,0,0.3,0
		C713.1,470.2,713.7,478.6,715.1,485.8z"/>
	<path class="st1" d="M1232.9,1177.7c-1.5-1.7-3.7-3.6-6.1-5.4c0.2-0.2,0.5-0.5,0.7-0.7c-0.1-0.1-0.3-0.2-0.4-0.3
		c1.7-1.7,3.6-3.4,4.4-5.3c-0.2-2-2-3.8-3-3.8c-0.1-0.1-0.1-0.1-0.2-0.1c-11.1-4-27.4-7.1-34.5-20.3c-0.6-2.3,0.1-4.6,0.9-6.7
		c0.2-0.5,0.4-1.1,0.5-1.6c0.3-1,0.6-2,0.6-2.9c0-6.1,1-12.2-1-18.3c-1-0.6-1.6-0.3-2.5-0.2c-0.8,0.1-8.7,1.4-12.8,3.6
		c-1.1,0.6-1.9,1.2-2.2,1.7c0.1,0.9,1.4,1.8,3.5,3c0.2,0.1,0.5,0.2,0.7,0.3c-0.3,0.2-0.6,0.5-0.8,0.7c0.1,0.1,0.2,0.1,0.3,0.2
		c-1.8,1.6-3.6,3.2-5.6,4.8c-2.7,2.2-6.3,3.9-9.4,6c-2.3,1.5-4.3,3.1-5.4,5.4l0,0c-1,4.1,8.1,6.1,7.1,11.2c0,0.2-0.1,0.4-0.3,0.7
		c0,0.1,0,0.1,0,0.2c0,0.3-0.4,0.8-0.5,1.2c-3.4,2.1-6.4,3.6-9,4.8s-4.7,2.1-6.4,3c-0.4,0.2-0.7,0.5-0.9,0.9
		c-0.6,2.5,0.9,6.6-0.4,9.5c-0.2,0.7-0.4,1.3-0.9,1.9c-2.9,3.7-7.8-2-10.2,1.1c-0.5,0.7-1,1.7-1.4,2.8c-0.4,1.1-0.7,2.2-1,3.3h-0.1
		c-0.1,0.3-0.2,0.6-0.2,0.9c-3.3-0.6-5.2-0.9-7.6-1.4c-2.1-0.5-3.3-0.2-4.2,0.1c-0.8-0.5-1.6-0.8-2.4-1.3c-0.4-0.5-0.7-1-1.4-1.7
		c-3.7-4-6.9-3.9-10.6-4.2c-3.7-0.3-6.2,2.8-6.2,2.8c-2.9,3.3-11.5,10.5-15.3,6.2c-3-3.4-9.4,0.2-16.7,5.6l163.3,5.3
		C1235.6,1186.9,1236.5,1181.9,1232.9,1177.7z"/>
	<path class="st1" d="M1248,1191.4c0.1-0.1,0.1-0.2,0.2-0.3l0,0C1248.1,1191.2,1248,1191.3,1248,1191.4z"/>
	<path class="st1" d="M1677.3,1169.7c-1.8-4.2-13.7,5.3-14.7,0.3c-0.3-0.9-0.2-2.3,0.5-4.6c2.6-7.9,14.7-14.1,13.2-19.6
		c-0.3-0.7-0.8-1.4-1.6-2.1c-4.5-3.6-21.1-0.6-23.5-8.3c-0.4-1.1-0.5-2.4-0.3-3.9c-0.3-11.6,27.1-20,29-34.4
		c-0.2-0.1-0.3-0.1-0.5-0.3c-9.9-2.1-16.8-2.7-22.3-2.7c-7.3,0-12.2,1.1-18.4,1c-5.8,0-12.7-0.9-23.9-4.4c-2.5-0.4-4.8-0.8-7.1-1.2
		c-6.6-1.1-12.4-2.4-17.9-3.9c-11.4-2.4-18.7-5.8-28.5-12.5c-2.4-1.5-4.9-3.2-7.4-5.1c-0.5-0.5-1-0.6-1.5-0.5
		c-1.2,0.1-2.5,1-3.4,1.1c-0.4,0-0.8-0.1-1-0.5h-0.1c-2-4.1,3-8.1,1-11.2c-2.1-3.2-4.5-4.2-6.8-4.9c-0.9-0.2-1.8-0.6-2.7-0.7
		c0.5-1.2,0.9-2.5,0.4-3.4c-1.1-2.2-6-8.7-2.3-10.4c0.4-0.2,0.8-0.4,1.3-0.5c2.8-0.5,4.6-0.6,5.8-1.2c1.2-0.6,1.7-1.7,2.1-4
		c0.2-1.3,0.3-2.1,0.3-2.7c0-0.5-0.2-0.8-0.5-1c-0.1,0-0.1-0.1-0.2-0.1c-0.5,0-1.1-0.1-2.1,0s-2.4,0.3-4.3,0.4l0,0l0,0
		c-0.1,0-0.2,0.1-0.2,0.1c-1.3,0.1-2.6,0.3-4,0.5c-1.6,0.3-3.1,0.7-4.6,1.1c-0.2,0.1-0.4,0.1-0.6,0.2c-0.9,0.3-1.7,0.6-2.5,0.9
		c-0.2,0.1-0.3,0.2-0.5,0.3c-3.8,1.5-7.5,3.5-11.3,5.3c-5.7,2.8-11.5,5.3-17.8,5.7c-0.8,0.1-1.8,0.1-2.9,0.2
		c-5.5,0.1-14.8-0.4-24-0.6c-1,0-1.9,0-2.9,0c-9.9,0-19.2,0.7-22.9,3.4l-13.2,27.4c-1.2,0.7-2.4,1.2-3.5,1.5
		c-8.6,3-14.6-2.6-19.8-7.7c-2.3-2.2-4.5-4.4-6.6-5.7c-1-0.6-2-1-3-1.2c-5.6-0.7-7.5,0-8.4,1c-0.6,0.8-0.6,1.6-1.1,2
		c-0.3,0.2-0.6,0.3-1.3,0.2c-1.2-0.2-3.3-1.1-7.3-3.1c-1,4.1,0,9.1-2,13.2c-1,4.1-4.1,7.1-6.1,11.2c0,0.6,1.9,2.6,4.1,4.9l4.3,0.3
		l3.5,2.9l-3.4,10.6h-0.2l-0.2,0.6l-9.5-2.2l-2.7,2.2l-8.5-4.7v-5.3c-1.9-2.3-4-3.7-7.5-2.6c-1.7,0.4-3.6,1.4-5.9,3.1
		c-1.3,0.9-2.2,1.8-3,2.7c-0.2,0.3-0.4,0.5-0.5,0.8h-0.1l0,0c-5.4,9.7-3.9,17.6-0.1,19.9l-0.2,0.2c1.6,1.4,2.6,0.7,4.3-0.1
		c2-0.9,2.4-0.9,4.7,1.5c1.8,1.9,1.9,3,0.9,3.6c-0.2,0.5-0.8,0.8-1.5,1.1c-0.4,0.1-0.6,0.3-0.8,0.4c-0.3,0.5-0.6,1.1-1.3,1.8
		c-0.3,0.5-0.8,1-1.7,1.6c-0.1,0.1-0.2,0.2-0.3,0.3c-1,1.8,1.7,4.2,4.3,7.6c3.2,3.9,2.8,4.8,0.7,7.4c0,0,0,0-0.1,0.1
		c-0.1,0.2-0.3,0.3-0.4,0.5c-2.2,2.6-2.9,1.3-6.7,1.6c-3.8,0.3-4.5-0.8-3.7-1.5s1.7-4.9-1.2-5.6c-2.9-0.6-4.5-0.5-3.7-2.8
		s-2-3.7-2-3.7l0.6-0.6h-0.1l1.4-1.4l-1.9-3.4c-0.5-0.4-1.1-0.6-1.8-0.7c-3-0.5-3.9-0.5-5.9-0.8l-11.4,6.1l-3.2-2.7l-2.5,2.1
		l2.6,2.6l-0.6,0.7l0,0l-3.2,3.7l-3.4-2.5c0,0-3.7,3.2-9.8,0.7c-6.1-2.6-3.9-7.5-6.4-9c-2.6-1.5-5.1-2.5-5.1-2.5s0.3-0.2,0.7-0.7
		h-0.1c0,0,0.1-0.1,0.3-0.3c0.9-1.1,2-3.1,1.5-5.8c-0.2-0.9-0.4-1.8-0.7-3.1c-0.6-1-1.1-2.2-2-3.7l-3.5,3.3l-5-6.3
		c-1.5,0.3-2.7,0.8-3.5,1.6c-1.9,2.7-1.8,7.1-1.2,11.6c0,0.4-0.1,0.8,0,1.3c1,6.8-1.7,10.5-3.7,15.7c-0.2,0.5-0.4,1.1-0.7,1.7
		c-2.2,5.3-7,12.9-8.8,13.6c-1.9,0.9-5.4,4.2-7.8,5.6c-0.2,0.1-0.3,0.3-0.5,0.4c-0.4,1.8,0.5,4.7-0.5,5.9c0,0.1,0,0.1,0,0.2
		c-0.2,0.6-0.6,1.1-1.4,1.2c-1.8,0.3-3.7,1.1-4.7,2.3c-0.4,0.9-0.2,2.1,1,3.3c3.4,3.5-2.2,9.1,1.7,10.3c3.7,1.1,6.3,3,3,9.4
		l420.4,13.6c-8-3.2-2.4-15.9,16.9,2.4c4.1,5.1,3,8.5,5.1,13.5c29.4,1.8-7.8-23.7-18-29.8c-1.3-0.8-1.9-1.8-2-3
		C1669.7,1182.6,1678.5,1174,1677.3,1169.7z"/>
	<path class="st1" d="M2015.9,5.6c-2.9-1.2-4.8-1.8-6.1-2.1c-0.6-1.5-2.4-4.2-6.6-8.9c-2-3.1-62.2-0.1-62.2-0.1s-78.8-1.7-85.9,4.4
		c-17.3,15.3-8.1,24.7-17.6,32.2c-15.6,13-46,28.8-72.8,36.9c-8.1,2.5-22.4,11.2-30.5,13.9c-7.2,2.4-16.3,8.1-16.3,8.1
		s-9.4,14-11.2,26.8c-1.9,13.4-5.1,10.1-6.1,15.9c-1.7,10.6,4.4,8.5,5.1,11.2c-0.8,13.5,9.3,10.2,9.5,22.4c0,1.4-2,7.2-6.1,5.1
		c-3.6-1.8,2.3-9.5-8.5-26.4c-5.2-8.1-11.7-1.8-19.6-13.6c-5.8-0.3,2.1,5-2.7,6.1c0.1,0-0.1,0.3,0,0.3c2,16.3,14.2,45.4,16.3,55.6
		c0.8,6.1-0.8,8.6-2.4,14.2c-1.6,5.6-3.2,14.2-7.1,18.6c-0.3,0.4-0.7,0.7-1.1,1.1c-1.9,2-4.6,3.9-6.6,6c-1.8,1.9-3,3.9-2.8,6.1
		c1.4,11.2-4.2,9.1-2.4,13.9c2,6.1,11.8,3.9,20.3,11.2c9.2,7.8,21.1,13.8,22.4,21.3c1.7,10,0.2,11.9-1.7,15.9
		c-1.9,4-5.9,10-1.4,15.6c2.8,8.7,10.2,7.1,12.2,13.2c3,5.1-1,12.2,0,17.3c1,3.1,5.1,2,6.1,4.1c-3.8,15.3,3.9,16-10.2,30.5
		c-3,4.6,2.8,3.9,3.7,8.8c1,5.7,6,11.2,8.5,14.6c7.3,8.4-5.1,11.2-2,15.2c4.1,6.1,13.2,4.1,17.3,8.1c9.2,6,6.3,12.8,10.2,20.7
		c6.7,13.6,2.2,19.6-0.7,29.1c-3.1,10-5,18-6.4,24.4c-0.4,2.9-1.1,4.1-2,7.5c1.8,0.3,3.3,0.5,4.6,0.5c21.3,0.6-4.1-22.9,14.9-21.8
		c1.4,0,2.9,0.2,4.8,0.5c18.3,2,3,10.2,14.2,18.3c16.3,13.2,29.5,4.1,42.7,12.2c4.1,3.1,3,8.1,5.1,11.2c0.2,0.1,0.4,0.2,0.6,0.2
		c1.4-0.2,2.2-2.2,3-2.2c2.1-0.7,4.2-1.9,5.6-1.9c0.9-0.1,1.6,0,2,0.9c2.9,3,0.1,7.9,2.8,11c2.5-1.3,18-9.5,24.9-9.4
		c1.1,0,2,0.1,2.7,0.5c27.4,13.2-11.2,18.3-9.1,31.5l23.4,14.2c2.7,3.7,7.9,25.3,20,25.3c1.2-0.1,2.6-0.3,3.9-0.9
		c4.1-2,3.1-9.1,6.1-12.2c5.1-4,15.3-2,18.3-8.1c1.1-2-21.3-24.4-15.2-25.4c1-0.1,2.1-0.2,3.1-0.2c14.5-0.1,30.4,13.5,39.1,16.5
		c0.7,0.2,1.5,0.3,2.3,0.3c3.5,0,7.2-1.3,10.4-1.3c0.1,0,0.2,0,0.3,0c0.1,0,0.2,0,0.2,0c2.7,0,5.8,0.9,8.7,0.9c1.4,0,2.7-0.3,4-0.9
		c2-1,1-5.1,2-7.1c0.6-0.6,1.4-0.8,2.1-0.7c0.7-0.1,1.4,0.2,1.4,0.7c12.2,24.4,4.1,9.1-9.1,21.3c-4.1,3.1,10.2,4.1,14.2,7.1
		c3,3.1,2,8.1,5.1,11.2c1.9,1.9,4.8,2.9,6.8,3c29.2-3.1-4.2-5.1,13-12.2c0.3-0.2,0.6-0.2,0.8-0.1c1.7-0.4,1.8,3.2,3.8,4.2
		c4.1,3.1,15.2,6.1,20.3,7.1l1.8-598.2C2055.7,4.5,2040.6,12.3,2015.9,5.6z"/>
	<path class="st1" d="M1673.2,107.5l-1.9,1.4l0.9,1.5l0.3,0.7v1.7l0.3,2.4h-0.3v0.3c0,0,2.7,3,5.1,4.4s4.8,4.3,5.1,2.4
		c0.2-1.9,0.7-4.7,2.4-4.7c1.7,0,3.9,0.4,3.4-1s-2-1.1-2.7-3s-0.9-2.9,1-2.7c1.9,0.2-0.1,3.4,3,3.4s5.6,0.7,7.8,0.7
		c2.2,0,5.8,0.8,4.4,2.7c-1.4,1.9-0.7,0.9,0,2.4c0.1,0.2,0.3,0.3,0.3,0.3c0.1-0.5,0.4-1.6,1.4-2c1.9-1,1.3,0.9,1-2.7
		c-0.2-3.6,0-4.9,2.4-7.8s2.7-3.1,2.7-7.5c0-4.3-3.4-4.3,0.7-5.8c4.1-1.4,5.3-1.4,5.1-3c-0.2-1,0.1-1.9-0.1-2.2
		c-0.2-0.3-1.1,0.3-3.7,1.7c-5.3,2.9-15,8.1-16.9,9.8c-1.9,1.7-3.1,6.1-8.1,6.8c-5,0.7-7.7-0.7-9.8-0.7c-2.2,0-3.4-0.3-3.4-0.3
		c0.1,0.1,0,0.3,0,0.3l-0.5,0.3C1673.3,107.5,1673.2,107.5,1673.2,107.5z"/>
	<path class="st1" d="M1114.2,231.3c0.2,1.8,0.1,3.7-0.5,5.7c-1.4,4.5-3.1,11.4-7.4,16.7c-3,3.7-4.1,9.4-5,14.7
		c0.3,8,2.8,17.1-3.3,17.1c-0.1,0-0.3,0-0.4,0h-0.1c-5.2,0-9.9-1.7-14.9-2.6c-1.6-0.3-3.2-0.4-4.9-0.4c-2.1,0-5.1,0-5.1,2
		c-1.1,3,4,6,3,9.1c0,2-5.1-1.1-6.1,2c-2.1,3.5-1.6,5.8,0.3,7.6l-0.8,1.8l20.2,8l1.4-2.3c0.1,0.1,0.3,0.1,0.5,0.1l1.9-2.2
		c0,0,0.1,0.2,0.2,0.6l0.2-0.2c0,0,0.9,2.3,1.5,3.6c2.3,1.6,3.9,3.6,4.1,6.3c1.3,7.9,0.1,13.6-2.4,18.2c0.5,1.3,0,2.3-1.5,2.8
		c-2.9,4-7.2,7.1-11.9,10c-0.7,1-1.3,2.1-1.5,2.8c-0.2,1-2.7,1.2-5,1.2c-1.8,1.1-3.6,2.2-5.4,3.3c-0.1,0.2-0.1,0.2-0.2,0.4
		c-1.9,3.2-7.5,3.2,0.8,8.8c1.6,1.1,2.5,1.8,3.4,2.5c0.3,0.3,0.7,0.5,1,0.8c0.7,0.5,1.2,1.1,1.4,1.8c0.2,0.4,0.1,0.8,0,1.1
		c0,0.4,0.2,0.7,0,1.1c-0.5,1-1.4,2.1-2.7,3.1c-2.6,3.4-6,5.9-6,5.9l-0.3-0.4l-0.1,0.1l-1-1.2c-9,4.5-21.6,8.1-26.9,7.8
		c-0.4,0-0.7,0-1-0.1c-7.1,0-11.2-7.1-17.3-9.1c-0.1,0-0.1,0-0.2-0.1c-0.6,0.5,2.2,5.3,0.5,6.2c-1.5,0.5-3.1,0.7-4.6,0.7
		c-3.1,0.1-6.1-0.4-8.9,0c-1.3,0.2-2.6,0.6-3.8,1.3c-1.3,0.6-0.9,2.2-0.5,3.7l2.7,4.7l-3.4,3.4l6,2.7l0,0l0.4,0.2
		c0,0-0.5,1.1-0.7,4.6c-0.1,2.1,2.2,3.7,4.1,4.7c1.1,0.5,1.9,0.8,1.9,0.8l0,0c0.3,0.1,0.4,0.2,0.4,0.2l-1.1,4.1
		c6.9,9.3,12.9,20.5,7.4,34c-3,7.1-10.2,12.2-13.2,19.3c-4.1,8.1,9.1,2,8.1,7.1l-19.3,17.3c-0.1,0-0.2,0-0.3-0.1l-0.1,0.1
		c-1.1,0-0.8-1.3-0.8-2.4c-0.1-0.8-0.4-1.4-1.5-1.1c-0.3,0.5-0.5,0.9-0.7,1.3c-1.6,4.6-0.4,6.7,1.8,8c1,0.5,2.1,0.9,3.2,1.4
		c4.7,1.8,10.3,3.8,8.7,15c-0.9,3.8-7,4.1-8.7,7.3l2.2,7.2c0,0,0,0,0,0.1c0.1,0.2,0.2,0.3,0.4,0.4l0,0c-0.2-0.3-0.2-0.5-0.4-0.8
		l-0.1-0.3c1.4,1.9,2.8,3.9,4.2,4c5.2,0.5,3.2,1.5,5.9,6.6s6,6.3,9.5,6.8s3,3.1-1.2,6.8c-4.3,3.7-4.4,8.4-1.9,10.6s8.6,0,11.5,5.2
		c2.9,5.2-1.7,12.3,1.2,15.2c2.8,2.9,1.6,7.6-1.9,7.3l0,0c-0.1,0-0.3,0-0.4,0c-0.8-0.1-1.4-0.1-2-0.1c-1.9,0-2.8,0.6-3,2.3
		c-0.2,2.4-3.4,4.3-7.8,6.3c-2.2,1-2.1,2.8-1.7,4.6c0.3,1.8,1,3.4,0,4c-1.5,0.8-4.6,2.8-6.7,4.2c0-0.1-0.1-0.1-0.1-0.2
		c0,0-0.1,0-0.1,0.1c0.1,0.2,0.2,0.3,0.4,0.5c2.1,2.6,1,3.2-0.9,4.6c-1.9,1.4,0.4,6.8,0.4,7.1c0.4,3.4,0.9,11.2,3.6,10.1
		c2.8-1.1,2.8,1.5,4.1,6s4.5,4.2,6.2,7.9s3.1-1.3,5.4,1.9c2.3,3.3,0.7,4.7,5,4.1s5.2-0.9,5,2.9c-0.1,1.9,0.2,4.3-0.1,6.6
		c-0.3,1.9-0.9,3.8-2.7,5.2c-0.3,0.3-0.7,0.6-1.2,0.8c-0.3,0.2-0.6,0.3-0.8,0.5c0,0-0.1,0-0.1,0.1c-0.1,0-0.1,0.1-0.2,0.1
		c-2.7,2.3-1,4.5-2.6,6.6c-1.9,2.3-0.7,5-3.3,6.8c-0.2,0.2-0.4,0.3-0.6,0.4l-0.1,0.1c-2.4,2.1-2.4,6.8-1.1,10.6c0.7,2-1.1,3-2.7,4.9
		c0.9,0.9,1.9,1.8,2.9,2.7c2.7,1.3,7.3-0.4,9.9,2.2c0.9,0.6,1.8,1.4,2.7,2.5c5.6,7,10.2,22,17,31.7c1.1,1.6,2.2,3,3.4,4.2l0.1,0.1
		c2.5,2.7,3.6,3.1,4.1,2.3c0.2-2.4-0.6-7.2,0.4-9.8c0.8-4.2,4.3-5.6,17.7,6.4c0.6,0.7,0.7,1.5,0.4,2.5c0.2,1.6-1.2,3.8-1.6,5.8
		c0,0.3,0.1,0.5,0.1,0.8c0.1,0,0.2,0,0.2,0v0.1c2,3,34.2-10,39.5-6.1c2.9,3.1,1,9,4,12h0.1c0.1,0.1,0.1,0.2,0.1,0.2
		c3.8,2.8,56.7,9.2,60.8,15.8c0.2,0.5,0.2,0.9,0,1.3c0,0,0,0.1-0.1,0.1c0.2,0.4,0.2,0.9,0,1.3c-11.2,19.3-31.5,31.5-39.6,47.8
		c-1.7,3.9-2.8,12.3-3.5,20.2c0,0.2,0,0.4-0.1,0.6l0.2,0.2c-0.5,5.4-1,11.1-1.4,13.4l-0.2,0.3c0,0.3-0.1,0.7-0.1,0.9l-14.2,23.4
		c-0.9,2.2-1.7,4.4-2.4,6.6c-0.6,2.5-0.8,4.9-0.3,7.4c0,0,0.1,0,0.1,0.1c5.8,5.7,9.5,7.9,8.2,9.9c0,0,0,0.1-0.1,0.1
		c0.1,0.4,0,0.7-0.2,1.1c-1.1,1.8-3.6,4.7-4.5,7.2c0,0.1,0,0.3,0,0.4c0,0.5-0.1,1-0.3,1.5c-0.1,1.5-1.3,2.6-1.9,3.9
		c-0.1,0.5,0.1,1.1,0.4,1.7c0.4,0.6,0.3,1.3,0,2c0.2,2-3.2,4.3-4.2,6.5c0,0.3,0,0.5,0.2,0.8c1.1,2.3,1.9,5.1,1.1,7
		c-0.1,1-0.5,2-1.4,2.6c-0.9,0.7-1.5,1-1.8,1.5c0,0.6,0.1,1.4,0.2,2.6c0.4,4,4.9,6.4,4.9,7.1c0,0.3,0.5,1.3,1,2.9l0.7,3
		c0.1,0.5,0.1,1,0.2,1.5c0,0,0.1,0.1,0.2,0.1l-0.2,0.2l-0.4,0.4c0,0.2,0,0.4,0.1,0.5c0,0,0,0,0.1,0l0.1-0.1l4.8-4.6l4.9,0.1
		l-0.7,0.3h0.5l-2,0.8l1.4,2.7l-0.3,0.1l0.1,0.2l-3.6,1.3v0.2c0.2,0,0.4,0,0.6,0c0.2,1,1.8,1.5,5.5,1.7c2.7,0.2,4.7-1,6.3-2.4
		c3.8-0.4,6.8-0.9,10.7-1.6c1.1,2.9,2.7,5.4,5,4.8c4.7-1.3,10.1,0.3,16.9-5.4c0.1-0.1,0.3-0.2,0.4-0.3c1-0.9,1.8-2,2.5-3
		c0.1,0,0.1,0,0.2,0c0.1-0.1,0.2-0.2,0.2-0.3c1.8,0,2.6,0.1,4,0.2c1,2.7,2.8,7.2,6.3,6.7c4.6-0.7,3.5-1.2,6.5,0
		c2.6,1,4.7,0.1,5.9-0.8c0.1,0,0.1-0.1,0.2-0.1c1.2-1-4.7-0.5-2.5-2.8c0.7-0.8,1.6-1.6,2.6-2.2c1.9-1.5,4-2.5,5.1-1.9
		c1.6,0.9,4.1,2.2,2.6,3.5c-1,0.8,1.4,1,2.6,0.3c0.3-0.3,0.4-0.8,0.2-1.4c-1.2-2.4-3-1.8-0.3-4.1c2.6-2.3,4.1-2.5,0.3-2.9
		c-2.1-0.2-3.1-0.2-3.8,0.2c-0.4,0.3-0.8,0.8-1.3,1.4c-0.2,0.3-0.5,0.5-0.8,0.7c-1.9,1.4-5.9,1.1-6.7,0.4c-0.8-0.8-7.2-1.9-4-6.2
		c2.9-3.9,4-9.1,6.5-10.7c0.4-0.3,0.8-0.6,1.3-0.7c0.2-0.1,0.3-0.1,0.5-0.1c2.3-0.4,5.3,0.1,6.4-0.2c0.1-0.2,0-0.3-0.2-0.6
		c-0.9-1.3-1-3.1-0.2-3.5c0.1-0.3,0.4-0.4,0.7-0.4c0.3,0,0.7,0.2,1,1c0.1,0.1,0.2,0.2,0.3,0.3c2.8,2.6,1,7,3.6,6.4
		c0.3-0.1,0.6-0.2,0.7-0.4c0.5-1.1-0.6-3.3,0.4-4.4c0.2-0.3,0.4-0.6,0.9-0.8c2.7-1.1,2.7,6.5,4.8,5.4c2.1-1.1,1.6-0.8,3,1.1
		c0.5,0.7,0.4,1.2,0.1,1.6c-0.2,0.4-0.5,0.7-0.8,1c-0.1,0.3-0.1,0.7,0.4,1.3c0.4,0.6,0.4,0.8,0.1,1c-0.1,0.7-1.8,0.6-2.5,1.2
		c-0.1,0.2-0.1,0.4-0.1,0.6c0.3,2.1,3.5,0,4.7,1.9c0.9,1.4,2.3,1.9,2.8,1.6c0-0.1,0-0.3-0.1-0.5c-0.2-0.4-0.1-0.7,0.1-1
		c0.1-0.3,0.4-0.5,0.6-0.8c0.1-0.3,0-0.7-0.6-1.3c-1.7-1.8-1.6-1.6-0.7-2.9c0.1-0.1,0.2-0.2,0.3-0.4c1-1.4,2.1,0.3,3.9,1.4
		c1.8,1,1,1.4,3.1,1.4c1,0,0.9,0.2,0.5,0.7c-0.2,0.2-0.5,0.6-1,1.2c-0.2,0.2-0.4,0.5-0.6,0.8c1.1,1.6,0.9,3.4,3.8,4.8
		c0,0,33.5-2,34.5-2c3,0.8,5.7,2.3,8.3,4c0.3,0.2,0.6,0.4,0.9,0.6c0.2,0.1,0.4,0.3,0.6,0.4c0.4,0.3,0.8,0.6,1.2,0.9
		c0.2,0.2,0.5,0.4,0.7,0.6c0.1,0.1,0.2,0.1,0.2,0.2c4.8,3.7,9.5,8,15,10.6c0.9,0,1.8,0.1,2.8,1c4.5,1.4,7.7,1,10-0.2
		c4.7-2.5,6-8.4,8.2-9.3c0.6-0.4,1.3-0.3,2.1,0.4c2,2,0,7.1,2,9.1c1.2,0.3,2.5,0.1,3.7-0.4c1.7-0.7,3.4-1.7,4.9-2
		c0.9-0.2,1.8-0.2,2.6,0.3c4,2,6,7,10.1,10.1c2.9,2.3,1.8,4.6,0.8,6.8c-0.1,0.2-0.2,0.4-0.3,0.6c-0.7,1.4-1.2,2.6-0.5,3.8
		c1,2,4.1,3,6.1,3s5.1-4,6.1-3c0.7,1,0.6,2,0.2,3.1c-1,2.6-4.3,5.6-5.1,8.3c-0.2,1,0,1.9,0.8,2.8c6,6,20.5-9.5,25-17
		c0.8-1.4,1.3-2.4,1.3-3.1c1.6-5.7-0.6-15.4,1-18l0,0c0,0,0-0.1,0.1-0.1c9,7.5,35.9-7.2,39.9,5.7c0.4,0.8-0.4,1.1-1.3,1.3
		c-0.6,0.2-1.5,0.3-2.1,0.5s-1,0.6-0.6,1.2c1,2.1,6.1,2.1,7.1,4.1c2,2,0,7.1,2,9.1c3.9,1.9,35.1-6.2,39.2-7.9l0,0c2-2-1.8-6.9,0.9-8
		c0.1,0,0.1-0.1,0.2-0.1c0.3-0.2,0.7-0.4,1-0.6c3.6-1.9,7.8,1.6,11.5,0c0.2-0.1,0.5-0.2,0.7-0.4c4.1-2,2-9.1,6.1-11.2
		c0.1,0,0.1,0,0.2-0.1c0.1,0,0.1-0.1,0.2-0.1c13.2-5.1,36.5,0.7,50.7-3.4c0.1,0,0.1-0.1,0.2-0.1c0.4-2.5-4.1-10.8-1.5-15
		c0.7-1.7,2.3-2.9,5.4-3.1c2,0-2,6.1,0,7.1c5,2.1,11.1-3,17.2-1c3.1,1,2,8.1,6.1,9.1c8.2,1,15.6-6.1,23.7-6.1
		c15.2,1-10.2,17.5,22.3,26.7c0.5,0,0.9-0.2,1.3-0.4c1.3-1,2.4-3,2.4-4.4c9.1-33.6-2-18.3-13.2-28.5c-2.9-2.3,0.4-7.2,3.7-11.2
		c1.2-1.5,2.3-2.8,3.3-3.9c0.9-1.1,1.4-1.9,1.2-2.2c0-1-24.4-34.6-24.4-34.6c0.3-5.6,5.7-10.5,12.9-14.7
		c13.4-8.1,33.9-14.1,40.4-18.8c10.2-8.1,4.1-19.3,6.1-29.5c0.6-1.3,1.7-2.1,2.9-2.6c0.8-0.4,1.7-0.6,2.6-0.6
		c10.7,2.5,17.5,5.4,21.8,4.1c4-1.5,5.8-6.9,6.3-20.2c0.1-1.4,0-2.8-0.2-4.2c-0.4-1.7-0.9-3.3-1.5-5h0.2c-0.1-0.1-0.1-0.3-0.2-0.4
		h-0.1c-0.4-1.2-0.9-2.3-1.5-3.4c-10.4-18.7-42.6-30.6-56-39.8c-7.1-6.1-8.1-17.3-15.3-24.4c-7.7-7.7-17.2,0.1-23.4-4.8
		c-1.8-1.4,2.5-3.6,1.7-5.1c-2.9-5.7-6.4-6.5-10.8-6.8c-3.7-9.5-6.1-16.5-8.1-22c-3.1-7.4-5.6-12-9.9-16.5c-1.7-1.6-3.8-3.2-6.3-4.8
		c0.6-3.3,2.1-5.2,4-6.5c1.9-1.6,4.2-2.5,6-3.9c2.1-1.8,3.4-4.4,2.2-9.9c-1-6.1-8.1-7.5-10.2-8.5c-7.2-4.7-13.8-12-19-19.3
		c0-2.3-0.1-4.5,0-6.1c0.4-4-3.6-5.6-6.1-7.5c-2.6-1.8-3-2.9-3.4-4.1c0.1-0.1,0.3-0.2,0.5-0.3c0,0,0,0,0-0.1
		c0.6-0.5,1.4-0.9,2.3-1.4c1.5-1.7-3.7-4.4-0.7-6.4c0.1,0,0.1-0.1,0.2-0.1c0.1-0.1,0.2-0.2,0.3-0.3c3.7-2.7,7.4,3.7,10.2,7.5
		c3.6,2.6,4,13.8,5.4,13.9c0.1-0.1,0.1-0.2,0.2-0.3c6-12.1,9.8-25.9,21.9-33.8c4.2-2.9,9.5-5.1,16.2-6.2c2.9,0,12.8,8,17.4,4.9
		c0.1-0.1,0.3-0.3,0.4-0.4c3-3,0.2-8.8,2.9-11c0.2-0.2,0.4-0.4,0.6-0.6c3.1-3,9.2,2.1,12.2-1c0.5-0.3,0.9-0.7,1.3-1.1
		c3.5-3.6,5.4-10,9.4-13.8c1.6-1.6,3.4-2.9,5.8-3.4c3-1,5.1,6.1,7.1,4.1c0.2-0.2,0.4-0.4,0.6-0.5c3.7-4.1,2.6-10.9,6.5-14.8
		c0.3-0.3,0.6-0.7,1-1c6.1-5,17.3,1.1,25.4-3c0.1,0,0.1-0.1,0.1-0.1c1-1.6-0.2-5.5,1.3-6.5c0.1-0.2,0.3-0.4,0.5-0.5
		c12.2-7.1,29.5-8.1,41.7-18.3c2.2-3-14.5-6.9-12.6-11.8c1.2-3.4,2.4-6.8,3.8-8.2c0.7-0.9,1.4-1.3,2.3-1c2.8,0.9,4.3,4.6,6.5,4.5
		s2.8-1.4,3.7-1.4s1.3,0.9,1.9,1.5c0.9,0.1,1.5,0.1,2.4,0.3c6.6,1.5,8,2.3,7.9,4.5c0,0.6-0.1,1.4-0.3,2.4c-0.2,1.1-0.4,2-0.4,2.7
		c0,1.6,0.4,2.2,1,2.3c1,0.2,2.1-1,3.4-1.7c3.8-2.1,2.6,2,1.3,6.8c-1.3,4.8,2.7,5.8,6.5,6.4c2,1.3,4,2.1,5.8,1.7
		c3,0,3.3-3.5,5.3-7.6c0,0,0,0,0.1,0c1.9-6.7,3.7-17.4,8-31.5c2.9-9.5,7.3-15.5,0.7-29.1c-3.8-7.9-1-14.7-10.2-20.7
		c-4.1-4.1-13.2-2-17.3-8.1c-3-4.1,9.4-6.8,2-15.2c-2.5-3.4-7.4-8.9-8.5-14.6c-0.9-4.9-6.8-4.2-3.7-8.8
		c14.1-14.5,6.4-15.2,10.2-30.5c-1-2-5.1-1-6.1-4.1c-1-5.1,3.1-12.2,0-17.3c-2-6.1-9.4-4.5-12.2-13.2c-4.6-5.6-0.6-11.6,1.4-15.6
		c1.9-4,3.4-5.9,1.7-15.9c-1.3-7.5-13.2-13.5-22.4-21.3c-8.5-7.2-18.3-5.1-20.3-11.2c-1.8-4.8,3.7-2.7,2.4-13.9
		c-0.3-2.5,1.2-4.6,3.3-6.6c2-2.1,4.6-4,6.6-6c0.2-0.2,0.4-0.4,0.6-0.6c3.9-4.4,5.5-13.1,7.1-18.6c1.6-5.6,3.1-8.1,2.4-14.2
		c-2-10.2-14.2-39.3-16.2-55.5c-2,0.1,1.7-6.5-1.4-7.5s-9.2,4.3-15.6,0.7c-8.1-4.8-12.7-8.3-15.2-10.8c0.9-0.2,2.2-0.7,2.7-0.7
		c2.6,0,1.5-4.3,2.7-3.1s-1.8,2.5,0.3,2.7c2.2,0.2,4.4-3,6.8-4.4s3.1,0.5,7.5,0c4.3-0.5,6.8,0.3,6.8,0.3l-0.7-4.7l-1-1.7l0.5-0.3
		l-0.1-0.2l1.9-1.4c-0.2-0.3-0.9-0.9-3.3-2.5c-3.8-2.6-3.6-3.4-10.5-9.8c-6.9-6.5-8.1-5.1-6.4-2.7s4.4,4.8,5.1,8.1
		c0.7,3.4-0.4,5.8-1.4,4.4s-3-2.4-3-2.4s-0.6-2.1-2.7-2.4c-2.2-0.2-4.6,2.1-2.7,4.1c1.9,1.9,2.5,7.4,1,10.5
		c-0.6,1.2-3.2,2.2-6.1,2.7c-2.2-6.4,13.8-5.7-6.4-19.3c-7.2-4.9,16.9-6.8,10.2-9.1c-8.6-14.8-13.8-13.7-12.5-7.8
		c-8.1-2-20.3,1.7-21.7,8.1c-4.4-8.3-12.2-13.2-18.3-18.3c-3-4.1-10.2-2-13.2-6.1c-4.1-6.1,0-20.3-7.1-20.3c-0.5,0-1-0.1-1.4-0.3
		c-0.1,0.2-0.2,0.6-0.3,0.7c-2.6,2.5-2.1,1-5.1,2.7s-2.4,3.2-3,6.1c-0.6,2.9-4.6,2.6-4.8,0.7c-0.1-1.9-0.9-2.9-2.7-2.7
		c-1.8,0.2-4.6,0.1-6.1-2c-1.4-2.2-0.3-1.8-2,0c-1.8,1.8-3.5,3.1-6.4,5.4s-2.7-3.6-4.1-1.4c-1.3,2.3-0.1,3.8-2.7,4.8
		s-1.9,2.5-2.4,4.4c-0.5,1.9-2.9,0.4-4.7,3.4c-0.1,1.4,1.2,2.9,4.1,3.7s-1.5,0.7-5.1-0.3c-3.6-1.1-0.7-1.9-2-4.4s0.4-2.1,2-4.4
		c1.7-2.3,1.2-0.8,1.4-3.7c0.1-2.9-0.1-2.6,2-4.1c2.2-1.4,5.1-0.3,9.1-1.7c4.1-1.4,0.4-0.4,2.7-2.4c2.3-1.9,2.7-0.9,5.1-1
		s1.7-1.4,4.1-1.4s3.8,0.7,6.8,0s4.8-0.8,8.5-1c0.8-0.1,1.3-1.2,2-2.7c-0.5,0-1-0.1-1.7,0c-12.9-0.5-30.8-5.4-32.9-3.4
		c-6.1,7.1-7.1,18.3-13.2,25.4c-6,4.7-8.3,6.7-14.9,13.6c-1,1-16.9,6.6-21,7.1c-10.1,1.2-12.5-0.2-15.9,0.7
		c-9.2,5.1-12.2,30.5-17.3,33.5c-11.1-14.5-8.1,5.9-21.3-15.3c-8.1,0-13.9,8.8-22,7.8c-1.9-1.8,2.7-6.5-7.8-6.1
		c-3.8,0.1-2.7-9.4,3.4-10.5c7.9-1.4,13-9.5,20-15.6c-0.4-14.7-2.4-20.3,1.7-26.1c-4.2,0.3-5,2.7-9.8,1c-4.9-1.7-16.2,9.9-17.6,10.5
		c-7.5-2.3-28.8-18.3-34.9-17.3c-7.1,1-14.2,16.6-14.2,16.6s5.1-13.2,4.1-19.3c-1-9.2-18.9,1.7-26.4,0.3c-5.5-7.2,7.3,2.2,13.2-11.5
		c2-5.1,3.1-11.2,0-16.2c-1-2-6.1,2-7.1,0c-2-1,2-3.4,4.1-4.4c0,0,2,1,2,0c0-3.1-1-7.1-4.1-9.1c-2.5-1.5-3.6-2.4-8.5,0
		c-3-4.6-7.4-7.3-11.5-6.8c-5.5-1.6-7.3-3.8-9.5-6.4c-4.1,1-6.1,6.1-10.2,9.1c-2,1-2,0-1-3c-13.2-2-26.4-9.1-39.6-11.2
		c-3-0.4-15.2,0.7-22.3-0.4c0,7.1,1,15.2,4.1,22.4c1.2,2.3,8.9,11.3,15.6,19.3c-2.6,7.4-1.1,7.7-4.7,9.8c-3.6,2.2-2.9,8.7,3,6.8
		c5.1-1.6,6.6-3.2,9.1-7.4c1,1.3,2.4,3.1,2.4,3.4c-3.3,13.9-19.1,8.5-30.5,13.2c0.8,0.9,8.7,2,5.1,6.1c-1,2-9.2-1.4-8.1,0.7
		c0.8,6.7,1.1,11.6,18.3,7.8c2.8,2.9,2.4,3.6,3.7,2.7c1.3-0.8,3.6-3.6,5.8-6.4c0.6,0.1,1.4,0,1.7,0.3c-7.4,8.6-12.4,9.7-11.2,23.7
		c1.7,1,2.8,1,4.4,0.7c3.1-0.7,4.1,1.7,6.8,6.8c2.6,5,1.4,7-3.4,5.8c-4.3-1.1-4.9-1.5-7.1,0c1.2,4.6,2.8,8.7,4.4,11.9
		c-2,14.2,21,8.5,24,8.5c18.5,2,13.7,18.9,25.4,23.4c3.2,7.5-1.7,15.2,26.8,22.4c-28-4.2-26.1-11.2-31.2-19.3
		c-10-8.3-8.8-19-15.9-22c-9.2-4.1-20,4.4-30.2,2.4c-4.1,0-9.1,0-12.2-2c-3-1-3.5-8.4-5.1-7.1c-21.5,17.7-14.7,33.1-10.2,47.1
		c-14-3.5-19.6-18.1-24.4-6.1c-6.4,15.8,9.2,1.6,3.4,20.7c-1,3.5-5.8,6-10.8-2.7c-1.5,0-6.5-1.2-6.1-4.7s8.7-5.7,4.7-12.5
		c-5.1-8.8-8.1-11-7.5-16.3c-1-1-4.1-2-5.1-2c-21.1-0.7-24.7,1.7-34.9,4.7c-5.3-1.4-18.6-2.7-23.7,0.3c-2.9,1.5-7.6,6-11.5,11.9
		c3.5,3.5,5.5,4.9,3.7,5.1c-2.4,0.2-3.8,0.5-3,2.4c0.6,1.6-0.9,0.5-4.1-1.4c-5.1,9.2-8.3,19.5-4.1,24.7c4.1,0.6,11,2.4,16.6,2.4
		c0.7,2,5.4,4.5,2,10.8c0.9,7-1.6,16.6-4.8,25.9c0,0.4,0.1,0.8,0.1,1.1C1114.2,231.3,1114.2,231.3,1114.2,231.3z M1128.5,959.2
		l4.9,0.1h-0.1L1128.5,959.2z M1135.9,966.6c-0.3,0-0.6,0-1,0C1135.2,966.6,1135.5,966.6,1135.9,966.6c0.6,0,1.2-0.2,1.8-0.3
		C1137.1,966.4,1136.5,966.6,1135.9,966.6z M1151.9,962.6c0.2,0.4,0.5,0.7,0.6,1.1C1152.3,963.3,1152.1,963,1151.9,962.6z
		 M1382,964.3c0,0.4-0.4,0.9-0.8,1.2c0,0.5,0,1-0.2,1.2c-0.3-0.2-0.8,0-1-0.4c0,0,0.6-0.3,1.2-0.8
		C1381.2,964.7,1381.2,963.8,1382,964.3z"/>
	<path class="st1" d="M1589.7,32.8c1.7,0,2.7-0.1,2,1.4c-0.7,1.4-0.9,1.2,1,1.7s3.1-1.3,0.7,1.4c-2.4,2.6-5.1,3.7-6.8,5.4
		c-1.7,1.7,0.5,2,2.7,2s1.5,0.3,2.7,2.7s3.3,4.1-1,4.1s-6.4-1.7-7.1,1.7s1,5.1,2.7,6.8c8.4,7.2,9.7,7.4,11.9,6.4
		c2.2-1,0.7-1.2,1.7,0.7s3.6,4.5,6.4,3c2.9-1.4-3.6-5.4,0.7-9.5c4.3-4.1,10.8-8.7,15.6-7.5c4.8,1.2,6.7,4,4.1,6.1
		c-2.6,2.2,3.9,5.6,5.1,0.3s2.9-5-1.7-9.8s-8.9-1.6-11.5-10.5s6-4,6.8-11.2c0.7-7.2-3.7-7.3-10.8-6.1c-7.2,1.2-11.6,1-11.9-4.1
		c-0.2-5,0.2-3.3,2.4-4.8c1.9-1.4,2.5-4.7-2.3-4s-9.2,0-11.9,4.1c-2.6,4.1-3,7-0.3,4.1c2.6-2.9,6.5-2.9,3.4,4.1
		c-3.1,6.9-1.1,4.9,2,2.7s3.3-2.6,4.1-4.1c0.7-1.4,1-0.1,3.4,2c2.4,2.2,3.7,3.8,6.1,4.1c2.4,0.2,2.4-0.5,2.4,4.1s0.6,4.5-2,5.4
		c-2.6,1-3.6,0.8-4.1-2s1-2.4-0.7-4.1s0.4-1.8-2-0.3c-2.4,1.4-3,1.7-2-3c1-4.8-0.5-4.4-3.4-1s-0.8,2.2-1,4.4s0.1,0.3-2-1.4
		c-2.2-1.7-6.1,0.2-8.5,0s-0.3,0.9-0.3,3S1588,32.8,1589.7,32.8z"/>
	<path class="st1" d="M1452.4,109.6c0.4-3.4,1.3-4.4,1-1.7c-0.2,2.8-0.3,8.7,2.7-0.7c1.5-3.3,3.4-5.4,2.7-5.7
		c-0.2-0.1-0.8,0.1-1.7,0.3c-3.6,1.1-11.2,2.7-8.8,6.8C1450.7,112.7,1452,113,1452.4,109.6z"/>
	<path class="st1" d="M1420.5,47.2c4.6-1.7,4.7-2.1,4.4,1c-0.2,3.1,1.7,7,5.1,4.4s5.3-2.6,8.1-1.7c2.9,1,6,2.5,2.4-3.7
		s-5.5-12-13.9-13.2c-1-0.1-1.9-0.2-2.7,0c-5.9,1.3-6.9,10.1-6.1,11.5C1418.8,47.2,1419.5,46.5,1420.5,47.2z"/>
	<path class="st1" d="M1590.5,38.4c0.5-1,1.4-1-1-2.7c-0.6-0.4-1.1-0.7-1.7-0.6c-1.8,0.2-3.5,2.2-4.8,4.7
		C1581.3,43.2,1585.2,40.8,1590.5,38.4z"/>
	<path class="st1" d="M1078,159.1c3.6,1.2,2.6-2.6,6.5-4.8c1.9-1.2,1.5-1.8-0.5-1.9c-2-0.1-5.6,0.3-10.1,1.4
		C1071.7,155.2,1074.4,157.9,1078,159.1z"/>
	<path class="st1" d="M1160,136.2c5-1.2,6.5-1.7,1.4-1.9c-2.6-0.1-4.1-0.2-5-0.1c-0.9,0.1-1.2,0.5-1.2,1.3
		C1155.2,137.2,1157.3,136,1160,136.2z"/>
	<path class="st1" d="M1206.5,4.5c0.2-3.1,1.3-11,2.2-13.4c1-2.4,2.1-1.9,4.7,0s2.9-0.2,8-1.9c5-1.7,6-3.7,4.1-3.7
		s-7.3,1.5-11.9,0.3s-1.1-7.6-0.3-12.2c0.6-3.7,4.3-4.6,4.7-5.1c-1.1-0.1-1.7-1.6-2.4-1.9c-0.2-0.1-0.4,0.1-0.7,0.3
		c-0.4,0.3-1.1,1.2-1.7,2.4c-2.4,4.8-5.3,8.3-9.1,29.8C1203.9,4.1,1206.2,7.6,1206.5,4.5z"/>
	<path class="st1" d="M1230.8,38.5c2.6,3.6,4.6,0.6,6.8-4.4c1.1-2.6,1.2-3.4,0-3.4c-1.2-0.1-3.9,0.9-7.5,2.7
		C1227.9,34.8,1228.1,34.9,1230.8,38.5z"/>
	<path class="st1" d="M1140.8,140.2c0.5-1.4-1.2-1.9,5.7-1.7c7,0.2,4.3-2.2-4.6-2.2c-3.4,0.2-3.3-0.5-4.5,2.2
		C1136.2,141.1,1140.3,141.6,1140.8,140.2z"/>
	<path class="st1" d="M1104.1,146.4c8.4-0.3,6.8-1.4-1.4-1.5c-2.7-0.1-6.2,0-10.3,0.3C1085.2,146.4,1092.9,146.6,1104.1,146.4z"/>
	<path class="st1" d="M1119.7,142.3c8.1-1,11-2.9-1-2.9S1112.9,143,1119.7,142.3z"/>
	<path class="st1" d="M1216.6,11.3c6.7,2.9,9.2,4.3,11.9,0.7c2.6-3.6,3.6-8.3-2.4-8.1C1220.1,4.1,1212.3,7.5,1216.6,11.3z"/>
	<path class="st1" d="M2027.4,1147.6c-1.8,3.5-9.4,1.2-6.7-0.7c0-0.3,0.3-0.6,0.8-1c0.5,0.1,1.2,0.1,1.7,0.1
		c-3.4-0.9-0.6-1.5-1.9-4.1c-2,0.9-3.8,2.5-5.8,3.7c-0.2-1,0.1-1.4,0.6-1.8c0.2-0.9,1.2-1,2.1-1.9c-5,1.6-4.5-1.1-8.1-2
		c1.5-2.6,2-4.2-8.9-15.4c-1.9-1.9-7.1,2.2-3-2.5c0.1-0.1,0.2-0.3,0.4-0.4c-2.9-2.8-9.9-5-17.6-7.1l-0.3-2.4l-2,0.3
		c-1.9-2.3-4.5-3.3-6.8-4.7c0.3-6.1-2.7-7.4-5.4-11.9c-1.6,1-2.4-0.7-3.4-1l-5.1,0.3c-0.2-3.6-2.2-1.4-3-0.7l-5.4-8.5
		c-2.8-0.5-5.8-1.9-8.1-1c-3.7-2.5-7.5-4.8-10.9-6.6c-3-1.5-5.5-2.7-7.2-3.3c-1.4-0.5-6.9,3.1-10.1,6.1c-1.4,1.4-2.3,2.6-2.2,3.3
		c0.9,4,3,6.8,4.3,10.1c2.3,0.6,2.7,2.6,2.4,4.7c0,0,0,0-0.1,0c0,0.1,0,0.1,0,0.2c0,0-1.4,0.2-3.4,0c-1.8-0.2-2.8-0.8-3-1
		c-0.1,0.2-0.1,0.5-0.3,0.6c-0.9,1.8-3.8,1-4.5,0.3c-1.6-1.7-1.9-3.4-4.1-2.4c-2.1,0.8-6.5,0.5-7.6,1.7c-0.1,0.1-0.1,0.2-0.2,0.3
		c-0.7,1.6,3.5,5.2,2.6,6.2l0,0l0,0l0,0c0,0,0,0.1-0.1,0.1c-22.8,17.1-21.5,10.6-23.7,12.9c-0.4,0.4-0.7,0.8-0.8,1.2
		c-0.5,1.7,1.1,3.1-2.5,6.8l0,0l-0.1,0.1c-0.9-0.7,0.2-1.7-2-1.7s-5.7-1-7.4,0c-1.7,3.8-3.1,7.1-5.1,10.7c-0.5,0.4,1.6,0.3,1.4,2.4
		c1.2,6.5,5.6,6.7,10.8,9.5c0.7,1.2-0.7,4.5-0.7,6.4c1.2,4.9,0,8.6-0.7,13.2c-0.2,0.5-1.7,3-0.3,4.4c1.1,1.2,4,2.5,3,3.2
		c-0.1,0.1-0.3,0.2-0.7,0.3c-0.6,0.1-1.2,0.3-1.7,0.5c-1.6,0.7-3,1.7-3.3,2.4l0,0l-0.1,0.1l-11,0.7c-0.5,0.7-1.2,1.2-1.8,0.9
		c-1.6-0.8-2.8-0.6-3.4,0.7c-0.6,1.3,1.5,2.9,0.3,3l195.7-2.1c-1.4-1.6,4.4-28.2-2.5-32.7c-0.1-0.1-0.1-0.2-0.2-0.3
		c-0.2,0-0.6-0.3-1.4-0.9c-3.5,1.8-7.6,0.1-10.8-0.6C2027.9,1146.9,2027.7,1147.3,2027.4,1147.6z"/>
	<path class="st1" d="M2040.3,1148C2041.1,1148.1,2038.9,1145.4,2040.3,1148L2040.3,1148z"/>
	<path class="st1" d="M1236.9,1194.8c-1.2-0.8-1.3-2.2-1.2-4.1h-0.4c-0.2,2.3-0.2,4.1,1.2,5c0.9,0.6,1.7,1.2,2.6,1.6
		c0.8,0.5,1.7,0.8,2.5,0.8s1.7-0.3,2.6-1.1c0.9-0.8,1.9-2,3-3.9c0.3-0.6,0.6-1.1,0.9-1.7c-0.1,0.3-0.3,0.6-0.5,0.9
		C1243.3,1199.7,1240.4,1197.2,1236.9,1194.8z"/>
	<path class="st1" d="M1061.2,1178.3c0.1,0.1,0.1,0.2,0.2,0.3c0.1-0.1,0.3-0.2,0.4-0.3H1061.2z"/>
	<path class="st1" d="M1381,1060.4c-0.1-0.1-0.2,0-0.2,0C1380.9,1060.5,1380.9,1060.4,1381,1060.4L1381,1060.4z"/>
	<path class="st1" d="M1089.1,1178.9c3.8,4.3,12.4-2.9,15.3-6.2c0,0,2.5-3.1,6.2-2.8c3.7,0.3,6.9,0.1,10.6,4.2
		c0.6,0.7,0.9,1.1,1.3,1.6c0.8,0.5,1.6,0.9,2.4,1.4c0.9-0.3,2.1-0.5,4.2-0.1c2.4,0.4,4.3,0.8,7.5,1.4c0.1-0.2,0.1-0.4,0.2-0.6
		c0.3-1,0.6-1.9,0.9-2.7c0.5-1.5,1.1-2.8,1.7-3.7c2.4-3.1,7.3,2.6,10.2-1.1c0.2-0.3,0.4-0.6,0.6-1c0.1-0.4,0.2-0.9,0.2-1.3
		c0.2-2.4-0.5-5-0.3-6.9c0.1-0.5,0.2-0.9,0.5-1.3c0.2-0.8,0.5-1.4,1.2-1.8c3.3-1.8,8.4-3.6,15.4-7.8c0-0.2,0.1-0.3,0.2-0.5
		c0.1-0.5,0-0.9-0.1-1.4c-0.9-3.4-6.2-5.3-7-8.1c-0.1-0.4-0.1-0.8-0.1-1.3v-0.1c0.1-0.4,0.3-0.7,0.4-1c2-6.1,10.1-8.1,15.2-12.2
		c1.7-1.4,3.3-2.8,4.9-4.2c-0.1,0-0.1-0.1-0.2-0.1c-2.8-1.6-4.2-2.7-3.2-3.9c-0.1-0.8,0.7-1.6,2.5-2.6c4.1-2.2,12-3.5,12.8-3.6
		c0.9-0.1,1.5-0.4,2.5,0.2c2,6.1,1,12.2,1,18.3c0,1.1-0.4,2.4-0.9,3.8c-0.2,0.5-0.4,1.1-0.5,1.6c-0.6,1.9-1.1,3.8-0.6,5.8
		c7.1,13.2,23.3,16.2,34.5,20.3c1.1,0,3.1,2.1,3.1,4.1c-0.1,0.2-0.1,0.5-0.2,0.7c0,0.1,0,0.2,0,0.3c-0.4,1.9-2.3,3.6-4,5.3
		c2.3,1.7,4.5,3.6,5.9,5.2c3.9,4.5,2.5,10.1,2.3,13.9l12.4,0.4c2.6-5.8,0.1-7.6-3.4-8.6c-3.9-1.2,1.7-6.8-1.7-10.3
		c-1.6-1.6-1.5-3-0.6-4.1c0.6-1.7,3.1-2.8,5.1-3.1c0.5-0.1,0.8-0.3,1-0.6c0.1-0.6,0.1-1.4,0.1-2.1c-0.1-1.4-0.2-2.9,0.4-3.8
		c0.1-0.6,0.4-1,0.9-1.3c2.4-1.4,5.9-4.8,7.8-5.6c1.6-0.8,6.1-7.6,8.4-12.7c0.1-0.3,0.2-0.5,0.3-0.8c1.5-3.9,3.4-7,3.8-11.2
		c0.1-1.4,0.1-2.9-0.1-4.6c-0.1-0.5,0-0.8,0-1.3c-0.3-2.1-0.5-4.2-0.4-6.1c0-0.1,0-0.2,0-0.3c0.1-1.6,0.3-3.1,0.9-4.3
		c0.1-0.1,0.2-0.2,0.2-0.4c0.3-0.4,0.5-0.9,0.8-1.2c0,0,0,0,0.1-0.1c0.9-1.2,2.2-2.1,4.1-2.3l5,6.2l3.4-3.2c1,1.7,1.6,2.9,2.2,4
		c0.2,1.2,0.5,1.9,0.6,2.8c0.5,3.5-1.4,5.8-2.1,6.5c-0.1,0.1-0.2,0.2-0.2,0.3c0.4,0.1,2.7,1.1,5,2.5c2.5,1.6,0.3,6.5,6.4,9
		s9.8-0.7,9.8-0.7l3.4,2.5l2.6-3l-2.7-2.7l0.7-0.6l-0.1-0.1l3.2-2.7l3.2,2.7l11.1-5.9c2.1,0.3,3,0.3,6.1,0.9c0.8,0.1,1.4,0.4,2,0.8
		l1.7,3.2l-0.5,0.5v0.1l-1.3,1.3c0.4,0.2,2.7,1.6,1.9,3.7c-0.8,2.3,0.8,2.1,3.7,2.8c2.9,0.7,2,4.9,1.2,5.6c-0.8,0.6-0.1,1.8,3.7,1.5
		c3.8-0.3,4.5,1,6.6-1.5c1.8-2.2,1.8-3.2-1.1-6.9c-3.1-3.7-5.9-6.4-3.8-8.1c0.2-0.3,0.4-0.6,0.8-0.8c0.5-0.3,0.9-0.7,1.2-1
		c0.5-0.7,0.7-1.4,1.3-1.8c0.3-0.4,0.6-0.8,1.3-1c0.4-0.1,0.8-0.3,1-0.5c0.3-0.7,0-1.6-1.4-3c-2.3-2.4-2.7-2.4-4.7-1.5
		c-1.7,0.8-2.7,1.5-4.3,0.1l0.2-0.2c-3.8-2.3-5.3-10.1,0.1-19.9h0.1c0.1-0.2,0.2-0.4,0.4-0.6l0,0l0,0c0.2-0.3,0.4-0.5,0.6-0.8
		c0.8-1.1,1.9-2.2,3.5-3.3c7.5-5.4,10.6-3.5,13.3,0.1v4.7l8.5,4.7l2.7-2.2l9.3,2.2l3.2-10l-3.5-2.9l-4.3-0.3
		c-2.2-2.3-4.1-4.2-4.1-4.9c2-4.1,5.1-7.1,6.1-11.2c2-4.1,1-9.1,2-13.2h-0.1c-4.3-1.8,2-6.6,3.1-10.7l-5.9-1.5l-1.8-4.7
		c-0.6-0.1-0.9-0.3-1.5-0.4c-1.8-0.4-3.5,0.3-5,1.3l-1.1,3.7c0,0-0.1,0-0.3,0.1l-0.2,0.6c0,0-0.4,0.1-0.7,0.3c0,0.2,0,0.4,0.1,0.7
		c0.3,0.8,0.5,1.3-0.2,1.6c0,0.7-0.8,1-3.5,0.8c-0.4,0-0.7,0-1-0.1c-0.8,1.2-1.8,2.3-2.7,3.4c-0.1,2.2-0.1,3.6-0.8,4.2
		c-0.4,1-1.2,1.3-3.4,0.8c-0.2-0.1-0.5-0.3-0.7-0.4c-2.9,1.9-6.4,2.5-11,0.3c-4.3-2.2-9.4-4.7-13.5-8.1c-1.6-1.2-4-1.4-4.4-2
		c0.3-2.7-1.8-4.2,1-8.1c-0.5-1-2.9-2.1-2-2.4c0.2-0.1,0.3-0.1,0.5-0.2c-0.2-0.2-0.3-0.4,0-0.5c0.2-0.1,0.6-0.2,0.8-0.4
		c0-0.2-0.3-0.4-1-0.6c-0.4-0.1-0.7-0.1-0.9-0.1v0.1c-0.1,0-0.2,0-0.3,0c-0.5,0.2-0.2,0.7-0.2,0.7c-1.3-0.3-3.6,1.5-4.7-1
		c-3-1.2-7.3-2.3-10.1-4.7c-3.1-1.2-2.7,3.1-7.4,0c-1.1,0.7-3.8,1.8-4.4,0s-2.7-1.2-3.4-0.7c-0.7,0.6-4.8,0.4-3.7-0.7
		c0.1-0.1,0.2-0.2,0.3-0.3c-0.1-0.1-0.1-0.3,0.1-0.5c1-1.1,1.8-1.3,3.7-2.4c0.2-0.1,0.3-0.2,0.5-0.4c0.2-1.2-0.6-2.9-0.6-4.5
		c0.1-2.3-2.7-4.9-2.4-7.1c0.2-1,0.8-2.5,1.5-4c0.8-2,2-4.2,2.8-5.6c-0.2-1,0.2-1.5,0.6-1.9c0.2-0.4,0.5-0.6,0.8-0.9
		c0.2-0.4,0.4-0.9,0.2-1.7c0.1-0.2,0.3-0.4,0.5-0.6l0,0c0.5-0.9,2.3-2,3.4-3c0.8-1.2,0.7-3.1,1.8-4.5c0.1-0.1,0.2-0.2,0.3-0.4
		c0.1-0.1,0.1-0.2,0.2-0.2c1.2-1.5,2.1-0.8,4.7-1.7c0.3-0.1,0.5-0.2,0.7-0.3c0.2-0.9-1.2-2-2.9-3.8c0.5-1.7,0-3.7,1.4-5.1
		c0.1-0.1,0.1-0.2,0.2-0.3c-0.2-0.2-0.7-0.3-1.6-0.3c-2.3,0-5.1-3.7-5.1-3.7c-1.3-0.9-3.4-2.9-3.4-6.1v-1c0-0.1,0-0.3,0-0.3
		c-5.1-2.8-9.5-7.3-14.3-10.9c-0.1-0.1-0.2-0.1-0.2-0.2c-0.2-0.2-0.5-0.4-0.7-0.6c-0.4-0.3-0.8-0.6-1.2-0.9
		c-0.2-0.1-0.4-0.3-0.6-0.4c-0.3-0.2-0.6-0.4-0.9-0.6c-2.7-1.7-5.5-3.1-8.5-3.7c-1,0-34.5,2-34.5,2c-3-1.5-2.6-3.1-3.9-4.7
		c0.3-0.5,0.6-0.8,0.9-1.2c0.4-0.5,0.8-0.9,1-1.2s0-0.4-0.7-0.4c-2.1,0-1.4-0.3-3.1-1.4c-1.8-1-2.9-2.8-3.9-1.4c0,0,0,0.1-0.1,0.1
		c-0.7,1.1-0.7,1,0.9,2.6c0.8,0.8,0.7,1.2,0.4,1.6c-0.1,0.3-0.4,0.5-0.6,0.8c-0.1,0.2-0.1,0.4,0.1,0.7c0.2,0.4,0.1,0.6-0.1,0.8
		c0,0.8-2,0.4-3-1.3c-1.2-1.9-4.5,0.2-4.7-1.9c-0.1-0.4,0.1-0.7,0.3-0.9c0.4-0.8,1.9-0.8,2.5-1.2c0-0.2,0-0.4-0.3-0.7
		c-0.6-0.7-0.5-1.2-0.2-1.6c0.1-0.4,0.5-0.7,0.8-1c0.1-0.3,0.1-0.7-0.3-1.3c-1.4-1.9-0.8-2.2-3-1.1c-2.1,1.1-2.1-6.5-4.8-5.4
		c-0.3,0.1-0.5,0.3-0.7,0.5c-0.7,1.3,0.5,3.5-0.4,4.4c-0.1,0.3-0.4,0.6-0.9,0.7c-2.6,0.6-0.8-3.8-3.6-6.4c0-0.2-0.1-0.4-0.1-0.6
		c-0.8-0.6-1.3-0.8-1.7-0.6c-0.4,0.7-0.1,2.1,0.6,3.2c0.3,0.5,0.2,0.8-0.2,0.9c-0.3,0.9-4,0.1-6.8,0.5c-0.3,0-0.3,0-0.5,0.1
		c-0.3,0.1-0.6,0.2-0.9,0.4c-2.2,1.9-3.4,6.7-6.1,10.4c-3.2,4.3,3.1,5.4,4,6.2c0.7,0.7,4.3,1.1,6.3-0.1c0.2-0.1,0.3-0.2,0.4-0.4
		c0.7-0.9,1.1-1.4,1.7-1.7c0.8-0.6,1.7-0.7,4.2-0.5c3.8,0.3,2.4,0.6-0.3,2.9c-2.6,2.3-0.8,1.7,0.3,4.1c0.4,0.8,0,1.3-0.6,1.7
		c-1,1.1-4.2,1-3,0c1.5-1.2-1-2.6-2.6-3.5c-1.1-0.6-2.9,0.3-4.7,1.6c-0.8,0.6-1.5,1.3-2.2,1.9c-2.2,2.3,3.7,1.8,2.5,2.8
		c-0.2,0.1-0.4,0.3-0.6,0.4c-1.2,1-3.5,2.2-6.3,1.1c-3-1.2-1.9-0.7-6.5,0c-3.4,0.5-5.3-4-6.2-6.7c-1.5,0-2.2-0.2-3.9-0.2
		c-0.8,1-1.6,2-2.7,3c-0.2,0.2-0.4,0.4-0.7,0.6c-6.8,5.7-12.2,4-16.9,5.4c-2.2,0.6-3.8-1.9-4.9-4.7c-4,0.6-7,1.1-10.8,1.6
		c-1.5,1.4-3.5,2.5-6.2,2.4c-3.6-0.2-5.3-0.7-5.5-1.7c-0.2,0-0.4-0.1-0.6-0.1l0.1-0.4l0.1-0.1l0.1-0.2l3.4-1.3l-1.4-2.7l0.3-0.1
		l-0.1-0.2l1.6-0.6l-4.4-0.1l-4.6,4.5c0,0-0.1,0-0.1-0.1l-1.4,1.4l-5.1-0.8l-2.5,3.6c0.3,0.4,0.7,1,0.9,1.2c0.3,0.5,0.3,0.9,0.1,1.4
		c0.4,2.1-3.6,3.6-3.6,3.6l-3.5-3.3c-0.5,0.5-1.1,1.1-1.6,1.6l2.9,3l-0.4,0.4l0.3,0.4l-4.6,4.7l-6.6-2.2c0,0-5.4,3-7.3,1
		s-2.4,1.2-3.7-0.5c-1.1-1.4-1.8-1.6-1.4-2.8c-0.1-0.3,0-0.8,0.4-1.4c-1.7-1.7-3.5-3.5-5.8-4.9c-2.2,1.5-3.3,2-4.5,0.8
		c-1.5-1.5-5.2-5.2-6.6-0.7c-0.5,1.5-1.6,2.6-2.8,3.5c0.3,0.6,0.5,1.2,0.5,1.6c0,0.2-0.1,0.3-0.2,0.3c0,0.2,0.1,0.3,0.1,0.5
		c0,1-2,0-2,0c-2.5,3.4-8.8,6.8-9.7,10.7c0,0.5,0.1,1.1,0.3,1.7c1.1,5.1,16.6-5.1,16.6,0c-0.1,0.7-0.1,1.3-0.2,1.9
		c-1,11.3-5.2,4.1-9.6,5.4c0.7,1.6,1.2,3.7,0.9,5.5c-0.1,1.5-0.7,2.9-2.5,3.7c-5.5,2.6-3.3,8.6-10.3,10.3c-1.2,0.3-2.7,0.4-4.1,0.7
		c-3.6,5.9-7,11.6-10.2,14.3c-5.9,6.8-19,4.3-23.7,11.3c0.2,0.4,1.8,2.9,3.1,7.3c0.3,0.8,0.3,1.6,0.2,2.4c0.1,3.3-2.6,5.9-3.6,6.8
		l1.5,2c0,0,0.1,0.2-0.1,0.7l0.1,0.2c0,0,0.5,0.7-2.4,3.4c-2.9,2.6-8.8,6-12.4,7.4c-3.6,1.4-11.5,10.3-13.4,10.5
		c-1.5,0.2-4.8,3.2-6,4.4l4.1,4.5l-0.4,0.4l0.4,0.5l-8.7,9.2l2,2.4l-0.4,0.4l0.4,0.5l-2.1,1.9l9,7.7l-0.5,0.5l0.5,0.5l-4.7,4.7
		c0,0.2,0.1,0.5,0.1,0.7c-0.5,0.6-1.3,1.4-1.5,1.8c-0.4,0.6-0.6,1.2-0.7,1.9c0,1.6,0.6,3,1.5,4.1c0.5,0.6,1.1,1.2,1.8,1.6
		c0,0-0.6,0-1.5-0.1c0.4,0.4,0.8,0.8,1.3,1.1c0,0-8.4-0.7-12.7,0.7c-2.4,0.8-4.2,1.8-4.9,2.8c0.1,0.4,0.4,0.8,1.1,1.2
		c1,0.5,1,1.3,0.5,2.1c0,1.3-2.4,3.2-3.3,5.6c0,0.4,0.3,0.6,0.8,0.6c0.7,0,1.7-0.3,2.9-0.7c2.4-0.8,5.2-1.7,6.9-1s4.6,1,7.3,0.5
		c2.8-0.5,5.3-1.6,6.4-3.8c1-2.2,2.8-2.8,4.6-3.2c0.3-0.1,0.5-0.1,0.7-0.2c0.6-0.1,1.3-0.3,1.9-0.5c0.8-0.3,1.5-0.7,2-1.4
		c0.7-0.9,1.2-1.6,1.5-2.2c-0.1-0.6-0.8-0.9-2.5-1c-1.8-0.1-3.1-2.7-3.9-5.3l0.7,0.2c-0.2-0.4-0.3-0.9-0.4-1.3l0.4,0.1
		c-0.1-1.2-0.1-2.2,0.3-3.2c0-0.3,0.1-0.6,0.3-0.9c0.2-0.4,0.5-0.8,0.9-1.2c9.1-14.2,37.6-14.2,50.8-8.1c0.4,0.1,0.7,0.4,0.9,0.6
		c0.2,0.4,0.1,0.9-0.1,1.4c0.1,1.7-3.1,4.9-4,7.3c0,0.2,0,0.5,0.1,0.7c0,1.3,0.4,2.4,1,3.4c1.2,2,3.2,3.6,4.6,5.6
		c0.7,1,1.3,2,1.5,3.2c0.1,0.6,0,1.2-0.2,1.7c-0.2,3.9-7.1,4.8-8.4,8.9c-0.1,1.3,0.3,2.9,1.5,4.9c2,2,8.1-1.1,9.1,2
		c0.7,1,0.6,2.3,0.2,3.6c-0.3,2-1.7,4.3-2.3,6.3c-0.1,0.5,0,0.9,0.1,1.4c0.3,0.6,0.8,0.5,1.4,0.2c0.5-0.3,1.1-0.7,1.7-1.2l0.1-0.1
		c1.2-1,2.4-1.9,2.9-0.9c2.5,2.4,3.8,5.4,5,8.4c0,0.1,0.1,0.2,0.1,0.3v0.1c1.1,3.1,2.1,6.4,4.1,9.4l-0.4,0.3
		c0.2,0.3,0.3,0.5,0.5,0.8c0.1,0,0.1,0,0.1-0.1c2.2,4,5.3,6.1,8.8,7c0.4-0.3,0.8-0.6,1.2-0.9h-0.8
		C1079,1179.5,1085.9,1175.3,1089.1,1178.9z"/>
	<path class="st1" d="M1380.8,1060.4L1380.8,1060.4L1380.8,1060.4z"/>
	<path class="st1" d="M1762.7,790.5l-8.1,26.7c-7.1,2-14.5-7.1-21.6-7.1c-4.1,0-3,8.1-7.1,9.1c-21.3,8.1-33.4-13.2-49.7-21.3h-0.8
		c0.6,1.6,1,3.3,1.3,5c0.3,1.4,0.5,2.7,0.5,4.1c-0.5,13.8-2.3,19.1-6.6,20.3c-4.3,1.6-11.2-1.3-22.2-3.9c-0.8,0-1.5,0.1-2.2,0.4
		c-1,0.5-1.9,1.3-2.5,2.4c-2,10.2,4.1,21.3-6.1,29.4c-0.1,0.1-0.2,0.2-0.4,0.3l0,0c-6,4.7-26.6,10.6-40.3,18.8
		c-6.9,4.2-12,9-12.4,14.4c0,0,24.3,33.5,24.3,34.5c0.3,0.3-0.5,1.2-1.6,2.6c-0.9,1.1-2,2.4-3.3,3.9c-3.1,3.9-6.1,8.5-3.3,10.7
		c11.2,10.2,22.3-4.8,13.2,28.7c0,1.6-1.2,3.8-2.8,4.7c-0.5,0.4-1.1,0.7-1.7,0.7c-32.6-9.1-7.2-25.4-22.4-26.4
		c-8.2,0-15.3,7.1-23.4,6.1c-4.1-1-3.1-8.1-6.1-9.1c-6.1-2.1-12.2,3-17.3,1c-2-1,2-7.1,0-7.1c-2.7,0.2-4.2,1.2-5.1,2.5
		c-2.1,4.9,3.2,13.7,1.5,15c-0.1,0.4-0.2,0.6-0.5,0.7c-14.1,4-37.4-2-50.6,2.9c-3.8,2.2-1.9,9-5.9,11.1c-0.4,0.3-0.7,0.5-1.1,0.6
		c-3.6,1.9-7.8-1.6-11.5,0c-0.2,0.1-0.5,0.2-0.7,0.4c-0.1,0-0.2,0.1-0.3,0.2h-0.1c-0.1,0-0.1,0-0.1,0.1c-2,1.4,1.4,6-0.5,7.8
		c-0.1,0.1-0.2,0.1-0.4,0.2c-1.4,1.1-35.5,10.1-39.6,8.1c-2-2,0-7.1-2-9.1c-1-2.1-6.1-2.1-7.1-4.1c-0.4-0.8,0.2-1.1,1-1.4
		c0.6-0.2,1.4-0.3,2.1-0.5c0.8-0.2,1.3-0.6,0.9-1.2c-4-12.8-30.5,1.8-39.6-5.7c-1.6,2.6,0.6,12.2-0.9,17.8c0,0.7-0.5,1.8-1.4,3.3
		c-4.4,7.4-19.1,23.2-25.1,17.2c-0.9-0.9-1-1.9-0.7-3c0.6-2.6,4-5.6,5.1-8.3c0.4-1,0.4-2-0.3-2.9c-1-1.1-4.1,3-6.1,3s-5.1-1-6.1-3
		c-0.8-1.2-0.2-2.6,0.6-4c0.1-0.2,0.2-0.4,0.3-0.6c1-2.1,2-4.3-0.9-6.6c-4.1-3.1-6.1-8.2-10.2-10.2c-0.8-0.5-1.6-0.6-2.4-0.4
		c-1.5,0.4-3.2,1.3-4.9,2c-1.3,0.5-2.6,0.8-3.9,0.5c-2-2,0-7.1-2-9.1c-0.8-0.6-1.4-0.7-1.9-0.5c-2.1,1.2-3.4,6.9-8.2,9.3
		c-2.4,1.3-5.6,1.7-10.2,0.3c-0.9-0.3-1.7-0.7-2.6-1.1c-0.1,0-0.2,0-0.2,0v1c0,3.2,2.1,5.2,3.4,6.1c0,0,2.8,3.7,5.1,3.7
		c1,0,1.5,0.2,1.7,0.3c-0.2,0.2-0.4,0.4-0.6,0.6c0,0,0,0,0.1,0c-0.1,0.1-0.2,0.2-0.3,0.3c-0.8,1.4-0.4,3.2-0.9,4.5
		c2,2.3,3.8,3.6,2.4,4.4c-0.1,0.3-0.5,0.6-1.2,0.9c-2.3,0.8-3.3,0.3-4.4,1.3c-1,1.5-0.9,3.3-1.8,4.5c-0.1,0.1-0.2,0.2-0.3,0.4
		c-0.1,0.1-0.1,0.2-0.2,0.2c-0.8,1-2.3,2-3.2,2.8c0.2,1.3-0.3,1.8-0.8,2.3c-0.2,0.4-0.5,0.6-0.8,0.9c-0.2,0.3-0.3,0.8-0.1,1.5
		c-0.1,0.1-0.3,0.2-0.3,0.3c0.3,0.3,1,0.7,1.5,1.1c0.8,0.6,1.6,1.3,1.2,1.9c-0.2,0.2-0.3,0.5-0.3,0.7c-0.1,1.4,2.5,2.2,2.4,3.1
		c0,0.1,0,0.2-0.1,0.3c-0.5,0.9-1.1,0.6-1.1,1c0,0.1,0,0.3,0.1,0.6c0,0.1,0,0.2,0.1,0.3c0.2,1-0.4,1.5-0.2,2
		c0.1,0.1,0.2,0.3,0.5,0.4c1.2,0.8,1.8,0.5,2,1.7c0.3,1.2,2.1,0,2.4,0.7c0,0.1,0,0.1,0,0.2c0.1,0.4-0.8,0.7-0.9,1.3
		c0,0.2,0.2,0.5,0.5,0.9c0.4,0.5,0.5,0.7,0.5,0.9c0.1,0.5-0.7,0.6-0.7,1.5c0,0.2,0.1,0.4,0.1,0.6c0.4,1.3,1.1,2,1,2.7
		c0,0.4-0.2,0.8-1,1.1c-1.9,0.9-1.5,0.4-1.7,2.7c3.5,1.7,4-1.1,6.8,0c2.8,2.5,7.1,3.5,10.1,4.7c1.1,2.3,3.1,0.9,4.4,1
		c0.1,0,0.1,0,0.2,0c-0.1-0.2-0.2-1,1.4-0.6c1.4,0.3,1.1,0.8,0.5,1.3c0.1,0.3-0.3,0.7-0.8,0.9c0.5,0.5,1.7,1.2,2,1.9
		c-2.8,3.9-0.7,5.4-1,8.1c0.4,0.7,2.8,0.8,4.4,2c4.2,3.4,9.2,5.9,13.5,8.1c4.6,2.3,8,1.6,11-0.3c0.2,0.1,0.5,0.3,0.7,0.4
		c1.5,0.3,2.4,0.3,2.9-0.1c0.3-0.8,0.3-2,0.3-3.6c0.2-0.2,0.3-0.4,0.5-0.6v-0.1c1.1-1.3,2.2-2.6,3.2-4c0.3,0,0.6,0,1,0.1
		c1.6,0.2,2.5,0.1,3-0.1c0-0.3-0.1-0.6-0.3-0.9c-0.3-0.7,0-1.1,0.4-1.4c0.1-0.5,0.5-0.8,0.9-0.9l1-3.5c0.1-0.1,0.2-0.2,0.4-0.3
		l0.1-0.4c1.6-1.2,3.3-2,5.4-1.6c0.7,0.1,1,0.3,1.5,0.4l1.8,4.7l5.9,1.5c-1.2,4.2-7.4,8.9-3.1,10.7c6.1,3,7.9,3.5,8.6,3
		c0.5-0.4,0.5-1.2,1.1-2c0.8-1,2.8-1.8,8.5-1.1c7.5,0.9,15.3,19.2,29.3,14.7c0.1,0,0.3-0.1,0.4-0.1c0.9-0.3,1.8-0.8,2.8-1.3
		c0-0.1,0.1-0.1,0.1-0.1l13.2-27.4c2.1-1.5,5.8-2.4,10.4-2.9c3.8-0.4,8.2-0.6,12.7-0.5c10.1,0,20.8,0.7,26.9,0.6c1,0,2-0.1,2.7-0.2
		c6.4-0.4,12.3-2.9,18-5.7c3.9-1.9,7.8-4,11.8-5.6c0.4-0.2,0.8-0.4,1.2-0.5c0.4-0.1,0.9-0.3,1.4-0.4c3-1,6.2-1.7,9.4-1.9l0,0l0,0
		c0.1,0,0.2-0.1,0.3-0.1c7.4-0.7,7.4-1.4,6.7,3.4c-0.4,2.5-1,3.5-2.3,4.1c-1.2,0.6-3.1,0.8-6,1.3c-0.4,0.1-0.8,0.2-1.1,0.4
		c-3.3,1.9,1.4,8.2,2.5,10.3c0.5,0.9,0.1,2.2-0.4,3.4c3.1,0.4,6.5,1.2,9.4,5.6c2,3.1-3.1,7.1-1,11.2c1,2,4.1-2,6.1,0
		c12.3,9,22.8,14.1,35.7,17.6c0.9,0.2,1.8,0.4,2.8,0.6c4.7,1.2,9.6,2.3,15.1,3.3c2.3,0.4,4.8,0.8,7.3,1.2c11.1,3.5,18,4.4,23.7,4.4
		c6.2,0,11.1-1,18.4-1c5.5,0,12.4,0.6,22.5,2.7c0.1,0.1,0.2,0.1,0.3,0.2c0-0.4,0.1-0.7,0.1-1.1c8.3,3.3,14.3-0.5,18,2
		c0.3,0.2,0.5,0.3,0.8,0.6c8.4,5.4,13.1-1.7,24.2,8c6.7,0.9,14.1-5.1,20.6-2.9c1.6,0.4,3.1,1.3,4.6,2.8c0.4,0.5,0.8,0.8,1.1,1
		c1.6,0.4,2.9-1.2,4.8,0c1.1,0.5,2.4,1.8,4.1,5.3c1.5-0.1,0.8-7.9,2.7-8.9c9.4-1,5-10.2,16.9-10.2c4-3,1.3-8.5,8.1-15.6
		c0.1,0.2,0.2,0.3,0.3,0.4l0.1-0.1c0.3,0.4,0.5,0.7,0.8,1c1.7,1,2.3-3.3,3.9-3.7c0.6-0.1,1,0.1,1.3,0.4c1,0.5,1.2,2.2,1.7,3
		c0.5,0.1,1.3-0.8,2.8-4.4c2-4.4,11.2-3.5,15.6-3c8.6,1.1,14.7-2.8,19-2.4c8.6,0.8,4.9,7.9,11.2,4.4c6.1-3.1-3-7.3,14.6-13.9
		c13.5,4.2,10-10.7,33.2,4.1c0.5-0.2,0.8-0.5,0.8-0.9c-0.2-2-4-5.9-4.9-8.3c-0.3-1.5-0.4-3-0.4-4.3c0-0.3,0-0.7,0-1
		c0-0.1,0-0.1,0-0.2c0.5-7.5,5.7-11.4,12.9-13.3c0.2-0.1,0.4-0.2,0.7-0.3c0.4-0.4,2.9-3.6,6.8-9.1c4.6-10.5,13-12.1,18.3-10.2
		c5.4,1.9,7.3,3.5,5.8-4.1s-0.3-10.9,2.4-13.9c0.3-0.3,0.4-0.6,0.5-0.7c-1,0-5.5,2-7.7-0.4c-0.4-0.3-0.7-0.8-0.9-1.3
		c-2.2-5.3,1.4-10.1,4.1-13.9c1.1-1.5,1.1-2.2,0.6-2.9c-0.6-0.6-1.6-1.2-2.7-2.5c-0.5-0.6-1.1-1.4-1.6-2.4
		c-2.6-5.3,0.8-4.8-0.3-11.2c-1.2-6.4,11.8,2.9,15.2-2c3.4-5,4.7-4.1,2-10.2c-2.7-6.1,4.3-5.9,2-11.2c-2.2-5.3-13.7-1.3-18.6-5.1
		s-3.8-7.8,0-10.8c2.5-2,3.3-6.5,6.4-8c1.6-0.8,3.7-0.9,7,0.8c8.7,4.2,14.9,6.3,17.6,4.6c0.2-0.1,0.3-0.3,0.5-0.4
		c0.2-0.2,0.4-0.3,0.6-0.4c2.6-1.5,10.5,3.1,14.3,0.8c0.2-0.2,0.5-0.4,0.7-0.6c3.4-4.2,7.4-5.2,4.7-11.2s0.3-4.7-6.1-10.8
		c-2.4-2.3-2.5-2.9-1.7-3.1c0.6-0.3,2.4-0.2,3.9-0.9c1.1-0.6,2.1-1.6,2.5-3.8c0.2-1.4,0.2-3.1,0-4.8c-0.6-3.7-1.8-7.6-0.7-10
		c0.2-1.2,0.7-2.2,1.6-2.6c0.2-0.1,0.4-0.2,0.6-0.3c-12.2-13.3-22.3-26.4-31.4-41.6c-3.6-6,0.2-13.5,3.8-21.3
		c2.8-6.4,5.4-13.1,3.6-19.3c-0.3,0.9-0.5,1.9-0.8,2.9c0-4.1-2-8.1-7.1-12.2c-0.5-0.3-1-0.4-1.6-0.4c-2.7,0.7-5.6,4.4-7.9,4.4l0,0
		c-0.2,0.1-0.5,0.1-0.7,0.1c-4.8-0.9-14.2-12.7-21.2-12.4c-0.1,0-0.3,0.1-0.4,0.1c-5.1,2-7.4,10.1-13.5,13.2c-0.2,0-0.3,0.1-0.5,0.1
		l0,0c-4.1,1-9.1-1-13.2-1c-27.5-3-50.8-25.4-80.3-25.4c-0.2,0-0.4,0-0.6,0c-4.3,0.8-7.9,5.5-12.3,5.9c-0.4,0.1-0.9,0.1-1.3,0.1
		c-2-1,0-6.1-2-7.1c-2.5-1.2-5.7-2.5-8.6-2.6c-0.6,0.1-1.1,0.2-1.6,0.3c-1.1,0.2-1.9,0.6-2.7,1.4c-1,2,1,31.4-1,33.5
		c-0.7,1.1-2,0.9-3.6,0.3c-1.3-0.4-2.7-1.1-4.2-1.6C1766.1,789.6,1764.2,789.4,1762.7,790.5z"/>
	<path class="st1" d="M2014.8,606.1c-0.1,0-0.2,0-0.3,0c-0.1,0-0.1,0-0.2,0c-2,0-5.1-1-7.1-3c-3-3.1-2-8.1-5.1-11.2
		c-4.1-3.1-18.3-4.1-14.2-7.1c13.2-12.2,21.3,3.1,9.1-21.3c0-0.4-0.4-0.7-0.9-0.7c-0.6,0.1-1.2,0.3-1.6,0.7c-1,2,0,6.1-2,7.1
		c-1.4,0.7-2.9,0.9-4.5,0.9c-3,0.1-6.2-0.8-9-0.9c-3.3,0.1-7.2,1.3-10.7,1.3c-0.9,0-1.9-0.1-2.8-0.3c-8.5-2.9-24.1-16.3-38.6-16.5
		c-0.9,0-1.8,0.1-2.6,0.2c-6.1,1,16.2,23.4,15.2,25.4c-3.1,6.1-13.2,4-18.3,8.1c-3.1,3.1-2,10.2-6.1,12.2c-1.6,0.6-3.1,0.9-4.4,0.9
		c-12.3,0.6-17.6-21.6-20.5-25.3l-23.4-14.2c-2-13.2,36.6-18.3,9.1-31.5c-0.5-0.3-1.3-0.5-2.2-0.5c-7.7,0.3-24.7,9.6-24.7,9.6
		c-0.1-0.1-0.1-0.1-0.2-0.2c-0.2,0.1-0.3,0.2-0.3,0.2c-3-3.1,0-8.1-3-11.2c-0.3-0.6-0.8-0.9-1.5-0.9c-1.4,0.2-3.3,1.2-5.1,1.9
		c-1,0-1.9,2.4-3.5,2.2c-0.3,0.1-0.7,0-1.1-0.2c-2-3.1-1-8.1-5.1-11.2c-13.2-8.1-26.4,1-42.7-12.2c-11.2-8.1,4.1-16.3-14.2-18.3
		c-1.6-0.3-3.1-0.5-4.3-0.5c-18.2-0.5,6.3,23-14.9,21.8c-1.4,0-3-0.2-4.8-0.4c-1.4,4.9-2.9,7.7-5.5,8.1c-1.8,0.4-3.8-0.4-5.8-1.7
		c-3.8-0.6-7.8-1.6-6.8-6.4c-0.2-0.2-0.5-0.5-0.7-0.7c2.2-4.1,3.5-8.2-0.3-6.1c-1.3,0.7-2.4,2-3.4,1.7c-0.7-0.2-1.1-1-0.9-2.8
		c0-0.8,0.2-1.8,0.4-3.1c0.2-0.8,0.3-1.4,0.3-2c-0.1-1.8-1.8-2.6-7.9-4c-0.9-0.2-1.6-0.2-2.4-0.3c-0.6-0.6-1.1-1.7-1.9-1.6
		c-1.1,0.1-1.5,1.6-3.7,1.7c-2.3,0.1-3.7-3.7-6.9-4.8c-0.7-0.2-1.3,0-1.9,0.6c-1.3,1.6-2.3,4.6-3.4,7.8c-2,5.1,16.3,9.1,12.2,12.2
		l0,0c-0.1,0.1-0.2,0.3-0.4,0.4c-12.2,10.2-29.5,11.2-41.7,18.3c-0.1,0-0.1,0.1-0.1,0.1c-1,1.6,0.2,5.5-1.3,6.5
		c-0.1,0.2-0.3,0.4-0.5,0.5c-8.1,4-19.3-2.1-25.4,3c-0.2,0.2-0.4,0.4-0.6,0.6c-3.6,4.1-2.5,10.9-6.5,14.8c-0.3,0.3-0.6,0.6-1,0.9
		c-2,2-4-5.1-7.1-4.1c-2.2,0.5-4,1.6-5.4,3c-3.9,4-5.8,10.4-9.4,13.8c-0.5,0.6-1.1,1.1-1.7,1.5c-3.1,3-9.1-2.1-12.2,1
		c-0.1,0.1-0.1,0.1-0.2,0.2c-1.9,2.4,0.4,7.8-2.4,10.6c-0.3,0.3-0.6,0.6-0.9,0.8c-4.4,4-15-4.5-17.9-4.5c-6.5,1-11.6,3.1-15.7,5.8
		c-11.6,8-15.4,21.5-21.4,33.4c-0.3,0.5-0.5,0.7-0.7,0.7c-1.8,2.9-1.9-10.5-5.9-13.5c-3-3.9-6-10.1-10-7.6c-2.2,2.2,3.3,4.9,0.6,6.5
		h-0.1c-0.1,0.1-0.2,0.2-0.4,0.4c-0.6,0.4-1.3,0.7-1.9,1.1c0.4,1.1,0.8,2.2,3.4,4c2.6,1.9,6.5,3.5,6.1,7.5c-0.1,1.5,0,3.8,0,6.1
		c5.2,7.4,11.8,14.6,19,19.3c2,1,9.1,2.4,10.2,8.5c1.2,5.9-0.3,8.5-2.7,10.3c-1.7,1.5-4.1,2.4-6,3.9c-1.6,1.3-2.9,3.2-3.5,6.1
		c2.3,1.8,4.2,3.5,5.8,5.2c4.7,4.3,7.1,9,9.9,16.5c2.2,5.4,4.8,12.2,8.7,21.6c4.5,0.3,7.9,1.1,10.8,6.8c0.7,1.4-3,3.5-1.4,4.7
		c6.3,4.7,15.3-2.6,23,5.1c7.1,7.1,8.1,18.3,15.2,24.4c13.4,9.6,46,21.9,55.7,40.3c0.6,1.1,1.2,2.3,1.6,3.4h0.9
		c16.3,8.1,28.4,29.5,49.8,21.3c4.1-1,3-9.1,7.1-9.1c7.1,0,14.2,9.1,21.3,7.1l8.1-26.4c1.6-1.2,3.6-0.9,5.6-0.2
		c1.5,0.5,2.9,1.2,4.2,1.6c1.5,0.5,2.7,0.6,3.3-0.4c2-2,0-31.5,1-33.5c1.2-1.2,2.8-1.6,4.6-1.6c0.4,0,0.7-0.1,1.1,0
		c2.7,0.3,5.5,1.6,8.2,2.5c2,1,0,6.1,2,7.1c0.2,0,0.4,0,0.6,0c4.3-0.8,7.9-5.5,12.3-5.9c0.4-0.1,0.9-0.1,1.3-0.1
		c29.5,0,52.6,22.3,80.1,25.4c3.9,0,8.7,1.8,12.7,1.1c6.1-3.1,8.1-11.2,13.2-13.2c0.4-0.1,0.8-0.2,1.2-0.2
		c7.1-1.4,16.9,11.3,21.9,12.3c2.4-0.6,5.4-4.2,7.9-4.4c0.8-0.2,1.5-0.2,2.2,0.3c4.1,2.9,6.3,6.1,7.3,9.4
		c5.5-19.7,13.3-26.2,22.3-28.2c12.6-3.4,28.1,3.2,43.7-5.3c4.2-2.5,8.4-6.1,12.6-11.3c2-3.1-1-8.1,1-11.2c3-4.1,10.2-2,13.2-6.1
		l6-123.2c-5.1-1-16.3-4.1-20.3-7.1c-1.7-0.8-2-3.9-3.3-4.2c-0.1,0-0.2,0.1-0.3,0.1C2010.7,601,2044.3,603,2014.8,606.1z"/>
	<path class="st1" d="M1975.5,762.3c-9,2.4-16.5,9.8-21.6,31.2c0.4,5.4-1.9,10.9-4.3,16.3c-3.5,7.9-7.3,15.4-3.7,21.3
		c9.1,15.3,19.2,28.4,31.4,41.6c3-1.3,4.6-1.7,7.5-1.2c0.5,0.1,1,0.2,1.6,0.3c18.3,2,32.5,28.5,51.8,32.5c6,1,10,3.2,12,4.4v-2.3
		l-3.9-178c-3,4.1-10.2,2-13.2,6.1c-2,3.1,1,8.1-1,11.2c-4.3,5.3-8.6,8.9-13,11.2C2003.7,765.9,1988.3,759.4,1975.5,762.3z"/>
	<path class="st1" d="M2051.7,909.5c0.3,0-0.2-0.8-1.5-3.1C2051.4,908.5,2051.9,909.3,2051.7,909.5z"/>
	<path class="st1" d="M1986.2,871.8c-0.5-0.1-1-0.2-1.4-0.3c-3.2-0.4-5.8,0.4-7.5,1.3c0.1,0.2,0.2,0.4,0.3,0.6
		c-1.4,0.5-2.2,1.2-2.6,2.2c-0.4,2.5,0.4,6.4,0.7,10c0.3,1.6,0.4,3.2,0.2,4.7c-0.3,2.2-1.4,3.3-2.7,3.9c-1.4,0.7-3.1,0.7-3.9,0.9
		c-0.6,0.3-0.3,1,1.9,3c6.5,6,3.4,4.7,6.1,10.8s-1.3,7-4.7,11.2c-0.3,0.3-0.6,0.5-0.9,0.7c-3.6,2.6-11.4-2-14.3-0.8
		c-0.2,0.1-0.3,0.2-0.4,0.3c-0.2,0.2-0.4,0.4-0.7,0.5c-2.6,2-8.9-0.2-17.8-4.5c-3.2-1.5-5.3-1.6-6.8-0.9c-2.9,1.5-3.7,5.9-6.2,7.9
		c-3.8,3-4.9,7,0,10.8s16.3-0.2,18.6,5.1c2.3,5.4-4.7,5.1-2,11.2s1.4,5.6-2,10.5s-16.3-4.4-15.2,2c1.1,6.5-2.4,5.9,0.3,11.2
		c0.4,0.9,0.9,1.6,1.4,2.2c1.1,1.3,2.2,1.9,2.7,2.5c0.7,0.7,0.8,1.4-0.4,3.1c-2.7,3.8-6.4,8.6-4.1,13.9c0.2,0.4,0.4,0.8,0.7,1.1
		c2.7,2.5,8.1-0.7,7.7,0.4c0.3,0,0.3,0.2-0.3,0.9c-2.7,3.1-3.9,6.3-2.4,13.9c1.6,7.6-0.3,6-5.7,4.1s-13.7-0.3-18.3,10.1
		c-3.3,4.8-5.9,8-6.8,9.1c4.1-0.9,8.6-1.3,13.3-1.3c4.1,0,9.8,31.8,31,49.3l0,0l0.1,0.1c0,0.1,0,0.2,0,0.3c0.6,0,1.3,0.3,2,0.7
		c1.8,0.8,4.1,0.7,4.1,0.7l5.4,8.5l2-1.4l1,2l5.1-0.3l1,1h2.4c2.7,4.4,5.7,5.7,5.4,11.9c3.2,1.2,4.6,3.2,6.8,4.7l2-0.3l0.3,2.4
		c7.7,2.1,14.7,4.3,17.6,7.1c-0.2,0.3-0.4,0.5-0.6,0.7l0,0c-0.1,0.1-0.3,0.3-0.4,0.4c-2.9,3.5,1.8,0,3.7,1.9
		c10.9,11.2,10.3,12.7,8.8,15.2c3.7,0.9,3.1,3.6,8.1,2c-0.2,0.3-0.4,0.6-0.6,0.8l0,0c-0.7,1.1-1.5,1.5-2.1,1.9c-0.1,0.3-0.1,0.6,0,1
		c1.9-1.2,3.7-2.8,5.8-3.7c1.3,2.6-1.6,3.1,2,4.1c0.1,0.5-0.2,0.7-0.7,0.8h0.1c0.2,1-1.4,0.8-2.4,0.7c-0.1,0.1-0.2,0.1-0.2,0.2
		c-0.2,1.5,4.6,2.7,6.7,0.7c0.2-0.3,0.3-0.7,0.3-1.2c0.1,0,0.3,0.1,0.4,0.1c0.1-0.3,0.2-0.6,0.2-0.9c3.1,0.6,7.6,2.6,11.2,0.7
		c3.8,2.8,7.2,4.6,9.5,8.5l1.2-246c-2-1.2-6.1-3.4-12.2-4.5C2018.7,900.2,2004.5,873.8,1986.2,871.8z"/>
	<path class="st1" d="M2050.2,908.8c0.9,0.5,1.4,0.8,1.5,0.7C2051.5,909.5,2051,909.2,2050.2,908.8L2050.2,908.8z"/>
	<path class="st1" d="M1977.3,872.8L1977.3,872.8C1977.3,872.8,1977.3,872.7,1977.3,872.8C1977.3,872.7,1977.3,872.7,1977.3,872.8
		C1977.3,872.7,1977.3,872.7,1977.3,872.8L1977.3,872.8z"/>
	<path class="st1" d="M299.3,1174l-0.9,4.5c0.3-1,0.5-2,0.7-2.9C299.1,1175.3,299.1,1174.9,299.3,1174z"/>
	<path class="st1" d="M312.2,1171.3c-3.4-6.8,2.7-16.3-4.1-12.9c-6.2,3.1-6.9,7.8-9,17.2c0,0.2,0,0.2,0.1,0.1c0.9-3.2,0.2-0.5,0,0
		c-0.2,0.7-0.4,1.6-0.8,2.9h23.9C318.8,1171.8,315,1177,312.2,1171.3z"/>
	<path class="st1" d="M1046.3,1163.1c-0.2-0.7-0.1-1.5,0.1-2.4c0.2-1.9,1.7-4.2,2.3-6.3c0.2-0.9,0.1-1.8-0.4-2.6c-1-3-7.1,0-9.1-2
		c-1.5-2.6-1.8-4.5-1.3-5.9c0.4-4.5,7.2-5.6,8.4-8.9c0-0.2,0-0.5,0-0.7c-1-5.1-7.1-7.1-7.1-12.2c-0.2-0.5-0.1-1.1,0.1-1.7
		c0.1-2.1,3.1-5.2,4-7.3c0-0.5-0.4-0.9-1.2-1.1c-13.2-6.1-41.5-6.1-50.7,8.1c-0.4,0.4-0.7,0.8-0.9,1.2c0,0.1,0,0.2,0,0.4
		c-0.1,0.9,0,1.9,0.1,2.9l-0.4-0.1c0,0.4,0.1,0.8,0.1,1.2h-0.1c0.5,1.5,1.2,2.8,2.2,3.5c0.4,0.3,0.8,0.5,1.3,0.5
		c0.9,0.1,1.5,0.2,1.9,0.4c0.7,0.3,0.7,0.9,0.3,1.7c0.1,0.7-0.6,1.8-1.8,3.3c-2.1,2.9-7.1,1-9.3,5.3c-2.1,4.3-10.3,4.7-13.6,3.3
		s-11.5,3.8-10.5,0.5c0-0.2,0.1-0.3,0.2-0.5c0-0.1,0-0.3,0-0.5c0.2-0.8,0.7-1.6,1.2-2.3c0.5-0.7,1-1.4,1.5-2
		c0.2-0.3,0.4-0.5,0.5-0.8c0-0.4-0.2-0.8-0.8-1.1c-1.1-0.6-1.3-1.4-0.8-2.2c-0.1-0.4,0.1-0.9,0.5-1.3c0.4-0.5,1-0.9,1.8-1.3
		s1.7-0.8,2.8-1.2c1.1-0.4,2.4-0.6,3.8-0.7c2.7-0.3,5.7-0.2,7.4-0.1c-1.4-1.5-2.2-3.5-1.8-5.6c0-0.1,0-0.2,0-0.4
		c0.1-0.8,0.3-1.7,0.8-2.5c0.2-0.3,1-1.2,1.4-1.8c0-0.2-0.1-0.5-0.1-0.7l4.2-4.2l-8.7-7.4c-0.1-0.1-0.1-0.3-0.2-0.4l0.4-0.4
		l-0.2-0.2l-0.1-0.1c0-0.1-0.1-0.1-0.1-0.2l2.1-1.9l-2-2.4l0.4-0.4l-0.4-0.5l8.7-9.2l-4.1-4.5c0,0,0.2-0.2,0.4-0.4l-0.4-0.5
		c0,0,4.5-4.5,6.4-4.8c0.5-0.1,1.3-0.7,2.4-1.5c1.1-0.9,2.3-2.1,3.7-3.3c2.7-2.4,5.5-5,7.3-5.7c3.6-1.4,9.6-4.8,12.4-7.4
		c1.4-1.3,2-2.1,2.3-2.7l-1.8-2.4c0,0,0.2-0.1,0.4-0.3l-0.4-0.6c0,0,3.6-2.6,4-6.2c0-0.5-0.1-1-0.2-1.5c-1.4-4.8-3.1-7.4-3.1-7.4
		l-0.3-0.3c0.1-0.2,0.2-0.4,0.3-0.5v-0.1l-0.3-0.3c1.1-1.9,2.8-3.1,4.8-4c1.1-0.5,2.3-0.8,3.5-1.1c2.8-0.8,5.7-1.6,8.6-2.5
		c0.5-0.2,1-0.2,1.5-0.4c0,0,0,0,0.1,0c2.2-0.8,4.1-2,5.6-3.7c3.1-2.7,6.6-8.3,10.2-14.3c1.4-0.2,2.9-0.4,4.1-0.7
		c6.9-1.7,4.8-7.6,10.3-10.3c1.4-0.7,2.1-1.7,2.4-2.9c0.1-1.8-0.6-3.9-1.3-5.4c0.1-0.1,0.3-0.1,0.4-0.1c-0.1-0.2-0.2-0.5-0.3-0.7
		c4.5-1.8,8.6,5.7,9.9-4.7c0-0.4,0.1-0.7,0.1-1.1c0-5.1-15.6,5.1-16.6,0c-0.3-0.8-0.4-1.7-0.2-2.5c0.1-4.3,7-7.9,9.8-11.5
		c0,0,1.4,0.7,1.8,0.3c-0.1-0.5-0.4-1.1-0.7-1.7c0.1-0.1,0.2-0.2,0.4-0.2c-0.1-0.2-0.2-0.4-0.3-0.6c1.4-0.9,2.7-2,3.2-3.7
		c1.4-4.6,5.1-0.8,6.6,0.7c1.2,1.2,2.3,0.7,4.5-0.8c2.4,1.5,4.3,3.4,6,5.1v0.1c-0.1,0.2-0.2,0.3-0.3,0.5c0.1,0.1,0.1,0.1,0.2,0.2
		c0,0.1,0,0.1,0,0.1c-0.3,0.4-0.5,0.8-0.6,1.1c0.1,0.6,0.7,1,1.5,2c1.4,1.7,1.9-1.5,3.7,0.5c1.9,2,7.3-1,7.3-1l6.6,2.2l4.2-4.3l-3-3
		c0.1-0.1,0.3-0.3,0.5-0.4l-0.4-0.4c0.6-0.5,1.4-1.4,2.1-2l3.5,3.3c0,0,2.9-1.2,3.5-2.8c0-0.2-0.1-0.4-0.2-0.6
		c-0.2-0.3-0.7-1-1.1-1.5l0.3-0.5c-0.1-0.1-0.2-0.2-0.2-0.3l2.8-4.1l5.1,0.8l1.1-1.1c0-0.4-0.1-0.7-0.1-1l-0.7-3
		c-0.5-1.6-1-2.5-1-2.9c0-0.8-4.5-3.2-4.9-7.1c-0.2-2.4-0.3-3.2,0.1-3.8c0.1-1.3,0.6-1.5,2.1-2.7c0.5-0.4,0.9-0.9,1.1-1.4
		c0.2-1.8-0.5-3.9-1.4-5.8c-0.3-0.6-0.2-1.3,0.1-2c0-2.1,3.2-4.4,4.2-6.5c0-0.3-0.1-0.5-0.3-0.8c-0.7-1.1-0.6-2-0.1-2.9
		c0.1-1.3,1.3-2.5,1.9-3.9c0-0.1,0-0.2,0-0.3c0-0.5,0.1-1.1,0.3-1.6c0.3-2.6,3.4-6.3,4.7-8.3c-0.3-1.9-3.6-4.2-8.4-8.8
		c0,0-0.1,0-0.1-0.1c-0.6-2.8-0.2-5.7,0.6-8.6c0.6-2.6,1.6-5.2,2.7-7.8l14-23.1c0.4-3.1,0.8-8.6,1.4-14.5c0.8-8.4,1.8-17.3,3.6-21.6
		c8.1-16.3,28.4-28.5,39.5-47.7c-3.2-6.7-57.2-13.1-61-16c-3.1-3.1-1.1-9.1-4.1-12.2c-5-4.1-37.6,9.2-39.6,6.1
		c-0.2-0.7-0.2-1.4,0-2.1c-0.1-1.9,1.2-4,1.6-5.8c0-0.4-0.2-0.8-0.5-1.2c-12.2-11-16.3-10.9-17.6-7.7c-0.6,3.3,0.4,8.4-0.4,9.8
		c-0.2,2-1.1,2.4-4.4-1.1c-10.2-10.2-15.3-33.5-23.4-38.6c-3.1-3.1-9.2,0-11.2-3.1c-0.1-0.2-0.2-0.4-0.3-0.6
		c-0.7-0.7-0.8-1.1-1.4-1.8c0.1-0.1,0.2-0.3,0.3-0.4c-1.1-1.2-2.4-2.5-2.5-3.2c-0.3-2.9-10.8-5.2-12.8-2c-0.8,1.3-1.2,2-1.7,2.6
		c-1.8,0.3-3.6,0.9-5.5,1.8c-3.3,0.3-7.2,0.6-7.4-2c-0.1-3.1-10.4-4.3-10.2-6.5c0.1-1.7-1.2-2.2-2.4-2.5l-0.1,0.1
		c-1.3-0.4-1.7-0.6-2.4-0.8c-1.8-0.6-3.2,1.5-4.2,3.7c-2-0.6-4-1.1-6-1.1c-7.1-1.1-14.2,6.1-20.3,3c-5.1-2.1-1.1-11.2-4.1-15.3
		c-2.1-3-7.2-1-10.2-3c-0.2-0.2-0.1-0.5,0.1-0.8l0,0c-0.9-0.9,2.8-2.5,3.8-3.6c-1-2-2-3.8-3.9-4.8c-2-1-5.1,3-6.1,2
		c-1.2-0.9-2.1-2.1-2.9-3.3c-1-0.4-2-0.7-2.9-1.2c-2.6-1.5-2.8-5.2-5.8-6.7c-1-0.5-2.2-1.5-3.3-2.4c-6.1-0.7-12.6-0.1-15.7-4.7
		c-1.2-1.2-1.3-2.6-0.9-4c0.4-3.1,3.7-6.6,4.8-10c0.1-0.4,0.2-0.9,0.2-1.3c-0.8-3.1-4.5-4.5-6.2-6.8c0.1-0.2,0.2-0.4,0.3-0.6
		c-0.1-0.1-0.1-0.1-0.2-0.2c0.9-2,2-4.4,2.4-6.3c0.1-0.7,0-1.4-0.2-1.8c-0.2-0.4-0.2-0.9-0.1-1.6c-0.1-2.4,4.2-7.7,5.9-9.6l-3.6-1
		l-12.6,10.4l-0.4,8.3h-0.1v0.9h-0.1c0,0-9.5,0.7-12.5,3.3c-2.4,2.1-9.3,2-14.6-0.2c-12-0.2-22.7-4.3-21.4-7.8c0-0.3,0-0.7,0.2-1
		c2.8-4.6,7.2-7.5,8-11.8c0-0.2,0-0.4,0-0.6c0-3-8.1-3-7.1-7.1c0-0.4,0.1-0.9,0.1-1.3c0.3-4.3,4.3-8,6.6-12l-2.2,0.8l-9.1-14.5
		c-0.2,0-0.3-0.1-0.5-0.1c-3.4,1-5.6,1.7-9,2.7c-5.9,1.7-5.6-2.1-11.9-3c-6.3-0.9-5.8,6.6-8.4,4.7c-1.8-1.2-3-3.8-2.8-8
		c0-0.3,0-0.7,0-1c-0.2-0.3-0.4-0.5-0.5-0.7c-0.2-0.8-0.2-1.6-0.2-2.4c-0.1-2.1,0.5-4.4,1-6.6c-0.5-1.2-1-2.3-1.3-3.4
		c-1.3-4.7-5-3.4-9.3-3.4c-2.3,0-3.2-0.3-2.6-1.6c-0.7-0.5-0.2-1.6,1.7-3.7c-1.4,0-2.8,0-4.3,0c-4.8,4.3-8.2,5.2-11,1.9
		c-2.4-2.9-5.4-5.1-5.4-8.5c-0.2-0.9-0.1-1.8,0.1-2.8c-1-4.4-0.9-10.7-1.4-16.8c-1.6-1-2-2.1-3-4.7c-1.5-3.9-0.8-6.3-3.4-6.5
		c-2.6-0.2-5,1.3-7.2,0.9c-2.2-0.3-5.8,1.9-8.4,3.2s-2.1,6.1-6,6.7s-9.7-4.1-11.4-9.3c0-0.1-0.1-0.2-0.1-0.3
		c-2.5-2.3-4.5-5.3-6.1-8.7c-0.5-0.1-1-0.3-1.6-0.2c-3.5,1-4.1-3.7-4.8-9.1c-0.4-2.7-0.8-4.5-0.6-5.8c-0.1-1.6,0.3-2.6,1.6-3.5
		c-1.3-8-2-15.9-2.7-20.9c-11.1,2-23.2,3-35.3,4.1c-9.1,1-42.7,3.1-46.8,15.3c-2,5.1-10.2,53.9-10.2,61c0,3.1,5.1,3,5.1,5.1
		s-4.1-2-6.1,0s-3,7.1-2,10.2c0.7,4.1,5.7,7,8.1,10.2c-6.8-2.5-9.7-1.4-15.9,10.5c-0.4,0.8-0.4,1.4-0.7,2c-0.9,0.3-2,0.3-2.7,0.7
		c-7.1,4.1-12.2,10.2-19.3,13.2c-18.3,10.2-86.4,12.2-96.5,28.5c-11.3,19.4-7.5,27.8,0.3,31.5l5.7,1c-6.6,1.3-11.3,2.1-14.9,5.1
		c-7.5,6.1-23.7,12.9-34.6,6.1c-10.8-6.8-19.6-10.2-30.5-10.8c-10.8-0.7-35.2-12.2-40.6-5.4s-4.8,0-4.1-4.7
		c0.7-4.7-9.5-8.8-11.5-16.3s10.2-7.4,6.8-16.9c-3.4-9.5-18.3-4.7-22.4-0.7c-4.1,4.1-12.9-0.7-21-4.1c-8.1-3.4-17.6-7.5-21.7-7.5
		s0.7,6.1,6.1,8.8s5.4,10.2,1.4,13.6c-4.1,3.4,2,2,2,10.8s4.7,8.1,10.2,17.6c5.4,9.5,2.7,11.5,8.8,16.3c6.1,4.7-1.4,0.7-2,14.9
		c-0.7,14.2,6.1,5.4,2,20.3c-4.1,14.9-6.1,28.5,4.1,31.8c10.2,3.4,10.8,7.5-4.8,6.8s-32.5,5.4-28.5-5.4c4.1-10.8-0.7-12.2-8.1-8.1
		c-7.5,4.1-8.8,4.7-8.8,4.7s-6.8-3.4-10.2,0.7c-3.4,4.1-10.2,5.4-7.5-1.4c2.7-6.8-1.3-10.8-14.2-5.4c-12.9,5.4-27.8,15.6-27.8,15.6
		L212,733l0.7-9.5l-10.8-10.2l3.4-4.7c0,0-12.9,4.7-8.8-2c4.1-6.8,6.8-11.5,6.8-11.5s-4.1-2-6.1,1.4s-4.7,4.1-4.7,4.1
		s4.1-8.1-2.7-6.1s-10.2,4.8-10.2,4.8s2-8.8-2.7-6.8s-10.1,9.5-17.6,4.1s-8.1-2.7-8.1-2.7l-8.1,2.7c0,0-0.7,8.1,4.1,8.8
		c4.7,0.7-6.1-0.7-4.1,5.4c2,6.1-5.4-2.7-18.3-5.4s-4.7,10.2-4.7,10.2s-4.7,0.7-10.2-11.5c-5.4-12.2-5.4-1.4-17.6,0s-14.9,8.8-19,2
		s-24.4,4.8-34.5,6.1c-10.2,1.4-9.5,16.3-7.5,22.4c2,6.1,11.5,7.5,21,4.1s25.1-4.8,25.1-4.8S57.7,738,61.1,742
		c2.5,3,9.7,2.3,13.9,1.7c-0.8,0.4-0.6,1.3,2.4,3c6.8,4.1-3.4,6.8-13.6,2c-10.2-4.7-8.1-9.5-14.9-4.1s5.4,2,2.7,9.5s1.4,5.4,6.8,2
		s7.4,4.1,13.5,5.4c6.1,1.4,10.9,14.9-4.7,10.8c-15.6-4.1-31.9-4.1-33.9,1.4c-2,5.4,27.1,6.1,28.5,17.6s8.1,8.8,2,14.9
		s6.1,8.8,14.9,8.1s2-13.6,8.1-8.1c6.1,5.4,12.2,6.1,13.5,1.4c1.4-4.7,2,4.1,12.2,11.5c10.2,7.5,14.2,5.4,21.7,8.8
		c7.5,3.4,6.8,10.2,12.2,10.8c5.2,0.6,5.6-2.9,10.8-6.8c-1.9,2.1-4.1,5.8-2,9.5c4.1,7.5,14.2,2.7,14.2-3.4s11.5-2,2.7,4.8
		s-3.4,1.4-4.8,12.9s4.8,15.6,4.8,7.5s4.1,0,10.8-4.1c6.8-4.1,6.1-5.4,10.2-1.4c4.1,4.1,9.5-2,13.5,2c4.1,4.1,0,10.8-10.2,6.8
		c-10.2-4.1-4.1-1.3-0.7,6.1c3.4,7.5,14.2-4.1,23,0s12.2,4.7,7.5,10.2c-4.7,5.4,11.5,4.7,0,7.4s-6.1,0-6.8,8.8s2.7,7.5,10.8,10.8
		c8.1,3.4,8.8,5.4,15.6,0.7s15.6-9.5,27.1,1.4c11.5,10.8,11.5,14.9,16.2,14.9s-4.7,5.4-17.6-6.1s-19.6-11.5-22.4-2.7
		c-2.7,8.8,1.4,10.2-7.4,9.5s4.1,1.4,10.8,6.8c6.8,5.4,12.9,8.1,4.1,16.2c-8.8,8.1-13.5,12.9-12.2,21.7c1.4,8.8,16.3,17.6,17.6,33.9
		c1.4,16.3,2,14.9,2,14.9s29.8,12.9,28.5,20.3c-1.4,7.5,8.1,2.7,12.2,9.5s3.4,10.8,10.2,3.4c6.8-7.5,8.1,3.4,4.1,8.8
		c-4.1,5.4-5.4,2.7-8.8,8.8c-3.4,6.1,2.7,0.7,4.8,6.1c2,5.4,6.1,15.6,4.7,19.7s-8.1-2.7-6.1,6.1c2,8.8-5.4,10.8-5.4,16.3v6.1
		c0,0-6.8-7.5-10.2,2s-3.4,4.7,4.1,9.5c7.5,4.7,16.3,19.7,23.7,29.8c0.1,0.2,0.2,0.2,0.3,0.3c0.6,1,1.2,2,1.7,3
		c0.5,2.7,0.9,5.3,1.3,7.8l732.1-0.2c-3.5-5.8-4-12.4-8.8-17.2C1051.4,1159,1047.3,1165.1,1046.3,1163.1z"/>
	<path class="st1" d="M1035.9,1199.2l25.5-20.6c0,0,0,0,0-0.1C1038.3,1192,1033.3,1195.8,1035.9,1199.2z"/>
	<path class="st1" d="M1037.5,1200.8l-1.7-1.6C1036.3,1199.7,1036.8,1200.3,1037.5,1200.8z"/>
	<path class="st1" d="M1037.5,1200.8l18.2,17.1C1049.7,1207.5,1041.5,1203.8,1037.5,1200.8z"/>
	<path class="st1" d="M-10.9,718.2c4.8,0.6,11.5-0.1,4.8-6.8C-11.5,713.4-15.6,717.5-10.9,718.2z"/>
	<path class="st1" d="M142.3,842.9c-1.6-1.1-3-1.5-4.1-1.4c-3.2,0.2-3.7,4.2,1.4,6.8C146.4,851.7,150.4,849,142.3,842.9z"/>
	<path class="st1" d="M160.5,882.1c-1-0.6-1.9-0.9-2.7-1c-0.7-0.1-1.4-0.2-2,0c-4.1,1.4-3.8,9.7,8.1,15.9
		C179.5,905.1,168.6,888.2,160.5,882.1z"/>
	<path class="st1" d="M243.3,954c-4.2-5.5,4.6-8.2-8.2-10.9c0,0-7.5,7.5,0.7,9.5C243.9,954.6,247.3,959.4,243.3,954z"/>
	<polygon class="st1" points="217.4,986.5 230.3,988.5 221.5,978.3 	"/>
	<path class="st1" d="M284.5,1058.3c-6.8,0-11.5,5.4-1.4,6.8c10.2,1.4,15.6,10.8,22.4,10.8C312.3,1075.9,298.8,1058.3,284.5,1058.3z
		"/>
	<path class="st1" d="M305.5,1107.1c-0.6-7.5-4.7-10.2-11.5-18.3c-4.7,4.7-2,16.9,3.4,26.4S306.2,1114.5,305.5,1107.1z"/>
	<path class="st1" d="M981.5,682.9c0.4-0.5,1.1-1,1.5-1.5c0.5,3.3-0.6,5.5-2.7,6.8c-0.4,0.6-1,1.2-1.5,1.9c1.4,0.5,2.1,1,2,2.4
		c-0.2,2.2,10,3.3,10.2,6.5c0.1,2.8,4.4,2.4,7.7,2c1.7-0.7,3.4-1.3,5-1.6c0.5-0.6,0.9-1.3,1.8-2.7c2-3.2,12.4-1,12.8,2
		c0.1,0.9,1.2,2.3,2.6,3.8c1.5-1.6,3-2.6,2.4-4.5c-1.4-4-1.3-9,1.5-10.9c0.2-0.1,0.3-0.3,0.5-0.4c0.1,0,0.1-0.1,0.2-0.1
		c2.1-1.8,1.2-4.2,2.9-6.5c1.8-2.1-0.2-4.4,3-6.9c0.1,0,0.1-0.1,0.2-0.1c0,0,0.1,0,0.1-0.1c0.3-0.3,0.7-0.5,1.2-0.8
		c0.3-0.2,0.5-0.3,0.8-0.5c1.5-1.3,2.1-3,2.3-4.9c0.3-2.3,0-4.7,0.1-6.6c0.3-3.9-0.7-3.5-5-2.9s-2.7-0.9-5-4.1
		c-2.3-3.2-3.7,1.8-5.4-1.9s-4.9-3.4-6.2-7.9c-1.4-4.6-1.4-7.1-4.1-6c-2.8,1.1-3.2-6.6-3.6-10.1c-0.1-0.3-2.3-5.7-0.4-7.1
		c1.9-1.5,3-2.1,0.9-4.6c-0.3-0.4,0-0.4-0.2-0.7c0.1,0,0.1-0.1,0.2-0.1c-0.9-1.3-0.5-1.9-0.6-2.7c0-0.1,0-0.1-0.1-0.2
		c-1.1-2.6-2.6-1.5-4.1,0c-1.7,0.9-2.2,0.2-2.6-0.8c-0.2-0.5-0.4-1-0.7-1.5c-0.3-0.4-0.6-0.8-1.1-0.9c-4.3-0.7-4,4.5-6.8,6.2
		c-4.3,0.8-6.2,4.6-5.9,8.8c0.6,3.9-3.2,4.7-5,7c0.1,0.1,0.2,0.3,0.2,0.4c1.3,2.3-0.1,4.5-2.8,5.1c-0.7,1.4-2.1,3.3-2.9,5.1
		c-0.5,1.1-0.7,2.2-0.3,3.1c0.3,0.5,0.7,1,1.4,1.4c0,0,0,0.1-0.1,0.1c0.1,0,0.1,0.1,0.2,0.1c-1.3,2.3-3.4,5-3.1,8.1
		c-0.2,0.9-0.1,1.5,0.1,2.1c0.4,0.8,1.1,1.2,1.9,1.5c0.1,0,0.2,0.1,0.3,0.1v-0.1v-0.1v0.1c0,0.1,0,0.1,0.1,0.2
		c1.1,0.5,2.4,1,2.9,2.3c0.1,0.2,0.2,0.5,0.3,0.8c0.1,1.3,0.4,2.5,0.9,3.6c0.8,1.7,2.1,3.1,4,4.1c0,0,0,0.1-0.1,0.1
		c0.1,0,0.1,0.1,0.2,0.1c-0.7,1.1-1.3,2.4-1.2,3.6c0.1,0.7,0.6,1.4,1.5,2c0.2,0.2,0.3,0.5,0.4,0.7
		C985.5,677.8,982.5,680.2,981.5,682.9z"/>
	<path class="st1" d="M981.3,684.7c0-0.1-0.1-0.1-0.1-0.2C981.2,684.6,981.2,684.7,981.3,684.7c0,0.6,0,1,0,1.4
		C981.5,685.6,981.6,685.2,981.3,684.7z"/>
	<path class="st1" d="M981.3,686.1c0,0.1-0.1,0.2-0.2,0.2c-0.2,0.7-0.6,1.4-1.1,2c0.1-0.1,0.2-0.1,0.3-0.2
		C980.8,687.5,981.1,686.8,981.3,686.1z"/>
	<path class="st1" d="M981.5,682.9c-0.1,0.1-0.2,0.3-0.3,0.4c-0.1,0.3-0.1,0.6-0.1,0.9c0,0.1,0.1,0.2,0.1,0.3
		C981.2,684,981.3,683.4,981.5,682.9z"/>
	<path class="st1" d="M978.6,690c-0.2,0.2-0.4,0.5-0.6,0.7c0.1,0,0.1,0,0.2,0.1c0.2-0.3,0.4-0.5,0.6-0.7
		C978.7,690,978.7,690,978.6,690z"/>
	<path class="st1" d="M1021,702.5C1021,702.4,1021,702.4,1021,702.5c-0.1,0-0.2,0.1-0.3,0.2l0.1,0.1
		C1020.9,702.6,1020.9,702.5,1021,702.5z"/>
	<path class="st1" d="M1855.5,1175c0.2,0.1,6.2,1.6,7.8,2.7c0.4-0.8,1.7-1.8,3.3-2.4c0.6-0.2,1.2-0.4,1.8-0.6
		c0.3-0.1,0.5-0.1,0.6-0.2c0.6-0.7-2-1.9-3.1-3.1c-1.3-1.4,0.1-3.9,0.3-4.4c0.7-4.6,1.9-8.3,0.7-13.2c0-1.9,1.4-5.2,0.7-6.4
		c-5.2-2.8-9.6-3-10.8-9.5c0.2-2-1.8-2-1.4-2.4c1.9-3.7,3.4-7.1,5.1-10.8c0,0,0,0,0.1,0c0,0,0,0,0-0.1c1.7-1,5.3,0,7.5,0
		c2.1,0,1,1,2,1.7c3.5-3.7,1.9-5.1,2.5-6.8c0.1-0.4,0.4-0.8,0.8-1.3c2.2-2.3,1,4.2,23.8-12.9c0,0,0,0,0.1-0.1l0,0
		c0.6-1.1-3.2-4.7-2.6-6.2c0-0.1,0.1-0.2,0.2-0.3c1.1-1.3,5.7-1,7.7-1.9c2.2-0.9,2.5,0.7,4.1,2.4c0.7,0.6,3.4,1.4,4.4-0.1
		c0.1-0.2,0.2-0.4,0.2-0.7l0,0c0-0.1,0-0.1,0.1-0.2c0,0,1,0.8,3,1c1.7,0.2,3,0,3.3,0c0.3-2-0.2-4-2.4-4.5c-1.3-3.3-3.5-6.1-4.4-10.2
		c-0.2-0.7,0.9-2,2.4-3.4c3.2-3,8.7-6.7,10.1-6.2c1.7,0.6,4.3,1.8,7.2,3.4c3.4,1.7,7.4,3.8,11.4,5.8c0.6-0.2,1.4-0.4,2-0.3
		c0-0.1,0-0.2,0-0.3c-18.9-15.4-25.6-42-29.7-47.7c-0.5-0.9-0.9-1.4-1.4-1.4c-1.5,0-2.9,0.2-4.4,0.3l-9.5,1.4c-0.2,0.1-0.4,0-0.6,0
		c-0.1,0-0.3,0.1-0.4,0.1c-6.7,2-11.6,5.8-12.2,12.9c0,0.1,0,0.1,0,0.2c0,0.3,0,0.7,0,1c0,1.2,0.1,2.6,0.4,4
		c0.8,2.5,5.1,6.6,4.9,8.6c0.1,0.6-0.2,1-0.8,1.2c-23.1-14.8-19.6,0-33.1-4.1c-17.6,6.6-8.4,10.8-14.5,13.9
		c-6.3,3.5-2.7-3.6-11.2-4.4c-4.2-0.4-10.3,3.5-18.9,2.4c-4.4-0.6-13.6-1.5-15.6,3c-2,4.4-2.7,4.8-3.1,4.1c-0.6-0.2-0.8-2.1-1.7-3
		c-0.2-0.1-0.5-0.2-0.9-0.1c-1.7,0.4-2.3,5.3-4.3,3.4c-0.3-0.1-0.6-0.4-0.9-0.8c-6.7,7-4,12.5-8,15.5c-11.9,0-7.5,9.1-16.9,10.1
		c-2,1-1,9.8-3,8.8c0,0,0-0.1-0.1-0.1s-0.2,0-0.3-0.1c-1.5-3.1-2.8-4.6-3.8-5.2c-1.8-0.8-3.1,1-4.8,0c-0.5-0.1-1-0.5-1.6-1.2
		c-1.3-1.3-2.7-2.1-4.1-2.6c-6.5-1.8-13.9,3.9-20.4,3.1c-11.1-9.6-15.8-2.3-24.3-8.1c0,0-0.1,0-0.1-0.1c-0.1,0-0.1-0.1-0.2-0.1
		c-0.2-0.2-0.4-0.3-0.6-0.4c-3.2-1.8-8,0.5-14.3-0.8l0.1,0.1c-0.2,0-0.3-0.1-0.5-0.1c0.1,0,0.2,0,0.3,0c-1.1-0.2-2.2-0.5-3.3-1v0.1
		c0.8,0.3,1.5,0.5,2.3,0.7c-0.8-0.2-1.5-0.3-2.3-0.6c0,0.3,0,0.6,0,0.8c-0.1-0.1-0.3-0.1-0.4-0.1v0.1h0.1
		c-1.5,14.7-29.3,23.1-29,34.7c-0.2,1.4-0.1,2.6,0.2,3.6c2.8,7.3,19,4.4,23.4,8c0.9,0.8,1.5,1.6,1.7,2.4
		c2.1,5.5-10.4,11.7-13.1,19.9c-0.6,2-0.8,3.4-0.6,4.3c1.6,4.3,13-4.7,14.7-0.5c0,0.1,0,0.2,0.1,0.2c0,0,0,0,0,0.1
		c1.6,4.1-7.2,12.7-6.8,18c0.2,1.1,0.8,2,2,2.7l179.7-12c0.8-1.1,1.4-2.8,1.4-2.8S1855.3,1176.7,1855.5,1175z"/>
	<path class="st1" d="M1679.9,1096.2c0.1,0,0.2,0.1,0.3,0.1v-0.1C1680.1,1096.2,1680,1096.1,1679.9,1096.2
		C1679.9,1096.1,1679.9,1096.2,1679.9,1096.2z"/>
	<path class="st1" d="M1683.5,1097.1C1683.6,1097.1,1683.6,1097.1,1683.5,1097.1L1683.5,1097.1
		C1683.6,1097.1,1683.6,1097.1,1683.5,1097.1z"/>
	<path class="st1" d="M1898,1036.1c0.1,0,0.3,0,0.4,0c0.3-0.1,0.6-0.2,1-0.2c0,0,0.1-0.2,0.3-0.4c-0.3,0.1-0.7,0.2-1,0.3
		C1898.5,1035.9,1898.3,1036,1898,1036.1z"/>
	<path class="st1" d="M42.4,484c4.1,5.1,2.7,14.9,8.8,15.9c4.1,0,11.2-4.7,13.2-9.8c-9.7-3-5.9-4.2-0.7-5.1
		c7-1.1,18.3-9.5,24.4-11.5c4.1-2,2-11.5,7.1-12.5c14.2-4.1,31.5,8.5,43.7,11.5c9.9,2.3,3.9-4.3,2.4-6.4c0.2,0.1,0.3-0.2,0.7,0
		c8.1,4.1,29.5,33.9,41.7,28.8c15.2-7.1,16.2-32.5,32.2-46.7c28-12,52.2-10.2,65.4,3c5.1,4.1,11.5,9.5,13.5,14.6
		c1,3.1,0.3,9.8,2.4,7.8c3-5.1-1.7-11.9,4.4-14.9c5.1-2,17.3,5.8,22.4,8.8l5.4,1.4c3,0.8,10.5,0.7,11.5-2.4
		c2.7-11.7-10.5-9.1-7.5-14.2c2-3.1,58.6,8.8,59.6-1.4c1-6.1-9.8-11.5-5.8-16.6c3-3.1,8.5,16.3,20.7,20.3c3,1-2.7-14.9,4.4-5.8
		c2,3.1,0,6.4,3,7.5c3,1,2.7-7.5,5.8-6.4c3,0,1.2,2.8-1,7.8c1,2,3.7,2,5.8,1c2-3.1,0-11.2,6.1-7.1c10.2,7.1-2.7,2-1.7,7.1
		c3,11.2,48.1,2.4,55.2,3.4c9.1,2,33.2,16.9,42.3,16.9c6.1,0,5.1-9.1,10.2-11.2c11.2-5.1,16.9,1.4,28.1-5.8
		c11.2-7.1,17.1,3.1,23,0.3c5.1-2,2-13.5,6.1-16.6c10.2-5.1,30.8-2.7,33.9-12.9c2.2-8.6-1.9-8.3-0.3-19c1-4.1,8.5-6.8,4.4-7.8
		c-15.2-6.1-24.6-3.4-43-0.7c-9.5-2.3-10.4-3.2-14.2-7.5c-7.4-0.1-10.4-3.2-12.5-6.4c2.3-1.2,5-2.4,5.8-3c2.3-2,3.5,0.3,7.5,1.7
		c3.9,1.4,0.3-3.1-1.4-5.1s-13.1-3-17.3-3c-1.4,0-2.4,0.8-3.4,1.7c-2-0.4-4.3-0.4-7.8,0.3c-3-2,7.1-5.8,10.2-6.8
		c11.2-4.1,30.5,9.5,38.6-3.7c3-5.1,7.8-15.9,3.7-20c-4.1-5.1-22.4,7.7-19.3-2c8-4.3,15.6-8.9,24.4-11.9c1,0,3.4,6.4,4.4,6.4
		c3,2,3.4,3,6.4,2c27.4-7.5,15-7.7,6.8-12.5l5.4-5.1l-10.8-2.7c0.1-1.2,0.3-2.3,1-3.7c2-5.1,10.8,6.4,16.9,4.4
		c7.4-1.5,8.9-7.1,14.2-12.2c5.3-5,11.2-9.7,12.9-17.3c3.2-14.8,12.7-25.6,14.2-34.2c9-68.7-46-71.5-80.6-76.6
		c-21.3-3.1-5.1,7.1-25.4,20.3c-3,2-2.2-4.7-11.2-6.1c-4.3-0.6-4.1-9.1-8.1-12.2c-2-2-10.2,2-9.1-1c17.5-18.1,17.6-9.1,31.8-23.4
		c10.7-13.1-0.2-50.1-19.3-61.7c-4.5-3.5-14.2-17.8-17.3-20.7c-1.2-1.1-6.9-6.3-14.9-4.7c-5.8,1.1-9.8-0.6-11.9-3
		c-0.4-0.5-9.1,0.7-9.1,0.7s6.6-5.6,13.5-2.7c5.1,2.1,17.6,0.8,23.7,1c10,18.3,19.2,17.6,20.7,18c5.7,1.4,9.3,10,6.8,0.3
		c-4.1-14.2-23.4-41-19.3-57.3c1-6.1,12.1-4.3,11.5-8.1c0.6-6-11.1-3.2-19-20c-5.1-8.1-3-18.3-9.1-25.4
		c-17.3-21.4-12.5-14.2-30.8-25.4c-4.1-2-7.1-7.1-11.2-8.1c-2-1-4.1,5.1-5.1,3l-177.7,5.7c2.7,5.6-7.8,14.9,4.4,19
		c4.1,1,9.1-11.2,11.2-7.1c3,8.1-14.6,25.1-5.4,25.1c14.2-1,28.5-21.4,29.5-6.1c1,8.1-4.7,8.5-7.8,15.6c-3.1,7.1,5.1,4.1,4.1,10.2
		c0,12.2-23.7-11.3-20.3,25.1c2,6.1,13.2-0.7,15.2,5.4c1,5.1-9.1,2-13.2,5.1c-5.1,4.1-11.2,9.1-12.2,15.2
		c-0.5,2.8,4.2,15.5,4.4,18.6c0.1,0.8,4.2,10.1,6.8,12.9c0.9,1,3.9,3.1,6.4,3.4c0.7,0.1,2.8-2.1,5.1-2.7c10.8-2.7,4.9,0.7,2.4,1.7
		c-2.7,1.1-5.8,4-7.5,4.4c-6.5,1.6-10.6-3.9-10.8-4.1c-0.8-0.7-5.1-14.7-5.4-15.9c-5.6-1.5-10-0.9-10.5,1c-2,7.1,9.1,18.3,3,22.4
		c-6.1,4.1-7.4-7.5-12.5-12.5c-6.7-6-8.8,2.4-23,0.3c-7.1-1-11.9-8.5-19-9.5c-3-1,1.7,4.7-0.3,5.8c-9.7,3.5-17.4,4.9-22.4,4.4
		l-19.7,10c-0.3,0.4,0.4,4.1-1.7,7.8c-1.8,3.2-4.4,4.3-9.5,7.1c-10.2,5.7-16.8,6.2-21.7,10.5c-5.7,5-10.6,6.5-9.5,7.8
		c0.3,0.6,0.9,2.6,2,3c0.9,0.3,7.5-3.5,11.2-2.4c2.4,0.7,4.3,6.4,7.8,5.1c1.4-0.5-0.8-9.6,12.9-10.5c11.9-0.8,15.6,3.7,15.2,6.4
		c-1.9,13,6.8,11.8,5.4,20c-1.3,8.2-8.8,10.5-9.1,16.9c-0.8,12.9,3,7.8,3.4,15.9c-6.1,14.2-22.3,28.8-38.6,32.9
		c-14.6,7.1-19.5,2.5-24.4,3.7c-9.5,2.4-17.6,6.4-23.7,8.5c-10.6-6.8-13.2,4.2-21,4.4c-8,0.2-14.6,5.9-13.2,6.1
		c18,2.4,17.3,5.4,16.6,12.9c-0.4,2.6-14,4.7-12.2,7.5c4.7,7.3,19.8,5.3,20.7,8.1c-6.1,1-15.9-1.7-9.8,3c-2,4.1,2.7,8.1,7.8,9.1
		c6.1,2,0.3-6.8,14.9-1.7c2.7,0.9,4.7-6.1,7.8-6.1c24.4-7.1,15.2,1,22.4,0c2,0,3-6.1,4.1-4.1c1.8,3.5-0.4,11.9,5.1,15.2
		c5.5,3.4,18.6,1.8,18.3,4.4c-0.7,5.3-28.3,0.5-18.3,10.8c10.2,5.1,27.4-7.5,35.6,0.7c9.1,9.2,4.3,26.4,15.9,30.8
		c35.9,13.6,25.1-2.7,49.1-9.1c3-1,5.4,3.4,8.5,3.4c5.1-1,8.1-2.4,13.2-4.4c4.1-3.1,20.3-2,14.2,5.1c-6.1,7.1-32.5,15.2-36.6,18.6
		c-5.2,4.4,0,15.9-6.1,21c-9.7,7.6-5.2-2.7-23.4-0.3c-16.9,2.2-9.2-10.1-43-13.9c-28.5-5.1-34.5-1-36.2,6.8c-0.8,3.5,4,8.5,1.4,9.8
		c-4.4,2.1-9.2,3.3-17.3,6.8c-4.1-1-5.8-8.8-9.8-7.8c-7.1,3.1-9.1,26.1-12.2,30.2c-5.1,6.1-11.9,7.1-16.9,12.2c-3,2-3,6.4-6.1,8.5
		c-3,1-15.6,2.4-18.6,4.4c-7.1,5.1-1.7,7.8-8.8,13.9c-2,1-5.1,0.3-7.1,2.4c-2,1-0.3,5.1-2.4,6.1c-3,4.1-18.4,15.8-31.5,12.9
		c-1,0-21.3,3.4-21.3,10.5c0,5.6,0.7,8.8,7.8,8.1c3.6-0.3,7.2-4.9,11.9-5.4C35.2,478,40.8,481.5,42.4,484z"/>
	<path class="st1" d="M311.7,83.1L311.7,83.1C311.7,83,311.7,83,311.7,83.1z"/>
	<path class="st1" d="M205.2,101.5c0,0,30.2-13.9,29.5-15.9c-1.9-5-2.4-4.9-11.5-1.4c-1.1,0.4-3.8-5.5-3.7-14.6
		c-1.6-2.3-8.9-4.7-13.9-5.3c-1.7-0.2-3.2,0-4.1,0.3c-8.3,3.4-7.8,6.2-7.8,11.2C193.8,88.8,198.9,93.7,205.2,101.5z"/>
	<path class="st1" d="M190.4,84.4c2.7,0.8,3.4,1.5,3-0.7c-0.3-2.2-1.5-6.3-3.4-8.1c-1.4-1.5-2.4-2.5-3.4-2.1c-0.3,0.1-0.8,0.6-1,1
		c-0.8,1.9,0.5,3,1.4,4.1C189.5,80.5,187.7,83.5,190.4,84.4z"/>
	<path class="st1" d="M581.6,390.6c-2.7,1.1-3.8,3.8-2.7,5.1c3.4,4.4,5.7,3.5,8.1,4.7c2.4,1.3,9.2,2.6,6.4-1.4
		C590.6,395.1,584.2,389.4,581.6,390.6z"/>
	<path class="st1" d="M408.9,462.8c-3.8-2.3-6.4-1.4-8.8-4.4c-1.3-1.2-2.3-2.3-3.5-2.5c-1.2-0.1-2.4,0.9-4.7,2.7
		c-4.6,3.7-5.5,0.9-13.2,3c-1.8,0.6-4.2,1.7-6.4,3.4c-2.3,1.7,4.6,1.6,8.8,3c4.2,1.4,7.9,7.6,11.5,11.5c3.7,3.9,8.5,1.7,10.2-0.7
		s3.2-7.9,9.1-8.5C417.8,469.7,412.7,465.1,408.9,462.8z"/>
	<path class="st1" d="M266.6,631.9c-0.3,0-0.3,0.3-0.3,1c0,1.4-3.2,4.8-1.4,4.4c1.8-0.4,3.5-2.1,2.7-4.4
		C267.3,632.4,266.9,631.9,266.6,631.9z"/>
	<path class="st1" d="M239.6,630.7c-2-0.4,0.1,2.7,5.1,3c5,0.4,6.8,1.1,7.1-1c0.5-2.8,0-3.7,1.7-4.7c1.7-1.1,1.8-2,1.7-3.7
		s-1.3,0.4-2-0.3c-0.5-0.6-1.1-1-1.5-0.9c-0.4,0-0.7,0.3-0.3,0.7c0.7,0.7,0.7,1.2-1,0.7s-3.8,3.5-5.8,3.4c-1.9-0.1-3.6,0-3,1.4
		C242.2,630.6,241.6,631,239.6,630.7z"/>
	<path class="st1" d="M258.8,629.1c0.5,1.3,2.1-0.1,1-1.7c-0.4-0.1-0.8-0.3-1-0.3C258.1,627.2,258.4,628.1,258.8,629.1z"/>
	<path class="st1" d="M283.5,602c3-1.3,3.9-2,2-2c-0.6,0-1.4,0.1-2.7,0.3C277.6,601.1,280.6,603.1,283.5,602z"/>
	<path class="st1" d="M293,666.1c-0.7-1.4,0.5-2.8-0.7-4.4c-1.2-1.6-3.7-0.2-4.4-2s-3.9-2.7-6.1-1.7s-3.9,0.3-6.1-0.7
		c-0.8-0.2-1.6-0.2-2,0s-0.2,0.7,0.7,1.4c1.7,1.3,1.9,5.7,0.3,6.8s-0.4,2.7,2.4,1.7s0.9,0.4,1.7,1c0.8,0.6,2.4,1.1,1.7-1
		c-0.7-2.1,0.7-1.2,2.7-1.4c2-0.1,1.1,3.3,2.4,2.7s0.6,1.6,3.4,1.4c2.8-0.2,3.2,0.6,3-1.4C291.9,666.6,293.7,667.6,293,666.1z"/>
	<path class="st1" d="M1294.5,1031.6c0.7-0.6,2.8-1.1,3.4,0.7c0.6,1.8,3.3,0.7,4.4,0c0.4,0.3,0.3-0.2,0.7,0c0.2-2.3-0.2-1.8,1.7-2.7
		c0.7-0.3,1-0.7,1-1c0-0.6-0.6-1.4-1-2.6c-0.1-0.3-0.1-0.5-0.1-0.7c-0.1-0.9,0.6-1,0.7-1.5c0-0.2-0.2-0.5-0.5-0.8
		c-0.4-0.4-0.5-0.8-0.5-1c-0.1-0.6,0.8-0.8,0.9-1.3v-0.1c-0.3-0.7-2.2,0.5-2.4-0.7s-0.7-0.9-2-1.7c-0.3-0.2-0.4-0.3-0.5-0.5
		c-0.4-0.5,0.3-1,0.2-2c0-0.1,0-0.1-0.1-0.2c-0.1-0.4-0.2-0.6-0.1-0.7c0-0.5,0.6-0.1,1.1-1.1c0-0.1,0.1-0.1,0.1-0.2
		c0-0.9-2.5-1.7-2.4-3.1c0-0.2,0.1-0.5,0.3-0.8c0.3-0.5-0.4-1.2-1.2-1.8c-0.6-0.4-1.2-0.8-1.5-1.1l0,0l-0.1-0.1
		c0,0.1-0.1,0.1-0.1,0.2c0,0.1,0,0.1,0,0.2c-0.7,1.2-1.9,3.4-2.9,5.5c-0.5,1.3-1,2.4-1.1,3.2c-0.4,2.2,2.5,4.8,2.4,7.1
		c-0.1,2.1,1.3,4.1,0.2,5.3c-0.1,0.5-0.3,0.9-0.9,1.2c-1.7,1.1-2.5,1.3-3.4,2.1C1291.3,1032,1294,1032,1294.5,1031.6z"/>
</g>
<g id="trail-path" class="st2">
	<path class="st3" d="M301.1,458.6c0,0,98.4,74.9,98.4,198.5c-3.3,0.8-35.7,13.8-39,14.6c0,2,290.4,195.8,457.9-94.2
		c0,0,87.6-11.2,148.1,43.7c36.4-51,38-49,58.6-93.3c8.4-18-75.6-91.4-17.2-159.6c4.7-5.5,93.9-9.7,55.3,58.9
		c150.6,47.4,327.7,59.3,541.4,529.8"/>
</g>
<g id="camera-path" class="st2">
	<path class="st4" d="M295,457.1c0,0,104.5,39.1,85,207.3c-12.1,153.6,421,38.3,514.6-41.7C994,542,996.1,385.5,1032.5,401
		c88.5-21,572.1,556,572.1,556"/>
</g>
<g id="points" class="st2">
	<circle id="Kehlsteinhaus" class="st5" cx="1604.7" cy="956.9" r="7.3"/>
	<circle id="Wesel" class="st5" cx="1063.4" cy="427.1" r="7.3"/>
	<circle id="Aachen" class="st5" cx="1025.2" cy="527.9" r="7.3"/>
	<circle id="Low_Countries" class="st5" cx="818.4" cy="577.5" r="7.3"/>
	<circle id="Arnhem" class="st5" cx="1008.1" cy="368.2" r="7.3"/>
	<circle id="Bastogne" class="st5" cx="966.6" cy="621.2" r="7.3"/>
	<circle id="Carentan" class="st5" cx="360.6" cy="671.7" r="7.3"/>
	<circle id="Omaha_Beach" class="st5" cx="399.5" cy="657.1" r="7.3"/>
	<circle id="Invasion_Departure" class="st5" cx="302.3" cy="457.1" r="7.3"/>
</g>
</svg>
