<?xml version="1.0" encoding="utf-8"?>
<!-- Generator: Adobe Illustrator 21.0.2, SVG Export Plug-In . SVG Version: 6.00 Build 0)  -->
<svg version="1.1" xmlns="http://www.w3.org/2000/svg" xmlns:xlink="http://www.w3.org/1999/xlink" x="0px" y="0px"
	 viewBox="0 0 2040.5 1178.5" style="enable-background:new 0 0 2040.5 1178.5;" xml:space="preserve">
<style type="text/css">
	.st0{fill:#C0C0C0;stroke:#FFFFFF;stroke-width:0.4008;}
	.st1{fill:#C0C0C0;stroke:#FFFFFF;stroke-width:0.3992;}
	.st2{fill:#C0C0C0;stroke:#FFFFFF;stroke-width:0.4;}
	.st3{fill:#C0C0C0;stroke:#FFFFFF;stroke-width:0.2;}
	.st4{fill:#C0C0C0;stroke:#FFFFFF;stroke-width:0.1;}
	.st5{fill:none;stroke:#010101;stroke-width:5;stroke-miterlimit:10;}
	.st6{display:none;}
	.st7{display:inline;fill:none;stroke:#EC2227;stroke-width:3;stroke-miterlimit:10;}
	.st8{fill:#FF0000;}
</style>
<g id="Layer_2">
</g>
<g id="Layer_1">
	<g>
		<path id="path5726" class="st0" d="M983,681.4c-0.8,1-2.6,1.9-1.7,3.3c0.8,1.2-0.9,2.3-2.2,4.1C982,687.6,983.6,685.3,983,681.4z"
			/>
		<path id="path5724" class="st0" d="M975.3,657.5c0.2,0.2-0.3,0.7,0,0.8c0.4,0.2,0.4,0.9,0.7,1.2
			C975.7,658.8,975.6,658.2,975.3,657.5z"/>
		<path id="path5848" class="st0" d="M1055.1,161.6c-0.9,0.3-2,2-0.1,3.1c1.7,2.6,1.4,0.9,3.8,0.3c2.4-0.6,1.9-1,0.1-2
			c-1.8-1-2.2,0.3-3-1.1C1055.8,161.6,1055.5,161.5,1055.1,161.6z M1066.9,162.2c-0.5,0.1-1.1,0.3-1.7,0.7c-2.2,1.6,1,1.9,3,0.8
			C1069.8,162.9,1068.6,161.9,1066.9,162.2z M1047.6,166c-1.1,0-2.7,0.2-4.4,0.3c-3.3,0.2-7.4,0.7-9.8,0.7c-1.1-0.1-1.8,2.8-2.4,4.4
			c-0.5,1.6-0.2,3.2,0.7,2.4c0.9-0.8,1.3-2.4,2.7-2.4c1.4,0,7.1-1.2,10.2-2.4s5.8-1.9,5.1-2.7C1049.5,166.1,1048.7,165.9,1047.6,166
			z M994.4,168.7c-0.5-0.2-1.3-0.1-2.4,0.3c-2.1,0.9-2.8,2.7-1.7,4.1c1.1,1.3,2.6,2.3,4.4,2c1.8-0.3,3.6-2.5,5.1-2.4
			c1.5,0.1,2.9,2.3,8.8,0.7c5.9-1.7,9.3-1.2,10.2-1.7c0.9-0.5-1-1.5-5.8-1.4c-4.7,0.2-13.7,0.5-17.9-0.7
			C995.1,169.5,995,168.9,994.4,168.7z M982.9,171c-2.5,0.1-6.2,1.1-8.8,1.7c-3.4,0.8-15.6,2.8-17.6,3.7c-1.6,0.8-3.6,3.9-4.1,4.8
			c-0.4,0.9,2.4,1.6,3.7,1c1.3-0.6,1.9-1.8,4.8-2.4c2.9-0.5,6.4-0.3,8.8-2c2.4-1.8,2.3-1.4,6.1-1.4c3.8,0.1,5.4-2.4,7.5-2.7
			c2-0.4,3.9-1.4,1.7-2.4C984.4,171.1,983.8,171,982.9,171z M1078.3,175.3c-1.3,0.1-2.6,0.3-3.6,0.5c-4.3,1.2-12.4,2.9-18.2,4.1
			c-5.7,1.2-12.9,1-17.5,0c-0.7-0.2-1.4-0.1-2.1-0.2c-0.4,1.2-1.4,2.6-1.9,3.7c-1.1,2.2,5.4,6.6,1.5,5.2c-3.6-1.3-5-4-2.3-9.1
			c-3-0.1-5.9,0-8.7,0.1c-6,0.3-12.3,1.2-16,2.4c-4.1,1.4-10.5,4.2-17.7,7.9c-3.5,1.8-12.8,6.2-16.5,9.4c-0.4,0.4-0.7,0.8-1,1.2
			c-3.4,4-5.3,8.1-7.5,11.9l-27.1,24.4l-4.7-0.7c-3.4,3.6-4.3,6.5-11.5,4.1c-4.5-1.5-5-3.9-3.1-9.1c-3-0.2-5.1-3.1-6.1-2
			c-13.2,16.3-9.2,48.8-15.3,66.1c-6.1,15.3-18.3,32.5-29.5,44.7c-4.1,5.1-7.1,11.2-12.2,14.2c-3,2-9.1-1-10.2,3
			c-2.8,4.2-3.4,13.1,15.6,26.4c5.1,3.5,14.4,11.1,22.4,11.9c4.4,0.4,10.2-1.4,10.2-1.4s3.3,3.4-5.7,4.4c-8.8,1-11-4.3-14.2-0.3
			c-3.6,4.4-7.7,4.6-13.2,6.1c-3.8,1.1-5.3-5.5-10.2-4.1c-5,1.5,2,6.1,2,6.1s-11.5-4.1-14.2,1.4c-1.4,2.9,3.7,6.1,8.8,8.5
			c5.1,2.4,9.4,3.9,10.5,9.8c0.2,0.9-10.4,2.4-13.2-1.7c-3.1-4.6-13.2-18.8-16.3-19.3c-10.2,2.1-16.6-0.9-23-1
			c-5.4-0.1-10.1,1.5-12.5,6.8c-1.7,3.7,4.5,10.3,8.1,11.9c3.8,1.7,14.1,3.8,15.2,5.8c3,5.1,9.8,4.9,12.9,4.4c2,0,0.7-4.4,2.7-6.4
			c4.1-3.1,8.1,4.1,12.2,5.1c3.3,1.6,4.3-2.1,11.9,4.1c0.7,0.7,1.9,1.1,3.2,1.3c0.5,1.2,0.7,1.7,1.3,2.8l4.7-0.7l1.7,3.1l0.6,0
			c1,1,2.3,1.2,4.1,0.7c3.3,0,1-5-0.1-9.7c1.2,0,2.4,0.5,3.1,0.9c1.4,0.9,4.4,0.9,4.4-1.1c0-0.9,2.1-2.1,4.4-3.1
			c-0.5,1.2-1,2.3-0.6,2.8c7.2,6,11.2,0.1,15.1-4.4l0.2,2.2l4.7-5.8l4.4,1.9l2.4,5.1l-2.2,3.9c0,0-3.9-3.6-4.4-0.3
			c-0.5,3.2,3.9,2.2,5.9,1.9s4.7-1.5,5.9,2.2c0.1,0.4,0.1,1.1,0.1,1.6l7.5-5.5l1.7-5.6l4.7,0.8l2.2,5.6l-2.5,4.5
			c1.4,4.3,3,8.7,4.8,12.4l5.4-1.1l2.2,3.4l-0.6,4.2c3.3,0.6,6.7,1,10.3,1.5l4.1-0.5l6-4.6l4.7,5.6h0l-0.2,5.6l7.9,4l0.5,2.1
			l8.8,0.2l0.4,4.4l4.3-1.9c0.8,0.9,1.6,1.6,2.4,2.5c1,2-4.1,4.1-5.1,6.1c-1.2,3.5-3.3,6.6-5.1,9.8l1.4,2.9l-4.2,4
			c0,0.2-0.2,0.4-0.2,0.6c0,2,5.1,1,4.1,3c-0.8,2.5-4.4,3.8-6.2,6.4l0.5,0.7l-4.5,1.8c0,0-1.9,5.1,0.5,7.1c2.3,2,3.2,1.5,3.2,3.4
			c0,2-0.4,3.6-1.9,4.7c-1.5,1.1,5.2,2.2,6,0.1c0.8-2.1,3.7-0.7,4.6,0.9c0.8,1.7,5.4,1,6.3,0.2c0.8-0.8,2.6,3.3,3.9,2
			c1.3-1.3,7.4-0.1,7.9,0l0.2,0.2h0.3c-0.2-0.3-0.3-0.5-0.4-0.8l-2.2-7.2c1.7-3.2,7.8-3.5,8.7-7.3c3-21.4-19.8-9.4-13.2-25.7
			c3-1,1,3.4,3,3.4l19.3-17.3c1-5.1-12.2,1-8.1-7.1c3-7.1,10.2-12.2,13.2-19.3c5.5-13.5-0.5-24.7-7.4-34l1.1-4.1
			c0,0-6.6-2.2-6.4-5.7c0.2-3.5,0.7-4.6,0.7-4.6l-6.4-2.9l3.4-3.4l-2.7-4.7c-0.4-1.5-0.8-3.1,0.5-3.7c5.1-3.1,11.2,0,17.3-2
			c2-1-2-7.1,0-6.1c6.1,2,10.2,9.1,17.3,9.1c4.7,0.7,18.2-3.1,27.7-7.8l1.3,1.5c0,0,3.4-2.5,6-5.9c1.3-1,2.2-2.1,2.7-3.1
			c0.2-0.4,0-0.7,0-1.1c0.1-0.3,0.2-0.7,0-1.1c-0.2-0.7-0.7-1.3-1.4-1.8c-0.3-0.3-0.7-0.5-1-0.8c-0.9-0.7-1.8-1.4-3.4-2.5
			c-8.3-5.6-2.7-5.6-0.8-8.8c0.1-0.2,0.1-0.2,0.2-0.4c1.8-1.1,3.6-2.2,5.4-3.3c2.3,0,4.8-0.2,5-1.2c0.2-0.7,0.8-1.8,1.5-2.8
			c4.7-2.9,9-6,11.9-10c1.5-0.5,2-1.5,1.5-2.8c2.5-4.6,3.7-10.3,2.4-18.2c-0.2-2.7-1.8-4.7-4.1-6.3c-0.6-1.3-1.5-3.6-1.5-3.6l-1.8,2
			c-0.1-0.1-0.3-0.1-0.5-0.1l-1.5,2.4l-20.7-8.2l0.9-1.9c-1.9-1.8-2.4-4.1-0.3-7.6c1-3.1,6.1,0,6.1-2c1-3.1-4.1-6.1-3-9.1
			c0-2,3-2,5.1-2c7.1,0,13.2,3,20.3,3c6.1,0,3.6-9.1,3.3-17.1v0c0.9-5.3,2-11,5-14.7c4.3-5.3,6-12.2,7.4-16.7c0.6-2,0.7-3.9,0.5-5.7
			v0c0,0,0,0,0-0.1c-0.2-2.4-0.8-4.8-1.2-7.6c-0.7-5-2.6-2.4,0.5-6.4c2.3-3.1,1.1-8.2,0.2-11c-0.9,0.4-2,0.6-3.3,0.3
			c-1.5-0.4-2.5-1.2-3.3-2.2l0,0c-1.9-1.3-3.6-3.2-5.3-5.4c-3.2-0.4-8.8-4.6-11-7.2c-2.4-2.9-1-9.3-2.6-12.4
			C1086.6,176.1,1082.2,175.1,1078.3,175.3z M945.6,187c-3.1-0.6-16.6,8.7-18.3,10.5c-0.6,1,0.1,0.6,0.3,2c0.3,1.4,2-1.4,4.1-1.4
			c2.1,0,5-2.9,5.8-4.7c0.8-1.8,1.9-2.1,4.4-2.7c2.5-0.6,3.7-2,5.4-1.7C949.1,189.4,948.7,187.6,945.6,187z M927,202.2
			c-1.6-0.2-5.4,6-10.2,13.5c-1.4,2.3-2.9,2.9-3,8.5c-0.2,5.6,2.7,2.9,6.4,1.7c3.7-1.2,2.8-2.5,5.4-4.1c2.6-1.6,4.2-4.3,4.4-6.4
			c0.2-2.1,1.2-5.7,0.7-7.8C930.2,205.5,928.6,202.4,927,202.2z M968.2,219c0,0-0.4,3.2-0.5,4.2c-0.3,2.7,1.9,8.5,1.7,10.5
			c-0.8,7.1-3.7,4.7-4.8,11.9c0,4.6,3.8,3.7,12.2,5.4c3.8,0.8,11.2-3.3,14.2,0c2.8,3.1,0.2,3.2-4.7,5.1c-4.6,1.7-6.4,12.5-4.4,19.7
			c1,3.6,2.5,6.4,5.1,6.4c3.9,0.1,10.2,0.5,13.1,1.2c5.5-0.9,7.3-0.9,9.1-1.9c2-1.1,4.4-3,4.4-3l2.8,2.4c0,0-4.6,2.7-6.7,2.9
			c-2.1,0.2-3.3-0.5-5.9,0.3c-2.3,0.7-3,2.6-3.1,3.7c0.5,0.9,1.5,1.6,1.8,2.4c0.6,1.6,1.5,6.8-2.4,12.9c-1,1.6-2.5,3-5.4,5.4
			c-5.9,4.2-10.5,6.2-12.9,8.1c-4.1,3.3-5.7,5.6-6.4,8.1c-1.3,4-4,4.3-9.5,5.1c-2.9,0.4-4.9,0.1-6.1-1.7c-2.1-3.2-5.7-3.4-6.8-4.7
			c-1.9-2.3-7.6-2.2-8.8-2.4c-1.7-0.3-1-1.5-2-2.7l-13.2-5.8c-3.4-1.4,13.9-9.1,12.5-15.2c-1.1-4.9-11.2-13.9-6.1-21
			c6.4-4.1,5.4,3.6,9.1,2.7c3.7-0.9,13.5-8.9,12.5-13.2c-0.9-0.8-1.9-3.4-5.7-3c-5.1,0.4-5.5-2.7-6.8-4.4c-2.6-3.4,0.5-8,0.3-10.2
			c-0.2-2.3-1.5-6.9-1.5-6.9L968.2,219z M985.1,283.5c-0.6-0.1-1.5,0-3.2,0.1c-3.5,0.1-7.8,5.2-9.1,5.7c-1.3,0.5-2.6-0.1-3.7,1.7
			c-1.1,1.8-1.1,2.2-1,3.1c0.1,0.9-4.4,3-4.4,3s-21.7,12.5-22.4,13.5c-0.6,1.1,1,5.8,1,5.8c0.5,1.1,1,0.6,2.4,0.3
			c1.4-0.3,3,0.1,4.8,0.7c1.8,0.6,4.7,2.4,6.8,4.1c2,1.7,4.9,5.1,5.8,6.4c0.9,1.3,4.6,0.3,7.8-0.3c3.2-0.6,3.2-0.8,4.4-4.1
			c1.2-3.2,0.9-4.7,0.3-6.1c-0.5-1.4,2.2-2.6,3.4-2s2.9-0.1,3.7-1.4c0.8-1.2,8-5.1,8.8-5.4c0.6-0.3,1.5,0.2,4.4-1.7
			c6.1-5.9,7.6-12.4,6.1-15.9c-1.5-3.5-3.5-3.7-5.7-3.7s-8-2.1-8.8-3C985.9,283.7,985.7,283.5,985.1,283.5z M843.5,373.5
			c-0.3,0-0.7,0-1.2,0.1c-1,0.2-2.4,0.7-4.4,1.4c-4,1.3-5.7,1.4-6.4,2.4c-0.7,1,0.3,3.2,1.4,4.1c1.1,0.9,1.4,0.1,1.7-1
			c0.3-1.1,2.1-1.2,5.1-1.7c3-0.5,3.6,1.6,5.1,3.7c1.5,2.1-0.8,3.1,0,4.8c0.8,1.7,0.8,2.8,2,4.4c1.2,1.6,4,1,5.4,1.4
			c1.4,0.4,3.2,1.8,3,2.7c-0.1,0.5-0.9,0.6-1.7,0.7c1.4-0.1,2.9,0.2,4.1,0.7c2.4,0.9,2.5,2.1,5.1,3.4c2.5,1.3,7.8-0.7,9.1-1.4
			c1.3-0.7,0.3-3,0.3-3l3,0.3v-1.7c0,0-5.4,0.6-6.8-1c-1.3-1.6-2.3-0.7-3.4-1.7c-1.1-1-6.1-7.1-6.1-7.1c-0.7-0.7-0.7-0.9-1.7-1
			c-1-0.2-3.4-2.7-6.8-4.7c-3.4-2-4.9-3.8-6.1-5.1C844.1,373.7,843.8,373.5,843.5,373.5z M853.5,396.3c-0.7,0.1-1.6,0-2,0
			c-0.9,0-2,1.4-2,1.4c0-0.1-0.2-0.4-1-0.3c-1.6,0.1-0.4-1.5-3-2c-2.6-0.5-1.8-1.8-2.7-3.1c-1-1.2-2.2-4-3.4-4.4
			c-1.2-0.4-4,0.6-4.7-0.7c-0.7-1.3-2.2-0.6-3.7-0.7c-1.5-0.1-1.1-0.7-6.4-1c-5.4-0.4-7.2,1.9-8.5,4.4c-1.2,2.5,1.5,5.1,3.7,5.4
			c2.2,0.4,4.7-2.3,6.1-3.4c1.4-1.1,1.6,0.9,1.7,2c0.1,1.1,1.5-0.2,3.4,1c1.8,1.2,1.7,4.3,2,5.7c0.4,1.4,3.1,0.2,3.7,0.3
			c0.6,0.2-0.6,2.6,3.7,2.7c4.3,0.1,7.6-1.9,9.5-3.4c1.8-1.5-0.4-2,0.7-3C851,396.8,852.2,396.4,853.5,396.3z M798.9,429.3
			c-2.7,0.4-7.4,1.2-14,2.7l0.6,1.2c-1.1,14.3,4.8,15.7,12.7,15.2c-0.1-2,0.1-3.9,1.9-4.2c3.5-0.6,10.3,1.5,14.4,3.7
			c1.9,0.3,3.8,0.7,5.6,1.6c2,1-2,5.1,0,7.1c7.7,5.1,14.5,1.2,20.6-4.1c3,0.2,5.3,1.1,7.9-0.8c0.9-0.6,1.6-1.3,2.3-1.9
			c0,0,0.1,0,0.1,0.1l3-2.1l5.6-5.9c-0.4-0.3-0.1-0.2-0.7-0.9c-1.7-1.9-2.7-2.6-4.6-2.5c-0.7-1.4-3.1-2.2-7.1-1.4
			c-4.5,1-7.1-3.2-8.1-3.7c-4.6-2.3-8.8,6.8-13.9,6.8c-13.2-2.3-7.7-4.4-16.9-7.5C804.6,431.4,801.5,430.2,798.9,429.3z"/>
		<path id="be" class="st0" d="M904,424.1l-4.7,5.8l-0.2-2c-2.2,2.5-4.5,5.4-7.3,6.4c-0.1,0-0.2,0.1-0.3,0.1
			c-0.4,0.1-0.8,0.2-1.2,0.2c-0.8,0.1-1.5,0.1-2.4-0.2c-0.2-0.1-0.4-0.2-0.6-0.2c-1-0.4-2.1-1-3.3-2c0,0-0.1,0-0.1-0.1
			c-0.4-0.4,0.1-1.6,0.6-2.8c-0.3,0.2-0.6,0.3-0.9,0.5c-0.7,0.4-1.5,0.7-2.1,1.1c-0.8,0.5-1.4,1.1-1.4,1.5c0,2-2.9,2-4.4,1.1
			c-0.7-0.4-1.9-0.8-3.1-0.9c1.1,4.7,3.4,9.7,0.1,9.7c-0.1,0-0.2,0-0.3,0.1v-0.1c-1.6,0.5-2.9,0.2-3.9-0.7h0l-0.6,0l-1.7-3.1
			l-4.7,0.7c0.4,0.9,0.8,1.9,1,2.2c1,1.3,0.6,1.9,0.2,4.3c-0.1,0.5-0.1,1.1-0.1,1.1s-0.9-0.6-0.9-1.9c0-2.3-1-2.1-2.5-3.3l-4.2,4.4
			l-1.4,1.5l-3,2.1c-0.6,0.5-1.7,1.2-2.4,1.9c-0.7,0.5-1.3,0.8-1.9,1c-0.6,0.2-1.3,0.2-1.9,0.2c-1.3,0-2.6-0.3-4.1-0.4
			c-1.5,1.3-3.1,2.6-4.7,3.6c0,0,0,0,0,0c-4.8,3.1-10,4.4-15.8,0.6c0,0,0,0,0,0c0,0,0,0-0.1,0c-2-2,1.9-6,0-7.1
			c-1.8-0.8-3.6-1.3-5.5-1.5c-1.7-1-4.1-1.8-6.4-2.5c-0.4-0.1-0.7-0.3-1-0.4c0,0,0,0-0.1,0c-1.3-0.4-2.6-0.6-3.8-0.8h0
			c-1.2-0.1-2.3-0.2-3.1,0c-0.5,0.1-0.8,0.3-1.1,0.5c-0.3,0.3-0.5,0.6-0.6,1c-0.2,0.6-0.2,1.4-0.2,2.2c0,0.2-0.1,0.3,0,0.5
			c0,0,0,0,0,0.1c-3.9,0.2-7.4,0-9.7-2.1l0,0l0,0c-2.3-2.1-3.5-6-3-13.2l-0.6-1.2c-4.5,0.9-9,1.4-11.9,2.8c-2.4,1.1-3.8,1.4-5.9,2.5
			c-19.2,9.8-39.5,22.5-53.7,26.5l-1,1c0.7,5.2,1.4,13.7,2.9,22.3c-2.6,1.5-1.9,3.4-1.2,8.2c0.7,5.4,1.3,10.1,4.8,9.1
			c0.6-0.1,1.1,0.1,1.6,0.2c1.6,3.4,3.6,6.4,6.1,8.7c0,0.1,0.1,0.2,0.1,0.3c1.7,5.2,7.5,9.9,11.4,9.3s3.4-5.4,6-6.7
			c2.6-1.3,6.2-3.5,8.4-3.2c2.2,0.4,4.6-1.1,7.2-0.9c2.6,0.2,1.9,2.6,3.4,6.5c1,2.6,1.4,3.7,3,4.7c0.6,6.5,0.4,13.2,1.6,17.6
			c-1.4,4.6,2.2,7.1,5.1,10.5c2.8,3.3,6.2,2.4,11-1.9c1.9-0.1,3.7-0.1,5.5,0c-4.1,4.5-4,5.3-0.3,5.3c4.3,0,8-1.3,9.3,3.4
			c0.3,1.2,0.9,2.4,1.4,3.7c-0.5,3-1.6,6-0.9,8.7c0.1,0.3,0.3,0.5,0.5,0.8c-0.5,4.7,0.8,7.6,2.7,8.9c2.6,1.9,2.1-5.6,8.4-4.7
			c6.3,0.9,6,4.7,11.9,3c3.4-1,5.6-1.7,9-2.7c0.2,0,0.3,0.1,0.5,0.1l9.1,14.5l2.6-0.9c-2.2,4.5-7.1,8.7-7.1,13.5
			c-1,4.1,7.1,4.1,7.1,7.1c0,5.1-5.1,8.1-8.1,13.2c-1.8,3.6,9.1,7.8,21.3,8c5.3,2.2,12.2,2.3,14.6,0.2c3-2.6,12.5-3.3,12.5-3.3
			l0.1,0l0.4-9.1l12.7-10.5l4.1,1.2c0,0-7.9,8.6-6.4,11c0.9,1.6-0.8,5.7-2.3,8.9c1.7,2.3,5.4,3.7,6.2,6.8c0,5.1-8.1,11.2-4.1,15.3
			c3.1,4.6,9.6,4,15.7,4.7c1.1,0.9,2.3,1.9,3.3,2.4c3,1.5,3.2,5.2,5.8,6.7c0.9,0.5,1.9,0.8,2.9,1.2c0.8,1.2,1.7,2.4,2.9,3.3
			c1,1,4.1-3,6.1-2c2,1,3,3,4.1,5.1c0,1-5.1,3.1-4.1,4.1c3,2,8.1,0,10.2,3c3,4.1-1,13.2,4.1,15.3c6.1,3.1,13.2-4.1,20.3-3
			c2,0,4,0.5,6,1.1c1-2.2,2.4-4.3,4.2-3.7c0.7,0.2,1.1,0.4,2.4,0.8c1.5-2,3.7-3.7,3.1-6.1c-0.3-3.7,5.1-6.6,2.8-10.2
			c-2.5-1.7-1.6-4-0.4-5.8c-3.1-1.7-4.7-4.3-5-7.9c-0.4-1.9-2.1-2.5-3.5-3.1c-1.4-0.6-2.6-1.4-2.1-3.8c-0.3-3.1,1.8-5.8,3.1-8.1
			c-2-1.1-2-2.9-1.2-4.7c0.8-1.8,2.2-3.7,2.9-5.1c2.9-0.6,4.3-3,2.6-5.5c1.8-2.3,5.6-3.1,5-7c-0.3-4.2,1.6-8,5.9-8.8
			c2.8-1.7,2.5-6.9,6.8-6.2c2.2,0.6,1.1,5,4.4,3.2c1.5-1.5,3-2.6,4.1,0c0.4,0.9,0.3,1.8,0.9,3c2.1-1.4,5.2-3.4,6.7-4.2
			c1-0.6,0.3-2.2,0-4c-0.4-1.8-0.5-3.6,1.7-4.6c4.4-2,7.6-3.9,7.8-6.3c0.2-2.4,1.9-2.5,5.4-2.2c3.5,0.3,4.7-4.4,1.9-7.3
			c-2.9-2.9,1.7-10-1.2-15.2c-2.9-5.2-9-3-11.5-5.2c-2.5-2.2-2.4-6.9,1.9-10.6c4.2-3.7,4.7-6.3,1.2-6.8c-3.5-0.5-6.8-1.7-9.5-6.8
			c-2.7-5.1-0.7-6.1-5.9-6.6c-1.4-0.1-2.8-2.1-4.2-4l0.1,0.3c0.2,0.3,0.2,0.5,0.4,0.8h-0.3l-0.2-0.2c0,0,0,0,0,0
			c-0.2,0-1.9-0.4-3.6-0.5c-0.9-0.1-1.8-0.1-2.5,0c-0.8,0.1-1.4,0.2-1.7,0.5c-1,1-2.2-1.1-3.1-1.8c-0.3-0.2-0.6-0.4-0.8-0.1
			c-0.4,0.4-1.8,0.8-3.1,0.8c-1.4,0.1-2.7-0.2-3.1-1c-0.8-1.7-3.7-3.1-4.6-0.9c-0.8,2.1-7.5,1-6-0.1c1.5-1.1,1.9-2.8,1.9-4.7
			c0-0.5-0.1-0.8-0.2-1.1v0c-0.1-0.3-0.3-0.4-0.5-0.6c-0.5-0.4-1.3-0.8-2.5-1.7c-2.3-2-0.5-7.1-0.5-7.1l4.5-1.8l-0.4-0.5l-0.1-0.2
			c1.8-2.6,5.3-3.9,6.2-6.4c0.2-0.5,0.1-0.8-0.2-1c-0.7-0.4-2.1-0.5-3-1c-0.5-0.2-0.9-0.6-0.9-1.1c0-0.2,0.1-0.4,0.2-0.6l0.3-0.3v0
			l3.9-3.7l-1.2-2.7l-0.1-0.2c1.8-3.2,3.9-6.3,5.1-9.8c1-2,6.1-4.1,5.1-6.1c-0.7-1-1.6-1.7-2.4-2.5l-4.3,1.9l-0.4-4.4l-8.8-0.2
			l-0.5-2.1l-7.9-4l0.2-5.6h0l-4.7-5.6l-6,4.6l-4.1,0.5l-0.1,0c-3.5-0.5-6.9-0.9-10.2-1.5l0.6-4.2l-2.2-3.4l-5.4,1.1
			c-1.8-3.6-3.4-8.1-4.8-12.3l2.5-4.5L930,430l-4.7-0.8l-1.7,5.6l-7.5,5.5c0,0,0-1.2-0.1-1.6c-1.2-3.7-3.9-2.5-5.9-2.2
			c-2,0.3-6.4,1.4-5.9-1.9c0.5-3.2,4.4,0.3,4.4,0.3l2.2-3.9l-2.4-5.1L904,424.1z"/>
		<path class="st1" d="M1544.1,1028c-1,0.1-2.4,0.3-4.3,0.4c-0.1,0-0.2,0.1-0.2,0.1c0,0,0,0,0,0c-1.3,0.1-2.6,0.3-4,0.5
			c-1.6,0.3-3.1,0.7-4.6,1.1c-0.7,0.2-1.4,0.4-2,0.6c0,0,0,0,0,0c-0.6,0.2-1.1,0.5-1.7,0.8c-9.6,3.9-18.7,10.3-29.3,11
			c-4.6,0.5-15.7-0.2-26.7-0.4c-5.5-0.1-11,0-15.6,0.5c-4.6,0.5-8.3,1.4-10.4,2.9l-13.2,27.4c0,0-0.1,0-0.1,0.1
			c-1,0.5-1.9,1-2.8,1.3c-8.8,3.3-14.9-2.4-20.2-7.6c-2.3-2.2-4.5-4.4-6.6-5.7c-1-0.6-2-1-3-1.2c-12.2-1.5-7.2,3.8-10.9,3.1
			c-1.2-0.2-3.3-1.1-7.3-3.1c-1,4.1,0,9.1-2,13.2c-1,4.1-4.1,7.1-6.1,11.2c0,0.6,1.9,2.6,4.1,4.9l4.3,0.3l3.5,2.9l-3.4,10.6
			l-9.5-2.2l-2.7,2.2l-8.5-4.7v-4.7c-2.7-3.6-5.8-5.5-13.3-0.1c-1.9,1.4-3.2,2.7-4,4.1l-0.1,0c-5.4,9.7-3.9,17.6-0.1,19.9l-0.2,0.2
			c1.6,1.4,2.6,0.7,4.3-0.1c2-0.9,2.4-0.9,4.7,1.5c2.3,2.4,1.8,3.5-0.1,4.1c-1.9,0.7-1.1,2-3.8,3.8c-2.7,1.8,0.4,4.5,3.5,8.4
			c3.2,3.9,2.8,4.8,0.7,7.4c-2.2,2.6-2.9,1.3-6.7,1.6c-3.8,0.3-4.5-0.9-3.7-1.5c0.8-0.7,1.7-4.9-1.2-5.6c-2.9-0.7-4.5-0.5-3.7-2.8
			c0.8-2.3-2-3.7-2-3.7l1.9-1.9l-1.7-3.2c-0.6-0.4-1.2-0.7-2-0.8c-3.1-0.6-4-0.6-6.1-0.9l-11.1,5.9l-3.2-2.7l-3.2,2.7l2.7,2.7
			l-3.2,3.7l-3.4-2.5c0,0-3.7,3.2-9.8,0.7c-6.1-2.5-3.9-7.4-6.4-9c-2.5-1.5-5.1-2.5-5.1-2.5s3-2.5,2.4-6.8c-0.1-0.9-0.4-1.6-0.6-2.8
			c-0.6-1.1-1.2-2.3-2.2-4l-3.4,3.2l-5-6.2c-6,0.8-6.3,7.4-5.3,13.9c0,0.4-0.1,0.8,0,1.3c1,6.8-1.7,10.5-3.7,15.7
			c-2,5.2-7.3,13.5-9.1,14.4c-1.9,0.8-5.4,4.2-7.8,5.6c-2.4,1.4,0.8,7.3-2.4,7.8c-3.2,0.5-7.4,2.9-4.1,6.4c3.4,3.5-2.2,9.1,1.7,10.3
			s6.6,3.2,2.4,10.6c-4.2,7.4-7.1,4.9-10.6,2.5c-3.6-2.4,2.3-11.3-3.5-18c-1.5-1.7-3.8-3.7-6.3-5.5c1.9-1.9,4.1-3.8,4.6-6
			c0-2-2-4.1-3.1-4.1c-11.2-4.1-27.4-7.1-34.5-20.3c-1-4.1,2-8.1,2-11.2c0-6.1,1-12.2-1-18.3c-1-0.6-1.6-0.3-2.5-0.2
			c-0.8,0.1-8.7,1.4-12.8,3.6c-4.1,2.2-2.9,3.4,1,5.6c0.2,0.1,0.5,0.2,0.7,0.3c-1.9,1.6-3.7,3.3-5.7,4.9
			c-5.1,4.1-13.2,6.1-15.2,12.2c-1,4.1,8.1,6.1,7.1,11.2c0,0.3-0.4,0.8-0.5,1.2c-7,4.2-12.1,6-15.4,7.8c-3.3,1.8,0.7,8.6-2.2,12.3
			c-2.9,3.7-7.8-2-10.2,1.1c-1.1,1.5-2,4.3-2.7,7c-3.3-0.6-5.2-1-7.6-1.4c-2.1-0.4-3.3-0.2-4.2,0.1c-0.8-0.5-1.6-0.9-2.4-1.4
			c-0.4-0.5-0.7-0.9-1.3-1.6c-3.7-4.1-6.9-3.9-10.6-4.2c-3.7-0.3-6.2,2.8-6.2,2.8c-2.9,3.3-11.5,10.5-15.3,6.2
			c-3.2-3.6-10.1,0.6-17.9,6.5c-3.5-0.9-6.6-3-8.8-7c-46.8,27.5-20.3,15.2-6.1,39.6c2,4.1-2,11.2,1,15.3c3,7.1,13.2,8.1,16.2,14.2
			c2.7,4.9-5.4,14.8-14.3,23.1c-7.4,1.6-12.5,6.6-15.1,8.1c-1.5,0.8-3.6,3-5.5,5c-1.9-1.4-3.5-4.4-5.7-4.4c-5.1,1-14.2,1-14.2,6.1
			c-0.4,3.3,0.7,6.4,2.6,9.4c3.1-0.7,7.7-1.3,8.5,1.6c0.8,3.1,2.1,4.8,0,9.1c-0.3,3.6-0.4,6.2,2.9,9.1c4.8,4.3,8.6,6.9,12.7,5.5
			c1.9-0.7,4.3-1.2,6.1-0.9c1.2,0.9,2,1.8,2.7,2.6c0,0.5,0,1-0.2,1.6c-1.4,5.5-1.9,11.7,2.2,13.9c1.1,0.6,2.1,1.4,2.8,2.3
			c0.1,1.4,0.3,2.8,0.3,4.2c-0.4,0-1-0.1-1.7-0.2c-5.5-1.4-5.5-2.9-8.6,0.3c-2.6,2.6-2.2,5.3,0,8c-3.1,4.9-8,7.9-11.9,11.9
			c-3,6.1,7.1,9.1,8.1,12.2c0,2-5.1,2-5.1,4.1c-0.6,8.3,7.9,17.3,17.6,24.9c3.8,0.8,7.6,1.4,11.5,3.5c5.1,2.7,9.2,5.8,11.9,8
			c5,0.1,10.2-0.8,14.9-0.8c6.1-1,13.2-5.1,18.3-2c0.7,0.5,1.2,1,1.6,1.6c-0.2,1.2-0.5,2.2-0.5,3.4c-0.1,2.3,1.1,3.3,2.6,3.9
			c2.4,0.9,5.5,0.5,5.5,0.5l-7.3,4.8c-1.8,4-4.4,8.3-7.3,12.8c-5.4,0.6-4.7,1.6-5,4.3c-0.3,3.4-2,6.1-6.8,6.8
			c-4,0.6,0.1,13.9,2.8,13.7c0.1,0.3,0.1,0.7,0.1,1c15.2-2,38.3-1,51.5-14.2c8.1-7.1,13.2-23.4,20.3-30.5c3.1-3.1,11.2-2,14.2-6.1
			c3-3.1,0-9.1,2-13.2c2-4.1,28.5-19.3,32.5-19.3c10.2,0,31.5,10.2,36.6,16.3c1,2,4.1,3,6.1,2c2-1-1-6.1,1-6.1
			c8.1,0,33.5,26.4,36.6,28.5c7.1,5.1,13.2,11.2,21.3,13.2c3,1-3-8.1,0-8.1c5.1,0,8.1,6.1,13.2,8.1c1,1,2-2,3-2c3,1,7.1,2,9.1,5.1
			c25.4,23.4,10.2,50.8,31.5,81.3c11.2,17.3,14.2,24.4,11.2,44.7c0,6.1-8.1,15.3-3,17.3c8.1,3.1,18.3-3.1,24.4,2
			c5.1,3.1-4.1,11.2-1,15.2c4.1,6.1,14.2,3.1,19.3,7.1c4.1,3.1,4,9.1,7.1,13.2c2,2,6.1,0,8.1,2c3,3.1,15.2,16.3,9.1,24.4
			c-0.8,0.8-2.7,1.8-4.4,2.7c-0.7,0-1.7-0.1-2,0c-0.6,0.3-0.5,0.6,0,1.4c-1.2,0.8-1.9,1.6-0.7,2c1.2,0.5,2.2,0.6,3.4,1
			c3.6,3.6,7.9,7.1,8.1,2c0-0.1,0-0.2,0-0.3c14,1.4,25-3.4,40.3,9.5c11.2,9.2,11.2,26.4,22.4,35.6c2,1,6.1-2,8.1-1
			c7.1,4.1,14.2,8.1,20.3,13.2c14.2,11.2,0,8.1,12.2,26.4c6.1,7.1,17.3,8.1,24.4,14.2l15.2,21.3c6.1,4.1,24.7,2,31.8,8.1
			c5.4,5.4,5.2,16.3,11.4,20.2l0.4-0.8c6.7-3.8,11.5-10.8,17-9.8c5.5,1,6.2-4.3,9.8-1.9c0.4,0.3,1.5,1.1,2.2,1.6
			c7,0.4,13.1,6.1,19.3,9.6c1.1-0.9,2.9-1.6,6.4-1.4c0.4,0,0.8,0.2,1.3,0.3c-1.6-4.4-4.4-10.1,13.5-3.5
			c10.2,4.1,31.5,36.6,35.6,48.8c1,3.1-2,8.1,1,9.1c1.2,0.2,2.1,0.2,3.2,0.3c-0.1-6.2,2.6-7.3,5.5-6.3c3.1,1.2,4.5,6.2,6.4,3.4
			c1.9-2.9,1.9-10.8,11-4.3c1.6,1.1,2.8,2.4,3.9,3.7c2.8,1.8,4.7,2.9,10.7,7.3c1.5,1,2.1,2.3,2.4,3.7c0.2,0.7-0.1,1.1-0.7,1.2
			c-4.8,0.8-6,7.9-8.1,8.3s-4.5-0.9-5.3,4.3c-0.7,5.3,2.6,3.6,6-0.3c3.3-3.8,10-5.5,12.2-3.1c2.2,2.4,10.1-1.4,10.3-3.6
			c0.2-2.2,5,0.5,7.4,1c0.9,0.2,1.6-0.6,2.4-1.7l0.7,0.2c5.6-2.3,11.7-0.7,20.5,11.3c4.1,6.1,10.2,13.5,11.2,21.7
			c0.1,1,0,2.1-0.2,3.1c-4.8,2.2-6,4.9-3.9,7.6c-2,3-3.9,5.9-3.8,8.7c7.4,0.1,8.3-0.7,11.4,7.3c0.1,0.1,0.3,0.5,0.4,0.7
			c4.2,0.4,8.5,0.5,11.4,2c6.1,3.1,11.2,8.1,15.2,12.2c1,2-1,5.1,0,5.1c1.6-0.1,3-0.4,4.5-0.6c5.7,2.3,11.2,2.8,13-0.4l1.3-2.4
			c1.2-1.8,2.3-3.2,3.5-4c8.1-5.7,22.5-5.3,26.3,10c0.1,0.5,0.1,1.2,0.2,1.7c2,3.4,4,7.6,6.2,13c12.2,30.5-7.1,14.2,11.2,41.7
			c2,2,6.1,2,7.1,4.1c5.1,6.1,9.1,13.2,12.2,21.3c6.1,13.2,2,30.5,10.2,42.7c8.1,11.2,28.5,14.2,11.2,34.6
			c-7.1,10.2-31.5,0-35.6,18.3c-1,6.1,9.1,9.2,10.2,15.3c1,5.1-3,9.1-4.1,14.2c-1,5.1-1,11.2-4.1,15.3c-5.1,5.1-15.2,4.1-19.3,10.2
			c-4.7,7.7,2.4,7.5-1,18c-1.4,4.3,3.2,5.3,3,12.2c-0.1,5.6,8.6,10.4,11.2,11.2c50.8,14.2,35.6-35.2,60-56.6
			c10.2-8.1,20.3-4.1,23.4-19.3c4.1-18.3-13.2-33.5,0-48.8c14.5-16.9,42.9-15.4,54.6-24.6c-1.1-1.1-1.9-2-2-2.6
			c-0.7-5.4,10.1-8.1,1.4-9.8c-8-1.5-7.9-10.8-2.7-22.4c-1.8-1.8-3.2-5.2-3.5-13.8c0-4.1,6.1-8.1,4.1-11.2c-2-4.1-8.1-2-12.2-4.1
			c-11.2-5.1-19.3-17.3-31.5-21.3c-11.2-3.1-14.2,8.1-24.4-4.1c-17.3-22.4,3.1-21.3,7.1-40.7c1-4.1-4.1-7.1-4.1-10.2
			c0-2,25.4-53.2,27.4-56.2c19.3-20.3,30.5,3,50.8,10.2c15.2,5.1,44.7-7.1,53.9,5.1c16.3,21.4,3,40,34.5,52.2
			c6.1,3.1,13.2,6.1,17.3,3c4.1-2,1-22.4,3-27.4c3-9.2,12.2-5.1,8.1-18.3c-10.2-35.6-42.7-32.9-54.9-50.1c-3-3.1,1-10.2-3-13.2
			c-10.2-8.1-43.7-13.2-55.9-18.3c-15.2-5.1-20.3-16.3-33.6-23.4c-37.6-19.3-88.4-17.3-125-41.7c-38.6-26.4,37.6-36.6,12.2-65
			c-9.2-10.2-24.4,1-31.5,2c-32.5,5.1-84.3,14.3-111.8-14.2c-2-2,1-8.1-2-10.2c-5.1-5.1-14.2-6.1-20.3-10.2
			c-18.3-14.2-46.4-34.2-57.6-55.5c-11.2-20.3-30.8-103.3-45.1-115.5c-13.2-11.2-3.5,5.1-17.9-2.7c-14.1-7.7-51.1-43.5-59.3-44
			c-9.4-0.6-18.1-4.2-41-33.2c-3-6.1-16.3-61-14.2-66.1c0.3-0.8,0.9-1.6,1.4-2.4c-0.2-0.3-0.5-0.6-0.7-1c0-5.3,0.2-9.6,1.3-11.5
			l-0.3-0.7c0.9-2.1,1.9-3.9,3.3-3.9c2,0,4.6,4.4,1,5.6c-3.5,1.2-0.7,3.2,2.5,3.5c3.2,0.3,7.6-0.3,10.5-5.7c2.9-5.4,2.4-11.2,5.6-13
			c3.2-1.9,2.9-7.1-0.8-9.1c-3.7-2-6.6-0.7-9.8-4.9c-2.6-3.4-4.3-5.8-6.4-5.6l0.4-1.1c-1.9,0.2-3.8,1.9-4.8,1c-1-2,0-4.1,2-5.1
			c4.1-3.1,0-11.2-2-15.2c-2-2-3.1,5.1-5.1,4.1c-2.9-1.4-1.8-7.7-2.7-11.2c-0.2,0-0.1,0-0.3,0c-4.1,0-8.1,10.6-8.8,0.7
			c-0.8-9.9,5.2-17.9,7.5-12.9c2.1,4.6-3.9,8.4-1,9.5c1.8-2.6,3.6-5.5,4.4-7.8c2-4.1-2-10.2,2-11.2c-0.4-1.2,3-3.6,5.7-5.4
			c5.1-3.3,4.6-6.3,6.1-4.7c1.5,1.5,4.8,1.4,4.1-0.3c-0.8-1.8-0.7-2,2.4-5.1c3-3,9.7,0.9,8.1,3.4c-1.5,2.5-3.1,6.3-5.4,5.1
			c-2.3-1.3-3.8,0.7-10.2,6.8c-1.5,0.3-1.9,0.2-3.1,0.3c2.1,0.7,4.2,1.5,6.4,1c16.3-3.1,29.5-19.3,43.7-25.4
			c6.1-2,11.2,0.3,15.3-3.7c4.1-4.1,3-5.1,8.1-8.1c10-5.3,16.6,3,22.4,2.4c3.5-0.4,10.8-5.6,12.9-7.4c-8-3.2-2.4-15.9,16.9,2.4
			c4.1,5.1,3,8.5,5.1,13.5c29.4,1.8-7.8-23.7-18-29.8c-7.1-4.1,6.8-15.9,4.8-21c-2-5.1-18.3,9.2-14.2-4.1c3-9.2,18.6-15.9,11.5-22
			c-5.1-4.1-25.7,0.3-23.7-11.9c-0.3-11.6,27.5-20,29-34.7c-0.2-0.1-0.4-0.1-0.6-0.3c-35.4-7.5-32.2,4-64.6-6.1
			c-8.5-1.3-15.6-2.8-22.2-4.5c-13.1-2.5-20.7-5.8-31.3-13.1c-2.4-1.5-4.9-3.2-7.4-5.1c-0.5-0.5-1-0.6-1.5-0.5
			c-1.2,0.1-2.5,1-3.4,1.1c-0.4,0-0.8-0.1-1-0.5c0,0-0.1,0-0.1,0c-2-4.1,3-8.1,1-11.2c-2.1-3.2-4.5-4.2-6.8-4.9
			c-0.9-0.2-1.8-0.6-2.7-0.7v0c0.5-1.2,0.9-2.5,0.4-3.4c-1.2-2.4-6.9-9.8-1.2-10.8s7.4-0.5,8.1-5.3c0.2-1.3,0.3-2.1,0.3-2.7
			c0-0.5-0.2-0.8-0.5-1c-0.1,0-0.1-0.1-0.2-0.1C1545.7,1028,1545.1,1027.9,1544.1,1028L1544.1,1028z"/>
		<path class="st1" d="M1679.9,1096.1c0,0.1,0,0.3,0,0.4c0-0.1,0-0.2,0-0.3c0.9,0.4,1.7,0.5,2.6,0.7
			C1681.6,1096.7,1680.8,1096.5,1679.9,1096.1L1679.9,1096.1z"/>
		<path class="st1" d="M1683.2,1097.1c0.2,0,0.3,0.1,0.5,0.1c0,0-0.1-0.1-0.1-0.1C1683.4,1097.1,1683.3,1097.1,1683.2,1097.1
			L1683.2,1097.1z"/>
		<path class="st1" d="M1579.6,1439c0.5,0.1,0.6,1.3,1.4,3.1c1.4,3.6,3.4,7.6-3,10.8c-5.7-3.2-6.7,1.3-7.5-3.4
			c-0.7-4.7,2.5-5.6,6.1-8.5C1578.4,1439.6,1579.1,1438.9,1579.6,1439z"/>
		<path class="st1" d="M1584.7,1715.8c1.1,0,2,1,2,2c0,1.1-0.9,2-2,2s-1.7-0.9-1.7-2S1583.6,1715.8,1584.7,1715.8z"/>
		<path class="st1" d="M1733.8,1862.7c-0.4-0.1-0.7,0-1,0.1c-1.8,1-2,4.9-0.3,7.4c2.2,3.4,9.4,1,10.8-2c1.4-3.1-1.7-2.7-8.1-5.1
			C1734.6,1863,1734.2,1862.8,1733.8,1862.7L1733.8,1862.7z"/>
		<path id="va" class="st2" d="M1584.7,1715.6c-1.1,0-1.7,0.9-1.7,2c0,1.1,0.6,2,1.7,2c1.1,0,2-0.9,2-2
			C1586.7,1716.5,1585.8,1715.6,1584.7,1715.6z"/>
		<path id="pl" class="st2" d="M1980.4-50.2c0,0-50.6,7.6-70.8,18.6c-14,7.7-14.4,15.2-28.1,23.4c-9.2,5.1-19.3,1-26.4,7.1
			c-17.3,15.3-8.1,24.7-17.6,32.2c-15.6,13-46,28.8-72.8,36.9c-8.1,2.5-22.4,11.2-30.5,13.9c-7.2,2.4-16.3,8.1-16.3,8.1
			s-9.4,14-11.2,26.8c-1.9,13.4-5.1,10.1-6.1,15.9c-1.7,10.6,4.4,8.5,5.1,11.2c-0.8,13.5,9.3,10.2,9.5,22.4c0,1.4-2,7.2-6.1,5.1
			c-3.6-1.8,2.3-9.5-8.5-26.4c-5.2-8.1-11.7-1.8-19.6-13.6c-5.8-0.3,2.1,5-2.7,6.1c0.1,0-0.1,0.3,0,0.3c2,16.3,14.2,45.4,16.3,55.6
			c0.8,6.1-0.8,8.6-2.4,14.2c-1.6,5.6-3.2,14.2-7.1,18.6c-3.7,4.2-11.1,8-10.5,13.2c1.4,11.2-4.2,9.1-2.4,13.9
			c2,6.1,11.8,3.9,20.3,11.2c9.2,7.8,21.1,13.8,22.4,21.3c1.7,10,0.2,11.9-1.7,15.9c-1.9,4-5.9,10-1.4,15.6
			c2.8,8.7,10.2,7.1,12.2,13.2c3,5.1-1,12.2,0,17.3c1,3.1,5.1,2,6.1,4.1c-3.8,15.3,3.9,16-10.2,30.5c-3,4.6,2.8,3.9,3.7,8.8
			c1,5.7,6,11.2,8.5,14.6c7.3,8.4-5.1,11.2-2,15.2c4.1,6.1,13.2,4.1,17.3,8.1c9.2,6,6.3,12.8,10.2,20.7c6.7,13.6,2.2,19.6-0.7,29.1
			c-3.1,10-5,18-6.4,24.4c-0.4,2.9-1.1,4.1-2,7.5c31.3,5.2-4.1-25.7,24.4-20.7c18.3,2,3,10.2,14.2,18.3
			c16.3,13.2,29.5,4.1,42.7,12.2c4.1,3.1,3,8.1,5.1,11.2c2,1,3-2,4.1-2c3-1,6.1-3.1,7.1-1c3,3.1,0,8.1,3,11.2
			c0,0,22.4-12.2,27.4-9.1c27.4,13.2-11.2,18.3-9.1,31.5l23.4,14.2c3,4.1,9.1,30.5,24.4,24.4c4.1-2,3-9.1,6.1-12.2
			c5.1-4.1,15.2-2,18.3-8.1c1-2-21.3-24.4-15.2-25.4c15.2-2,32.5,13.2,41.7,16.3c4.1,1,9.1-1,13.2-1c4.1,0,9.1,2,13.2,0
			c2-1,1-5.1,2-7.1c1-1,3-1,3,0c12.2,24.4,4.1,9.1-9.1,21.3c-4.1,3.1,10.2,4.1,14.2,7.1c3,3.1,2,8.1,5.1,11.2c2,2,5.1,3,7.1,3
			c29.5-3.1-4.1-5.1,13.2-12.2c2-1,2,3,4.1,4.1c4.1,3.1,15.2,6.1,20.3,7.1c6.1,2,15.2-1,20.3,3c1,1,10.2,25.4,11.2,26.4
			c4.1,3.1,12.2,0,16.3,4.1c4.1,5.1,1,14.6,5.1,19.6c0.5,0.8,1.4,1,2.4,1c2,0,4.5-1,6.8-1c1.1,0,2.3,0.3,3,1c0.8,0.8,1,1.9,1,3
			c0,2.3-1,4.8-1,7.1c0,1.1,0.3,2.3,1,3c16.3,13.2,29.5-39,39.6-31.8c6.1,4.1,6.1,13.5,11.2,18.6c0.3,0.3,0.8,0.1,1.4,0
			c0.5-0.1,1.1-0.4,1.7-0.7c1.3-0.5,2.5-0.8,3-0.3c1,2-3,6.1-1,7.1c5.1,1,10.2-4.1,14.2-2c7.1,3.1,1,22.4,1,24.4
			c0,5.1,9.1-3,14.2-4.1c4.1-1,8.1,7.1,12.2,5.1c0.3-0.3,1.2-2.3,2.7-5.4s3.6-7.3,6.1-11.5c1.2-2.1,2.6-4.4,4.1-6.4
			c1.4-2,2.8-3.7,4.4-5.4c1.6-1.7,3.4-3.2,5.1-4.4c1.7-1.2,3.3-2,5.1-2.4c4.1-1,8.5,3,12.5,3c4.1-1,6.1-7.1,10.2-6.1
			c8.1,1,13.2,12.2,21.3,12.2c6.1,0,11.2-6.1,14.2-11.2c1-2-5.1-2-5.1-4.1c3-14.2,9.1,0,13.2-2c0.8-0.3,1.2-0.9,1.7-1.7
			c1-1.5,1.8-3.5,2.7-4.7c0.2-0.3,0.4-0.5,0.7-0.7c0.3-0.2,0.6-0.3,1-0.3c3.8-1,8.6-1.7,14.2-2c4.2-0.2,8.6-0.2,13.2,0
			c0.7,0,1.4,0.3,2,0.3c4,0.3,8,0.7,11.9,1.4c2.2,0.4,4.4,0.8,6.4,1.4c2,0.5,3.9,1,5.8,1.7c1.2,0.4,2.6,0.9,3.7,1.4
			c0.5,0.2,0.9,0.5,1.4,0.7c1.6,0.8,3.1,1.7,4.4,2.7c1.5,1.5,2.1,4,2.7,6.4c0.3,1.2,0.5,2.4,1,3.4c0.5,1,1.4,1.9,2.4,2.4
			c6.1,4.1,13.2,4.1,20.3,6.1c9.1,3.1,11.8,3.7,21,4.7c1.9,0.5,3.6,0.8,5.2,1.2c3.7,1.9,7.6,0.8,10.7,1.9c5.1,0,6.8-2.4,11.9-1.4
			c1.5,0.7,4.2,3.3,5.1,4.1c-9.8-23.3-10-2.7-18-20c-4.1-4.1,2.7-7.8,1.7-12.9c-3-10.2-13.5-22.7-15.6-33.9c-0.1-0.7,0-1.7,0.3-3
			c1-4.1,4-10.9,8.1-19.3c2.8-5.6,5.9-11.9,9.5-18.6c18.1-33.5,44.1-76.6,50.1-86.7c18.3-15.3,23,4.4,26.1-32.2
			c0-8.1-15.2-23.7-16.3-24.7c-2.5-5.1,1.4-6.6,5.4-7.5c2-0.4,4-0.7,5.4-1c1.4-0.3,2.1-0.6,1.4-1.4c-16.3-12.2-44-35.2-53.2-54.5
			c-1-2.5-1.1-5-1-7.8c0-1.4,0.1-3,0-4.4s-0.2-2.9-0.7-4.4c0.1-3.1-11.2-15.9-11.2-15.9v-0.3c-0.3,0-0.7,0-1,0
			c-7.1-16,12.1-48.1,3.4-66.7c0-0.1,0-0.3,0-0.3c-0.7-1.3-1.4-2.2-2.4-3.4c-0.9-1.2-2.1-2.4-3.4-3.4c-8.1-6.1-18.3-9.1-27.4-10.2
			c-1-0.5-2,0.3-3,1.4c-0.1,0.1,0.1,0.3,0,0.3c-0.3,0.3-0.7,0.4-1,0.7c-0.2,0.2-0.5,0.2-0.7,0.3c-0.4,0.2-0.9,0.5-1.4,0.3
			c-29.5-11.2,34.5-65,41.7-72.2c0.5-0.5,1.4-1.1,2-2c0.3-0.4,0.5-1.2,0.7-1.7c0.2-0.5,0.3-0.8,0.3-1.4c-0.6-10.5-2.7-20.8-5.8-30.8
			c-1-3.3-2.2-6.5-3.4-9.8c-4.9-13.1-11.4-26-18.3-38.6c0-0.1,0-0.3,0-0.3c-13.8-25.5-29.5-50.3-38.6-76.2c-6.1-4.1,0-15.2-6.1-23.4
			c-18.3-26.4-7.1-4.1-35.6-16.3c-10.2-4.1-3-17.3-18.3-12.2c-3.1,1-3,6.1-6.1,8.1c-42.6,25-166.1,25.6-231,20
			c-2,1.8-5.1,7.7-7.5,10.5c-5.8,6.9-10.2,5.8-15.2,10.2c-1,1.7-2.7,3.1-6.1,4.1c-3.4,1-8.7,1.7-10.5,2.7c0.8-6.4-3.9-5.8-2.3-8.2
			c1.5-2.4,15.8-7,20.3-10.2c4.4-3.1,11.5-9.2,11.5-9.2l-4.5-2.8c0,0-7.4,5.1-10.4,7.3c-24.4,12.5-30.5,20.3-55.2,13.6
			c-20.3-8.1-5.8-11.2-23.7-31.8c-2-3.1-2-8.8,1.7-11.5c3.7-2.4,23.4,8.5,28.1,9.5c-1.4-7.3-10.4-14.7-34.5-15.9
			C1982.8-44.7,1980.4-50.2,1980.4-50.2L1980.4-50.2z M1715.5,89.4c-0.2-0.3-1.1,0.3-3.7,1.7c-5.3,2.9-15,8.1-16.9,9.8
			c-1.9,1.7-3.1,6.1-8.1,6.8c-5,0.7-7.7-0.7-9.8-0.7c-2.2,0-3.4-0.3-3.4-0.3c0.1,0.1,0,0.3,0,0.3l-2.4,1.7l1,1.7l0.3,0.7v1.7
			l0.3,2.4c0,0-0.3,0-0.3,0v0.3c0,0,2.7,3,5.1,4.4c2.4,1.4,4.8,4.3,5.1,2.4c0.2-1.9,0.7-4.7,2.4-4.7c1.7,0,3.9,0.4,3.4-1
			c-0.5-1.4-2-1.1-2.7-3c-0.7-1.9-0.9-2.9,1-2.7c1.9,0.2-0.1,3.4,3,3.4s5.6,0.7,7.8,0.7c2.2,0,5.8,0.8,4.4,2.7
			c-1.4,1.9-0.7,0.9,0,2.4c0.1,0.2,0.3,0.3,0.3,0.3c0.1-0.5,0.4-1.6,1.4-2c1.9-1,1.3,0.9,1-2.7c-0.2-3.6,0-4.9,2.4-7.8
			c2.4-2.9,2.7-3.1,2.7-7.5c0-4.3-3.4-4.3,0.7-5.8c4.1-1.4,5.3-1.4,5.1-3C1715.4,90.6,1715.7,89.7,1715.5,89.4L1715.5,89.4z"/>
		<path id="path5816" class="st2" d="M1215.6-33.4c-0.2-0.1-0.4,0.1-0.7,0.3c-0.4,0.3-1.1,1.2-1.7,2.4c-2.4,4.8-5.3,8.3-9.1,29.8
			c-0.2,5,2.1,8.5,2.4,5.4c0.2-3.1,1.3-11,2.2-13.4c1-2.4,2.1-1.9,4.7,0c2.6,1.9,2.9-0.2,8-1.9c5-1.7,6-3.7,4.1-3.7
			c-1.9,0-7.3,1.5-11.9,0.3c-4.6-1.2-1.1-7.6-0.3-12.2c0.6-3.7,4.3-4.6,4.7-5.1C1216.9-31.6,1216.3-33.1,1215.6-33.4z M1232.9-14.1
			c0,7.1,1,15.2,4.1,22.4c1.2,2.3,8.9,11.3,15.6,19.3c-2.6,7.4-1.1,7.7-4.7,9.8c-3.6,2.2-2.9,8.7,3,6.8c5.1-1.6,6.6-3.2,9.1-7.4
			c1,1.3,2.4,3.1,2.4,3.4c-3.3,13.9-19.1,8.5-30.5,13.2c0.8,0.9,8.7,2,5.1,6.1c-1,2-9.2-1.4-8.1,0.7c0.8,6.7,1.1,11.6,18.3,7.8
			c2.8,2.9,2.4,3.6,3.7,2.7c1.3-0.8,3.6-3.6,5.8-6.4c0.6,0.1,1.4,0,1.7,0.3c-7.4,8.6-12.4,9.7-11.2,23.7c1.7,1,2.8,1,4.4,0.7
			c3.1-0.7,4.1,1.7,6.8,6.8c2.6,5,1.4,7-3.4,5.8c-4.3-1.1-4.9-1.5-7.1,0c1.2,4.6,2.8,8.7,4.4,11.9c-2,14.2,21,8.5,24,8.5
			c18.5,2,13.7,18.9,25.4,23.4c3.2,7.5-1.7,15.2,26.8,22.4c-28-4.2-26.1-11.2-31.2-19.3c-10-8.3-8.8-19-15.9-22
			c-9.2-4.1-20,4.4-30.2,2.4c-4.1,0-9.1,0-12.2-2c-3-1-3.5-8.4-5.1-7.1c-21.5,17.7-14.7,33.1-10.2,47.1c-14-3.5-19.6-18.1-24.4-6.1
			c-6.4,15.8,9.2,1.6,3.4,20.7c-1,3.5-5.8,6-10.8-2.7c-1.5,0-6.5-1.2-6.1-4.7c0.4-3.5,8.7-5.7,4.7-12.5c-5.1-8.8-8.1-11-7.5-16.3
			c-1-1-4.1-2-5.1-2c-21.1-0.7-24.7,1.7-34.9,4.7c-5.3-1.4-18.6-2.7-23.7,0.3c-2.9,1.5-7.6,6-11.5,11.9c3.5,3.5,5.5,4.9,3.7,5.1
			c-2.4,0.2-3.8,0.5-3,2.4c0.6,1.6-0.9,0.5-4.1-1.4c-5.1,9.2-8.3,19.5-4.1,24.7c4.1,0.6,11,2.4,16.6,2.4c0.7,2,5.4,4.5,2,10.8
			c0.9,7.3-1.8,17.3-5.2,26.9c0.2,1.8,0.1,3.6-0.5,5.6c-1.4,4.5-3.1,11.5-7.4,16.7c-3,3.6-4.1,9.4-5,14.7c0.3,8.1,2.9,17.4-3.3,17.4
			c-7.1,0-13.2-3.1-20.3-3.1c-2,0-5.1,0-5.1,2c-1,3.1,4.1,6.1,3,9.1c0,2-5.1-1-6.1,2c-2.1,3.5-1.6,5.8,0.3,7.6l-0.8,1.7l20.7,8.2
			l1.4-2.3c0.1,0.1,0.3,0.1,0.5,0.1l1.9-2.2c0,0,1,2.4,1.6,3.9c2.3,1.5,3.8,3.5,4,6.2c1.3,7.9,0.1,13.5-2.3,18.2
			c0.4,1.2-0.1,2.2-1.4,2.7c-3,4.2-7.4,7.4-12.2,10.4c-0.5,0.9-1.2,1.9-1.3,2.5c-0.3,0.9-2.5,1.2-4.7,1.2c-2,1.1-3.9,2.3-5.9,3.6
			c0,0.1,0,0.1-0.1,0.1c-1.9,3.2-7.4,3.2,0.8,8.8c3.7,2.5,5.2,3.8,5.7,5c0,0,0.1,0.1,0.1,0.1v0c0.1,0.3,0.1,0.7,0,1
			c0,0.4,0.2,0.9,0,1.4c-0.5,1.1-1.7,2.3-3.2,3.4c-2.5,3-5.5,5.3-5.5,5.3l-1.1-1.3c-9.6,4.7-23.1,8.5-27.8,7.9
			c-7.1,0-11.2-7.1-17.3-9.1c-2-1,2,5.1,0,6.1c-6.1,2-12.2-1-17.3,2c-1.2,0.6-1,2-0.6,3.4l2.7,4.8l-3.4,3.4l6.4,2.9
			c0,0-0.5,1-0.7,4.6c-0.2,3.5,6.4,5.7,6.4,5.7l-1.1,4.2c6.9,9.3,13,20.5,7.4,34.1c-3,7.1-10.2,12.2-13.2,19.3
			c-4.1,8.1,9.2,2,8.1,7.1l-19.3,17.3c-2,0,0.7-4.5-2.3-3.5c-9.1,15,15.8,4.9,12.5,25.9c-1,4.1-8.1,4.1-9.1,8.1
			c-0.2,0.7,0.9,2.9,1.9,5c1.7,1.9,3.3,4.6,4.8,4.7c5.2,0.5,3.2,1.5,5.9,6.6c2.7,5.1,5.9,6.3,9.5,6.8c3.5,0.5,3,3-1.2,6.8
			c-4.2,3.7-4.4,8.5-1.9,10.6c2.5,2.2,8.6,0,11.5,5.2c2.9,5.2-1.7,12.3,1.2,15.2c2.9,2.9,1.7,7.6-1.9,7.3c-3.5-0.3-5.2-0.2-5.4,2.2
			c-0.2,2.4-3.4,4.2-7.8,6.3c-2.2,1-2.1,2.9-1.7,4.6c0.4,1.8,1.1,3.4,0,4c-1.5,0.9-4.6,2.9-6.7,4.2c0.2,0.3-0.1,0.3,0.2,0.7
			c2.1,2.5,1,3.1-0.9,4.6c-1.9,1.4,0.3,6.8,0.4,7.1c0.4,3.5,0.8,11.2,3.6,10.1c2.7-1.1,2.7,1.4,4.1,6c1.3,4.5,4.5,4.2,6.2,7.9
			c1.7,3.7,3.1-1.3,5.4,1.9c2.3,3.2,0.7,4.7,5,4.1c4.3-0.6,5.3-1,5,2.9c-0.1,1.9,0.2,4.3-0.1,6.6c-0.3,2.3-1.1,4.4-3.5,5.7
			c-4.8,2.7-2.1,5.3-4.1,7.6c-1.9,2.4-0.6,5.1-3.5,6.9c-2.9,1.8-3,6.9-1.6,11c0.7,2.1-1.3,3.1-2.9,5.1c0.6,0.7,0.7,1.1,1.4,1.8
			c0.1,0.2,0.2,0.4,0.3,0.6c2,3.1,8.1,0,11.2,3.1c8.1,5.1,13.2,28.4,23.4,38.6c12.2,13.2-8.1-28.5,22.4-1c2,2-2,6.1-1,9.1
			c2,3.1,34.6-10.2,39.6-6.1c3,3.1,1,9.1,4.1,12.2c4.1,3.1,65,10.2,61,17.3c-11.2,19.3-31.5,31.5-39.6,47.8
			c-3.1,7.1-4.1,29.5-5.1,35.6l-14.2,23.4c-2,5.1-4.1,10.2-3,15.2c0,0.1,0.1,0.1,0.1,0.1c5.8,5.6,9.5,7.8,8.2,9.9
			c-1.3,2.2-4.8,6.1-4.8,8.8c0,2.7-3.6,4.3-1.8,7.1c1.8,2.7-5.5,6.3-4.1,9.3c1.4,3,2.3,6.7,0,8.4c-2.3,1.7-2.3,1.3-1.9,5.3
			c0.4,3.9,4.9,6.3,4.9,7.1c0,0.4,0.5,1.3,1,2.9l0.7,3c0.1,0.4,0.1,1,0.2,1.5c0.1,0,0.2,0.1,0.2,0.1l4.6-4.5l4.9,0.1l-2.3,0.9
			l1.5,2.9l-3.7,1.4l-0.1,0.4c0.2,0,0.4,0.1,0.6,0.1c0.2,1,1.9,1.5,5.5,1.7c2.7,0.1,4.7-1,6.2-2.4c3.8-0.5,6.8-1,10.8-1.6
			c1.1,2.8,2.7,5.3,4.9,4.7c4.7-1.4,10.1,0.3,16.9-5.4c1.3-1.1,2.3-2.4,3.2-3.6c1.9,0,2.6,0.2,4.1,0.2c0.9,2.7,2.8,7.2,6.2,6.7
			c4.6-0.7,3.5-1.2,6.5,0c3,1.2,5.3-0.2,6.5-1.2c1.2-1-4.7-0.5-2.5-2.8c2.2-2.3,5.7-4.7,7.3-3.8c1.6,0.9,4.1,2.3,2.6,3.5
			c-1.5,1.3,4.4,1,3.2-1.4c-1.2-2.4-3-1.8-0.3-4.1c2.6-2.3,4.1-2.5,0.3-2.9c-3.8-0.3-3.9-0.1-5.5,1.9c-1.6,1.9-6.3,1.5-7.1,0.8
			c-0.8-0.8-7.2-1.9-4-6.2c3.2-4.3,4.2-10.3,7.4-11.1c0.2-0.1,0.2-0.1,0.5-0.1c3.2-0.5,7.8,0.7,6.6-1.1c-1.3-1.9-1-5.2,1.8-2.6
			c2.8,2.6,1,7,3.6,6.4c2.6-0.6-0.7-4.5,2-5.6c2.7-1.1,2.7,6.5,4.8,5.4c2.1-1.1,1.6-0.8,3,1.1c1.4,1.9-1.9,2-0.3,3.9
			c1.5,1.9-2.7,0.8-2.5,2.9c0.3,2.1,3.5,0,4.7,1.9c1.2,1.9,3.5,2.2,2.9,0.8c-0.7-1.4,1.8-1.4,0.1-3.1c-1.7-1.8-1.6-1.5-0.6-3
			c1-1.4,2.1,0.3,3.9,1.4c1.8,1,1,1.4,3.1,1.4c1.7,0,0.3,0.5-1.1,2.6c1.1,1.6,0.9,3.4,3.8,4.8c0,0,33.5-2,34.5-2
			c11.2,3.1,18.3,14.2,29.5,18.3c16.3,5.1,15.2-13.2,20.3-9.1c2,2,0,7.1,2,9.1c4.1,1,8.1-4.1,11.2-2c4.1,2,6.1,7.1,10.2,10.2
			c5.1,4.1-2,8.1,0,11.2c1,2,4.1,3,6.1,3c2,0,5.1-4.1,6.1-3c3,4.1-8.1,10.2-4.1,14.2c7.1,7.1,26.4-16.3,26.4-20.3
			c1.6-5.7-0.6-15.4,1-18c9,7.5,35.6-7.1,39.6,5.7c1,2-5.1,1-4.1,3.1c1,2,6.1,2,7.1,4.1c2,2,0,7.1,2,9.1c4.1,2,38.6-7.1,39.6-8.1
			c2-2-2-7.1,1-8.1c4.1-3.1,9.1,2,13.2-1c4.1-2,2-9.1,6.1-11.2c13.2-5.1,36.6,1,50.8-3c3-1-8.1-17.3,4.1-18.3c2,0-2,6.1,0,7.1
			c5.1,2,11.2-3.1,17.3-1c3,1,2,8.1,6.1,9.1c8.1,1,15.2-6.1,23.4-6.1c15.2,1-10.2,17.3,22.4,26.4c2,0,4.1-3.1,4.1-5.1
			c9.1-33.6-2-18.3-13.2-28.5c-5.1-4.1,9.2-16.2,8.1-17.3c0-1-24.4-34.6-24.4-34.6c1-16.3,44-26.4,53.2-33.5
			c10.2-8.1,4.1-19.3,6.1-29.5c1-2,3-3,5.1-3c21.3,5.1,27.4,11.2,28.5-16.3c1-26.4-43-41.7-59.3-52.8c-7.1-6.1-8.1-17.3-15.3-24.4
			c-7.7-7.7-17.2,0.1-23.4-4.8c-1.8-1.4,2.5-3.6,1.7-5.1c-2.9-5.7-6.4-6.5-10.8-6.8c-10.6-27.2-10.1-34.1-24.4-43.4
			c2-11.2,15.2-6.1,12.2-20.3c-1-6.1-8.1-7.5-10.2-8.5c-7.2-4.7-13.8-12-19-19.3c0-2.3-0.1-4.5,0-6.1c0.4-4-3.6-5.6-6.1-7.5
			c-2.6-1.8-3-2.9-3.4-4.1c0.5-0.4,1.6-0.9,2.4-1.4c2.7-1.7-3.5-4.6-0.3-6.8c4.1-2.8,7.2,3.5,10.2,7.5c4.1,3.1,4.1,17.3,6.1,13.2
			c8.1-16.3,12.2-35.6,37.6-39.6c3,0,14.2,9.1,18.3,4.1c3.1-3.1,0-9.1,3.1-11.2c3.1-3.1,9.1,2,12.2-1c6.1-4.1,7.4-16.2,16.6-18.3
			c3.1-1,5.1,6.1,7.1,4.1c5.1-4.1,3.1-12.2,8.1-16.3c6.1-5.1,17.3,1,25.4-3c2-1,0-6.1,2-7.1c12.2-7.1,29.5-8.1,41.7-18.3
			c4.1-3.1-14.2-7.1-12.2-12.2c1.7-4.8,3.4-9.6,5.7-8.8c3.2,1.1,4.6,4.9,6.9,4.8c2.2-0.1,2.6-1.6,3.7-1.7c0.8-0.1,1.3,1,1.9,1.6
			c0.8,0.1,1.5,0.1,2.4,0.3c8.3,1.9,8.4,2.7,7.6,6.4c-0.8,3.7-0.5,5.2,0.5,5.5c1,0.3,2.1-1,3.4-1.7c3.8-2.1,2.5,2,0.3,6.1
			c0.2,0.2,0.5,0.5,0.7,0.7c-1,4.8,3,5.8,6.8,6.4c2,1.3,4,2.1,5.8,1.7c6.1-1,6.1-15.2,13.5-39.6c2.9-9.5,7.3-15.5,0.7-29.1
			c-3.8-7.9-1-14.7-10.2-20.7c-4.1-4.1-13.2-2-17.3-8.1c-3-4.1,9.4-6.8,2-15.2c-2.5-3.4-7.4-8.9-8.5-14.6c-0.9-4.9-6.8-4.2-3.7-8.8
			c14.1-14.5,6.4-15.2,10.2-30.5c-1-2-5.1-1-6.1-4.1c-1-5.1,3.1-12.2,0-17.3c-2-6.1-9.4-4.5-12.2-13.2c-4.6-5.6-0.6-11.6,1.4-15.6
			c1.9-4,3.4-5.9,1.7-15.9c-1.3-7.5-13.2-13.5-22.4-21.3c-8.5-7.2-18.3-5.1-20.3-11.2c-1.8-4.8,3.7-2.7,2.4-13.9
			c-0.6-5.2,6.8-9,10.5-13.2c3.9-4.4,5.5-13.1,7.1-18.6c1.6-5.6,3.1-8.1,2.4-14.2c-2-10.2-14.2-39.3-16.2-55.5
			c-2,0.1,1.7-6.5-1.4-7.5c-3.1-1-9.2,4.3-15.6,0.7c-8.1-4.8-12.7-8.3-15.2-10.8c0.9-0.2,2.2-0.7,2.7-0.7c2.6,0,1.5-4.3,2.7-3.1
			c1.2,1.2-1.8,2.5,0.3,2.7c2.2,0.2,4.4-3,6.8-4.4s3.1,0.5,7.5,0c4.3-0.5,6.8,0.3,6.8,0.3l-0.7-4.7l-1-1.7l2.4-1.7
			c0,0,0.5-0.1-3.4-2.7c-3.8-2.6-3.6-3.4-10.5-9.8c-6.9-6.5-8.1-5.1-6.4-2.7c1.7,2.4,4.4,4.8,5.1,8.1c0.7,3.4-0.4,5.8-1.4,4.4
			c-1-1.4-3-2.4-3-2.4s-0.6-2.1-2.7-2.4c-2.2-0.2-4.6,2.1-2.7,4.1c1.9,1.9,2.5,7.4,1,10.5c-0.6,1.2-3.2,2.2-6.1,2.7
			c-2.2-6.4,13.8-5.7-6.4-19.3c-7.2-4.9,16.9-6.8,10.2-9.1c-8.6-14.8-13.8-13.7-12.5-7.8c-8.1-2-20.3,1.7-21.7,8.1
			c-4.4-8.3-12.2-13.2-18.3-18.3c-3-4.1-10.2-2-13.2-6.1c-4.1-6.1,0-20.3-7.1-20.3c-0.5,0-1-0.1-1.4-0.3c-0.1,0.2-0.2,0.6-0.3,0.7
			c-2.6,2.5-2.1,1-5.1,2.7c-3,1.7-2.4,3.2-3,6.1c-0.6,2.9-4.6,2.6-4.8,0.7c-0.1-1.9-0.9-2.9-2.7-2.7c-1.8,0.2-4.6,0.1-6.1-2
			c-1.4-2.2-0.3-1.8-2,0c-1.8,1.8-3.5,3.1-6.4,5.4c-2.9,2.3-2.7-3.6-4.1-1.4c-1.3,2.3-0.1,3.8-2.7,4.8c-2.6,1-1.9,2.5-2.4,4.4
			c-0.5,1.9-2.9,0.4-4.7,3.4c-0.1,1.4,1.2,2.9,4.1,3.7c2.9,0.8-1.5,0.7-5.1-0.3c-3.6-1.1-0.7-1.9-2-4.4c-1.3-2.5,0.4-2.1,2-4.4
			c1.7-2.3,1.2-0.8,1.4-3.7c0.1-2.9-0.1-2.6,2-4.1c2.2-1.4,5.1-0.3,9.1-1.7c4.1-1.4,0.4-0.4,2.7-2.4c2.3-1.9,2.7-0.9,5.1-1
			c2.4-0.1,1.7-1.4,4.1-1.4s3.8,0.7,6.8,0c3-0.7,4.8-0.8,8.5-1c0.8-0.1,1.3-1.2,2-2.7c-0.5,0-1-0.1-1.7,0
			c-12.9-0.5-30.8-5.4-32.9-3.4c-6.1,7.1-7.1,18.3-13.2,25.4c-6,4.7-8.3,6.7-14.9,13.6c-1,1-16.9,6.6-21,7.1
			c-10.1,1.2-12.5-0.2-15.9,0.7c-9.2,5.1-12.2,30.5-17.3,33.5c-11.1-14.5-8.1,5.9-21.3-15.3c-8.1,0-13.9,8.8-22,7.8
			c-1.9-1.8,2.7-6.5-7.8-6.1c-3.8,0.1-2.7-9.4,3.4-10.5c7.9-1.4,13-9.5,20-15.6c-0.4-14.7-2.4-20.3,1.7-26.1c-4.2,0.3-5,2.7-9.8,1
			c-4.9-1.7-16.2,9.9-17.6,10.5c-7.5-2.3-28.8-18.3-34.9-17.3c-7.1,1-14.2,16.6-14.2,16.6c0,0,5.1-13.2,4.1-19.3
			c-1-9.2-18.9,1.7-26.4,0.3c-5.5-7.2,7.3,2.2,13.2-11.5c2-5.1,3.1-11.2,0-16.2c-1-2-6.1,2-7.1,0c-2-1,2-3.4,4.1-4.4c0,0,2,1,2,0
			c0-3.1-1-7.1-4.1-9.1c-2.5-1.5-3.6-2.4-8.5,0c-3-4.6-7.4-7.3-11.5-6.8c-5.5-1.6-7.3-3.8-9.5-6.4c-4.1,1-6.1,6.1-10.2,9.1
			c-2,1-2,0-1-3c-13.2-2-26.4-9.1-39.6-11.2C1252.2-14.1,1240-13,1232.9-14.1z M1226.1,3.9c-6,0.2-13.8,3.6-9.5,7.4
			c6.7,2.9,9.2,4.3,11.9,0.7C1231.1,8.4,1232.1,3.7,1226.1,3.9z M1603.1,9c-4.8,0.7-9.2,0-11.9,4.1c-2.6,4.1-3,7-0.3,4.1
			c2.6-2.9,6.5-2.9,3.4,4.1c-3.1,6.9-1.1,4.9,2,2.7c3.1-2.2,3.3-2.6,4.1-4.1c0.7-1.4,1-0.1,3.4,2c2.4,2.2,3.7,3.8,6.1,4.1
			c2.4,0.2,2.4-0.5,2.4,4.1c0,4.6,0.6,4.5-2,5.4c-2.6,1-3.6,0.8-4.1-2s1-2.4-0.7-4.1c-1.7-1.7,0.4-1.8-2-0.3c-2.4,1.4-3,1.7-2-3
			c1-4.8-0.5-4.4-3.4-1c-2.9,3.4-0.8,2.2-1,4.4c-0.2,2.2,0.1,0.3-2-1.4c-2.2-1.7-6.1,0.2-8.5,0c-2.4-0.2-0.3,0.9-0.3,3
			s1.7,1.7,3.4,1.7c1.7,0,2.7-0.1,2,1.4c-0.7,1.4-0.9,1.2,1,1.7c1.9,0.5,3.1-1.3,0.7,1.4c-2.4,2.6-5.1,3.7-6.8,5.4
			c-1.7,1.7,0.5,2,2.7,2c2.2,0,1.5,0.3,2.7,2.7c1.2,2.4,3.3,4.1-1,4.1c-4.3,0-6.4-1.7-7.1,1.7s1,5.1,2.7,6.8
			c8.4,7.2,9.7,7.4,11.9,6.4c2.2-1,0.7-1.2,1.7,0.7c1,1.9,3.6,4.5,6.4,3c2.9-1.4-3.6-5.4,0.7-9.5c4.3-4.1,10.8-8.7,15.6-7.5
			c4.8,1.2,6.7,4,4.1,6.1c-2.6,2.2,3.9,5.6,5.1,0.3c1.2-5.3,2.9-5-1.7-9.8c-4.6-4.8-8.9-1.6-11.5-10.5c-2.6-8.9,6-4,6.8-11.2
			c0.7-7.2-3.7-7.3-10.8-6.1c-7.2,1.2-11.6,1-11.9-4.1c-0.2-5,0.2-3.3,2.4-4.8C1607.3,11.6,1607.9,8.3,1603.1,9z M1237.6,30.7
			c-1.2-0.1-3.9,0.9-7.5,2.7c-2.2,1.4-2,1.5,0.7,5.1c2.6,3.6,4.6,0.6,6.8-4.4C1238.7,31.5,1238.8,30.7,1237.6,30.7z M1423.9,34
			c-5.9,1.3-6.9,10.1-6.1,11.5c1,1.7,1.7,1,2.7,1.7c4.6-1.7,4.7-2.1,4.4,1c-0.2,3.1,1.7,7,5.1,4.4c3.4-2.6,5.3-2.6,8.1-1.7
			c2.9,1,6,2.5,2.4-3.7c-3.6-6.2-5.5-12-13.9-13.2C1425.6,33.9,1424.7,33.8,1423.9,34z M1587.8,35.1c-1.8,0.2-3.5,2.2-4.8,4.7
			c-1.7,3.4,2.2,1,7.5-1.4c0.5-1,1.4-1-1-2.7C1588.9,35.3,1588.4,35,1587.8,35.1z M1458.8,101.5c-0.2-0.1-0.8,0.1-1.7,0.3
			c-3.6,1.1-11.2,2.7-8.8,6.8c2.4,4.1,3.7,4.4,4.1,1c0.4-3.4,1.3-4.4,1-1.7c-0.2,2.8-0.3,8.7,2.7-0.7
			C1457.6,103.9,1459.5,101.8,1458.8,101.5z M1156.4,134.2c-0.9,0.1-1.2,0.5-1.2,1.3c0,1.7,2.1,0.5,4.8,0.7c5-1.2,6.5-1.7,1.4-1.9
			C1158.8,134.2,1157.3,134.1,1156.4,134.2z M1141.9,136.3c-3.4,0.2-3.3-0.5-4.5,2.2c-1.2,2.6,2.9,3.1,3.4,1.7
			c0.5-1.4-1.2-1.9,5.7-1.7C1153.5,138.7,1150.8,136.3,1141.9,136.3z M1118.7,139.4c-12,0-5.8,3.6,1,2.9
			C1127.8,141.3,1130.7,139.4,1118.7,139.4z M1102.7,144.9c-2.7-0.1-6.2,0-10.3,0.3c-7.2,1.2,0.5,1.4,11.7,1.2
			C1112.5,146.1,1110.9,145,1102.7,144.9z M1084,152.4c-2-0.1-5.6,0.3-10.1,1.4c-2.2,1.4,0.5,4.1,4.1,5.3c3.6,1.2,2.6-2.6,6.5-4.8
			C1086.4,153.1,1086,152.5,1084,152.4z"/>
		<path class="st2" d="M1923.4,1074.9c-2-0.7-12.8,7.2-12.3,9.5c0.9,4,3,6.8,4.3,10.1c2.3,0.6,2.7,2.6,2.4,4.7c0,0-1.4,0.2-3.4,0
			s-3-1-3-1c-0.5,2.7-3.9,1.7-4.7,1c-1.6-1.7-1.9-3.3-4.1-2.4c-2.2,1-7.2,0.6-7.9,2.2c-0.7,1.6,3.8,5.4,2.5,6.3
			c-22.8,17.1-21.6,10.6-23.8,12.9c-2.4,2.5,1.2,3.5-3.3,8.1c-1-0.7,0.1-1.7-2-1.7c-2.2,0-5.8-1-7.5,0c-1.7,3.8-3.1,7.1-5.1,10.8
			c-0.5,0.4,1.6,0.3,1.4,2.4c1.2,6.5,5.6,6.7,10.8,9.5c0.7,1.2-0.7,4.5-0.7,6.4c1.2,4.9,0,8.6-0.7,13.2c-0.2,0.5-1.7,3-0.3,4.4
			c1.3,1.4,4.8,2.9,2.4,3.4c-2.4,0.5-4.7,2-5.1,3c-1.5-1.1-7.6-2.6-7.8-2.7c-0.2,1.7-1.9,0.7-1.9,0.7s-1.6,4.6-3.2,3.7
			c-1.6-0.8-2.8-0.6-3.4,0.7c-0.6,1.3,1.5,2.9,0.3,3c-1.2,0.1-4-0.4-9.5,2.7c-5.5,3.1-7.8,5.9-8.8,7.1c1.1,5.2,1.8,4.3,5,7
			c0-8.1,5.9-1.3,8.6,3.5c-2.4,3.8-4.3-1.1-5.4,0.3c0.2,1.7-2.2,2.4-4.1,4.4c-1.6,8.1,1.8,17,9.4,16.4c2.1-0.2-3.1,5.4-5.7,5.2
			c-5-3-8.2,0.7-8.5,2.7c-2.2,0.9-6.5,1.2-7.1,1.4c-6.8-7.6-23-14.2-23.4-8.8c-0.2,3.1,1.5,4.1-3.4,5.8c-4.1,2.1-6.3-3.8-18.8-8.2
			c-1.2-1,3-4-0.9-6.7c-3.1-2.2-7.1-2.7-7.1-4.7c0-2,2.8-5-0.3-6.5c-4.3-2.1-5.8,7.3-8.1,9.9c-3.2,3.3,0.2,2.3-1,7.5
			c-4.5,6.8-9.9,8.4-15.6,11.9c-4.8-1.3-3.9-4-8.4-3.9c-3.1,0.1-2.4,4.6-2.4,4.6c-6.4,0.2-10.5-1.3-16.6-3.4
			c-2.8-3.9-11.8-1.6-3.4,4.1c-0.7,7.3-4.2-1.7-11.5,7.8c-2.4-0.5-5.3-1-5.8-2.7c-3.6-3.8-5.8-1.9-10.5-0.3c-3.5,1.6-9-2.1-13.5-3.7
			c-3-1.8-3.3-4.1-5.1-2.4l-0.7,2.7c0,0,1.4,2.9,2.4,4.1c1,1.2-1,3.7,1.4,6.8c2.4,3,1.7,7.6,1.7,9.5c0,1.9,1.4,2.5,3.4,2.4
			c2-0.2,3.7,0,3.7,0l-4.1,2.4l3,2.7c0,0-1.9-0.7-2,1.4c-0.2,2,1.2,0,1.7,1.7c0.5,1.7-1.4,6.9-0.7,8.1c0.7,1.2,1,2,1.7,3
			c0.7,1-0.7,0.5,0,2.7c0.7,2.2,0.7,1.5,2.4,1.4c1.7-0.2,3.2,0.6,4.4,0.3c1.2-0.2,2.6-1.3,3.7-1c1.1,0.2,2.7,1,2.7,1
			s-3.2-0.7-4.1-0.3c-0.5,0.2-1.5,0.2-2.4,0.3c-0.6,0.1-1.2,0.3-1.7,0.3c-1.2,0-2.1-0.3-2.4,0.3c-0.2,0.6,1,1.6-0.3,1.7
			c-1.3,0.1-1.6,0.4-1,1c0.6,0.6,2.8,0.8,2.7,3c-0.1,2.3-1.7,2.9,0.3,3c2,0.1,4.2,0.7,4.4,2.7c0.2,2,0.6,2.5,1.7,2.4
			c1.1-0.1-0.4,1.4,0.7,2c1.1,0.6,2.2,2.6,3.4,2.7c1.2,0.1,4.6,3.5,5.4,5.8c0.8,2.3,2.7,4.3,1.7,5.4c-1,1.1-0.8,2,0,2.7
			c0.8,0.7,1.4,0.4,2.4-0.3c1-0.7,1.7-0.2,1,1c-0.7,1.2-1.7,1.9-3.4,0.3l-1.7-1.4c0,0-0.5,1.8,0.3,2.4c0.8,0.6,2.8,0.5,3.4,1
			c0.6,0.5,0,2,0.3,2.7c0.4,0.7,0.9,0.5,1,0c0.1-0.4,0.3-1,0.3-1.4v1.7l1.4,0.3h-1c0,0-0.1,0.6,0.3,1c0.5,0.4,1.4,0.7,1.4,0.7v0.3
			c0,0-0.3,0.8,0.3,1c0.6,0.3,0.8,0,1.4-0.3c0.6-0.4,0.6-0.5,1.4-0.3c0.7,0.2,1.4,0.5,1,1c-0.4,0.6-0.2,1.7,0,2.7
			c0.2,1,0.5,1.1,1.4,1.4c0.9,0.2,0.7,0,0.7,0l-1-1c0,0,0.3,0,0.3-0.3c0-0.4-0.4-0.9-0.3-1.4c0.1-0.5,0.7,0,0.7-1c0-1,0.2-1.2-0.7-2
			c-0.8-0.8-1.1-1.4-0.7-1.7c0.4-0.3,2.1,0.4,2.7,1.4c0.6,0.9-0.2,1.7,2,1.7c2.2,0,4.4-0.7,4.4-0.7l-1.7-2l-1,0.3l-0.3-0.3l1.4-1.4
			c0,0-0.9-0.4-1-1.4c-0.1-0.9,1.1-1.7,1.4-2.4c0.2-0.7-1.1-2-0.3-2.7c0.8-0.7,0.7-1.4,0.7-1.4l-1-0.3v-0.3l1.4,0.3
			c0,0,1.3-0.8,1.7-1.7c0.4-0.8,0-3,0-3l1,1c0,0,0.5,0.3,0.7-0.7c0.1-0.9,0.8-1.9,0.3-2.4l-1.7-1.7l2,0.7c0.1-0.1,0.3-0.4,0.3-1
			c0-1.2,0.7-2,1-2.7c0.3-0.7,0.8-1.8,0-2.4c-0.8-0.6-2.1-0.7-2.7-1c-0.6-0.3,0.3-1.3,0.3-2s-1-0.9-1-1.7c0-0.8,0.7-1.1,0.7-2
			c0,0.2,0.3,0.1,0.3,0.3c0,1.3-0.5,1.8,0,2.4c0.5,0.6,1.5,1.1,1,1.7c-0.5,0.6-0.4,1.1,0.3,1c0.8,0,1.7-0.3,1.7-0.3s-0.3,0.6,0,1.4
			c0.3,0.8,0.4,1.7,1,2c0.6,0.4,0.7,0.3,0.7,0.3s-1.1,0.2-1.7,1c-0.6,0.8-0.7,1.9-0.7,2.7s0.3,1,0.3,1s0.2-0.7,0.7-1.7
			c0.5-1,1.4-1.6,2-2c0.7-0.4,1-0.8,1.4-0.3c0.2,0.3,0.5,0.7,0.7,1c0.1,0,0.2,0.2,0.3,0c0.6-0.8,1-1.5,1.4-0.7
			c0.3,0.8,0.1,1.8,0.7,1c0.6-0.8,2.2-2.5,2-3.7c-0.2-1.2-0.2-3.5-1-5.1s-2-4.1-2-4.1l1.4,1c-0.1-0.3-0.2-0.9,0-1.4
			c0.4-0.8-0.4-0.3-0.7-1.4c-0.3-1-0.3-2,0.3-1.4c0.7,0.7,1.1,0.5,1.7-0.7c0.6-1.2,2.2-4.1,2-4.7c-0.2-0.6-2-2-2-2s2.2,1.5,2.4,1.7
			c0.2,0.2,1.1-0.4,1.4-1.4c0.3-1,0.1-2.1,0.7-3.7c0.6-1.6,1.2-3.3,1.4-4.4c0.1-1.1-0.4-1.8,0.7-5.1c1.1-3.3,1-6.7,1.7-8.8
			c0.7-2.1,1.9-4.8,2.7-6.4c0.8-1.6,1.7-2.4,1.7-2.4s1.5,1.2,3.4,1.4c1.9,0.1,4.1,1,5.4,1.4c1.3,0.4,3.6,0.4,4.7,1.7
			c1.1,1.3,3.1,2.2,4.4,3c1.3,0.9,4.1,1,4.1,1v-1.4c0,0-0.7-0.7-1.4-1.4c-0.7-0.7-1.3-1.4,1,0c2.3,1.4,3.6,2.4,2.4,2.4
			c-1.2,0-1.1-0.5-1.4,0c-0.3,0.5-0.3,1.7,0.7,2.7s4.1,2.8,4.4,4.1c0.3,1.3,1.5,0.9,4.1,3.4c2.5,2.5,5.2,3.9,6.1,5.1
			c0.9,1.1,0.9,1.9,2.7,2.7c1.8,0.8,3.6,1.1,5.4,1.7c1.9,0.6,2.2,1.9,3.4,1.4c1.2-0.5,0.7-0.1,1,1.4c0.4,1.4,0.6,0.9,1.7,3.7
			c1.1,2.9,2.3,5.1,3,6.8c0.8,1.7,1.4,2.4,1.4,3.4c0,1,2.9,1.3,2.7,4.7c-0.2,3.5-1.6,8.2-1.7,10.2c-0.1,1.9-0.9,2.9-1,4.4
			c-0.1,1.5,0.2,6.7,1,9.8c0.8,3.1,1.8,5.1,1.7,6.4c-0.1,1.4-2,1.8,0,4.4c2,2.6,3.5,5.7,5.1,7.1c1.6,1.4,3,5.1,4.1,6.8
			c1.1,1.7,4.2,3.2,7.1,5.8c2.9,2.5,7.1,7.8,9.8,9.5c2.7,1.7,8.5,6.9,11.5,9.8s8.2,6,11.2,6.8s5.2,1.7,6.8,3.7
			c1.6,2,3.2,1.4,3.7,2.4c0.5,1,2.1,0.7,3,0.3c1-0.4,3.4,2.7,3.4,2.7s-4.6,0.4-6.8-0.3c-2.2-0.7-3.5-1.1-4.7-0.3
			c-1.2,0.7-8-1.8-8.8-3.4c-0.8-1.6-1.1-2-3.7-3.4c-1-0.5-0.8-0.1-1.4-0.3c0.1-0.3-0.6-1-2.7-2.7c-8.5-6.8-13.5-13.9-18-15.6
			s-2,3.4-6.4,0s-10.8-7.8-6.4-6.4c4.4,1.4,18,9.8,11.2,3c-6.8-6.8-13.2-14.9-16.3-14.9c-3,0,0.7,7.8-7.5,0
			c-8.1-7.8-13.9-14.6-4.4-0.7c9.5,13.9,12.9,15.9,20,21.7c7.8,8.1,12.5,6.1,11.9,9.5c-0.7,3.4-0.7,7.8,4.1,9.1c4.7,1.4-1-2.7,2.7-2
			c3.7,0.7,10.5,2.7,7.1-1c-1.6-1.8,0.8-1,2.7-0.3c0,0.7,0,1.7,1,2.4c1.6,1.1,3.8,1.9,3.7,2.7c-0.1,0.8-2.8,0.1-2.4,1
			c0.5,1,2.9,3.7,2,4.1c-0.8,0.4-5.1-1.4-6.8-3.4c-1.7-2-2.4-2-2.4-2l0.3,1.7l-1.7-1.4l-0.3,1.7c0,0,1.9,1.1,2,2c0.1,1-0.1,2.6-1,2
			c-1-0.6-1.4-0.3-1.4-0.3l0.3,1.4l-4.4-4.7c0,0-0.4-0.3-1,0.3c-0.6,0.6-1.7,2.4-1.7,2.4s1.2,0.1,1.7,1c0.5,1,1.2,0.8,2.4,2
			c1.2,1.2,0.7,1.3,0.7,2.7c0,1.4,0.5,2.1-0.3,2.4c-0.8,0.2-0.6,0.4,0.7,1.7c1.3,1.3,4.9,3.1,4.7,5.4c-0.1,2.3,2,1.8,2,2.4
			c0,0.6,1.6,2.8,3.4,3c1.8,0.2,2,1.8,2.4,3.4c0.4,1.6,1.2,1.7,2.4,1.7c1.2,0-0.3,2.3,1,2.4c1.3,0.1,4.4,1.4,6.1,4.4
			c1.7,3,6.6,4.9,7.5,6.1c0.8,1.2,0,2.9,2,4.1c2,1.2,5.5,1.3,6.4,2.4c1,1.1,0.7,2.3,2.7,3.4c0.7,0.4,2,1.1,3,1.7
			c0.6,0.5,1,0.7,1.7,1c0.1,0.1,0.2-0.1,0.3,0c0.6,0.2,1.1,0.6,2,0.7c1.7,0.1,3.9,1.6,5.4,3.4c0.1,0.1,0.2,0.2,0.3,0.3
			c0.1,0.2-0.1,0.2,0,0.3c0.1,0.2,0.2,0.5,0.3,0.7c-0.3-0.2-0.8-0.3-1-0.3c-0.1-0.1-0.2-0.3-0.3-0.3c-0.1,0-0.2,0-0.3,0
			c-0.3-0.1-0.7-0.2-1-0.3c-0.2,0-0.7,0.1-1,0c-0.8-0.2-1.6-0.6-2.4-0.7c-0.1,0-0.3,0-0.3,0s0,0.3,0,0.3c0,0,0.3,0,0.3,0
			c0,0-0.1,0.3,0,0.3c0.1,0.1,0.3,0.1,0.7,0.3c0.6,0.7,1.3,1.4,2.4,1.7c0.1,0,0.3,0,0.3,0c0.6,0.3,1.2,0.4,1.7,0.7
			c0.3,0.1,0.4,0.5,0.7,0.7c0.6,0.5,1.4,1.1,2,1.7c0.2,0.2,0.5,0.2,0.7,0.3c0.7,0.6,1.3,1,2,1c1.3,0,2.4,0.4,3.4,0.7
			c0.5,0.1,1,0.5,1.4,0.3c1.1-0.5,0.8-0.9,3,0.3c2.3,1.3,4.4,2.7,5.1,2.7c0.7,0,0.3,0.3,0.7,1c0.4,0.7,2.2,2.4,3,2.4
			c0.9-0.1,0.2-1,1.4,0c1.2,1,1.9,2,1.7,2.4c-0.2,0.4,0.4-0.2,1.4,0.7c1,0.8,1.9,1.7,2,2.4c0.1,0.7,0.6,1.2-0.7,0.3
			c-1.3-0.9-1.7-0.1-1.4,0.3c0.3,0.5,2.1,0.6,2,1c-0.1,0.4,0.3,1-1.4,0.7c-1.7-0.3-2.2-0.7-1.4,0.7c0.8,1.4,1.3,2.7,1,3.7
			c-0.3,1-1,1.3,0,1.7c1,0.4,1.3,0.1,0.7,1c-0.7,0.9-1.4,1.7,0,2c1.4,0.4,1.9-0.1,1,0.7c-0.8,0.8-2.5,0.8-0.7,1.4
			c1.9,0.5,3.4,0.6,3,1.7c-0.4,1.1,0.1,2.8,0.7,1.7c0.6-1.1,0.1-1.8,1-2c0.9-0.2,0.9-0.2,0.7,0.7c-0.2,0.8,1.2,1,0.3,1.7
			c-0.8,0.7-0.3,1-1.7,1c-1.4,0.1-2.8,1.3-1,1.4c1.7,0.1,2.2,0.1,3.4,0c1.1-0.1,0.4-0.2,0.3,0.7c-0.1,0.8,1.4,1.3,2,0.7
			c0.6-0.7,1.1-1,2-0.3c0.9,0.7,1.2,2.4,2.4,1.4c1.1-1.1,0.6-1.4,1.7-0.7c1.1,0.7,0,1.1,2.7,0.7c2.8-0.4,4.5-0.5,2.7-1
			c-1.8-0.5-0.5-0.1,2-0.7c2.5-0.6,2.7-1.3,1.7-2c-1-0.7-4-0.7-4.7-1c-0.7-0.3-1.8-1.2,1-1c2.8,0.2,4.9,1.3,6.4,0.7
			c1.6-0.6,2.2-1.9,3.4-1c1.1,0.8,1.9,0.2,2,0.7c0.1,0.5,1.3,1.4-0.3,1.4c-1.6-0.1-2.5-0.6-3.4-0.3c-0.8,0.3-2.6,0.8-1.4,1.4
			c1.3,0.5,1.9,0.3,2.7,0.3s0.7,0.3,0,0.7c-0.7,0.4-1.2,1.2,0.3,0.7c1.6-0.5,2.5-0.8,3.4-1.7c0.8-0.9,0.3-0.6,1-0.3
			c0.2,0.1,0.1,0.3,0,0.3c0.1,0.1,0.3,0,2.4,0c4.7-0.1,4.3,0,6.8-0.3c2.5-0.3,3.5-1.2,2-1.4c-1.5-0.1-2.7,0.2-5.1-0.7
			c-2.4-0.9-3.4-1.8-4.7-1.7c-1.4,0.1-2.2,0.4-2.4,0c-0.2-0.4,1.1-1,2-1c1,0,0.9-1.3,2-2c1.1-0.8,2.1-1.7,4.1-1.7
			c1.9,0,4.3,0.1,6.4,0.3c2.1,0.2,4.2-0.2,4.7,0.3c0.1,0.1,0.2,0.3,0.3,0.3c-2,0.6-3.7,0.9-4.4,1.4c-0.7,0.4,1.3,1.1,0,1.7
			c-1.3,0.6-1.7-0.8-2.7,0c-1,0.8-2.1,1.3,0.3,1.4c2.4,0.1,3.4,0.6,3.7,0c0.1,0.1,0.2-0.1,0.3,0c0.7,0.3,1.9,0.5,3,0
			c1.1-0.5,3.7-0.6,4.7-0.7c1.1-0.1,3,2,4.4,3c1.4,1.1,7,2.9,7.8,3.7s2.8,0.7,3.7,0c1-0.7,2.3-0.3,2.7,0.7c0.4,1,1,3.1,5.1,3
			c4.1-0.1,12.3,0.5,12.5,0c0.2-0.5,1.7,1.2,2.4,1.7c0.7,0.5,2.9,1.9,3.7,2.7c0.8,0.8,2.4,2,4.1,4.1s5.5,5.8,6.4,6.1
			c1,0.3,3,2.5,2.7,3.4c-0.3,0.9,1.1-0.2,1.4,0.7c0.2,0.9,3.3,1.7,3.4,2.4c0.1,0.7,0.9,3,3.4,3c2.5,0.1,1.9,3,4.4,3
			c2.5,0,5.2,1.3,6.8,1.7c1.6,0.4,2.9,0.7,3.4,1.7c0.5,1,0.7,2.1,2,2c1.4-0.1,2,0.3,2.7,0.7c0.7,0.4,1.2,0.8,1.7,1.4
			c0.5,0.6,0.9,1.6,1,2c0.1,0.4,0.9,0.4,1.4,0.7c0.4,0.2,0.6,1.7,1.4,2c0.7,0.4,1.8,0.9,2.4,1.7c0.5,0.8,1.7,2.1,2,1.4
			c0.3-0.7-0.3-0.6-0.3-1.7c0-0.4,0.3-0.5,0.3-0.7c-0.1,0,0.1-0.3,0-0.3c0.1-0.2,0.1-0.2,0.3,0c0.4,0.4,0.9,0.2,0.3,1
			c-0.5,0.8-0.3,2,0,2.4c0.3,0.4,0.3,0.5,1,0.3c0.7-0.2,1.3-0.6,1.7-0.7c0.2-0.1,0.2-0.3,0.3-0.3c0.1,0,0.3,0.1,0.3,0.3
			c0.1,0.2,0,0.2,0,0.3c0,0.1,0,0.4-0.3,0.7c-0.7,0.5-0.5,0.9-0.3,1.4c0.1,0.4,0.1,0.5,0.7,0c0.6-0.5,0.7-0.9,0.7,0
			c0,0.9-0.2,1.4,0.3,2c0.5,0.6,1,0.6,1,1.4c0.1,0.7,4.7,4.5,5.8,5.1c0.7,0.4,1.7,0.5,2.7,0.7c0.5,0.1,1.1,0.3,1.4,0.3
			c0.9,0,3.9-0.8,5.4-1.4c1.5-0.5,1-2.2,3.4-3c2.4-0.8,4.7-1.7,4.7-1.7l-8.5-15.2c-7.2-3.5-14.3-8-22-9.8c0,0,1.4-4.4-1-6.4
			c-3-1.2-7.4-1.8-9.5-5.4c-3.1-4.7-7.1-10.1-9.1-15.9c0,0,3.3-3.1,2.7-6.8c-4.3-3.5-2.5-6.9-12.5-4.4c-4.8-3.4-9.7-6.6-14.6-8.5
			c-3.1-2.4-8.4-7.7-9.8-9.5c-2.8-3.3-5.9-7.5-9.8-10.2c-2.2-1-1-2.2-2.7-3.4c-3.3-1.3-7.1-1.2-8.8-5.1c-1.8-5.4-1.8-8.4-8.5-10.8
			c-2.7-2.9-5.7-6.3-9.8-7.8c-1.4-0.6-1.2-1.4-1.7-2.7c-1.3-2.1-2.4-4.7-4.4-6.8c-1.9,0-4.6-0.1-6.4,0c0,0,0.3-4.1-0.3-5.4
			c-2.1-0.6-6.9,0.4-7.8-3c-0.4-0.8-3.8-0.8-4.4-2c-0.6-1.2-1.3-3.7-1.3-3.7l-9.5-9.1c-0.4-1,0.1-3.7-1.7-4.7
			c-0.8-3.5-3.6-5.6-1-9.5c0-1,2.8-3.2,0-4.7l-3,0.3c-1.4-0.6-1.6-4-4.1-1.7l-0.3-2c1.4-0.8,3.5-0.1,3.7-2c-1.2-0.7-1.5-2.9-3.4-2
			v-4.1c0,0,0.7-1.9-0.3-3.7s-3.4-6.8-5.8-6.8c-2.4,0-6.4-3-6.4-3l-0.7-3.4c0,0,1.2,0.5,2-0.3c-0.4-2.8,1.6-6.3-1.7-8.8
			c-3.5-2.2-6.5-1.4-7.5-6.8c0.1-0.8-1.8-0.4-2.4,0.3l-4.1-5.1c-1.1,0.7-1.2,5.4-3.4,2.4l-1.7,2.7c-4.1-2.9-9.6-7.3-10.8-14.2
			c1.8-0.1,4.3-1.1,5.4-3.4c-1.3-2.1-5.9-2.1-3.7-5.8c-1.3-6.1-4.1-6.8,1-10.2l0.3-4.1l-2.4-1.7l-2.7-5.8c0.7-1.6,4.5-2.7,2-4.4
			l2.4-3.7c-1.6-4.4-3.9-6-1-10.5c3.2-1.9,3.7-5.2,8.1-4.1c1.3-0.1,3.7-2.9,4.1-1c0.4,1.9,1.1,2.4,2.4,1.4c1.3-1.1,2.4-2.3,4.4-1.4
			c3.3,4,1,4.9,4.7,5.8c1.1,1.1,4.5,4.8,4.7,5.8s-0.7,3.1,1,4.1c1.7,1,5.7,1.4,7.1,2.7c6.2,6.5,8.7,9.2,18.3,8.1
			c0.9-2.4-0.3-5.7,2.7-7.1l-0.3-4.4c1.7-2.8,0.3-4.3,3.4-5.4c0,0,3.2-2.7,4.1-4.4c0.8-1.7-0.5-3.1-0.3-3.7c0.1-0.6,1.4-1.9,1.4-3
			c0-1.2,3.2-3.4,4.1-3.4s1.9,1.4,3.7,0.3c1.8-1.1,2.3-2.4,3.4-1.4c1.1,1.1,8.1,3.7,8.1,3.7s1.9-2.6,3.7-2c1.8,0.6,7,3,8.8,2
			c1.8-0.9,1.4-2.4,1-3c0.9-1.3,3.6-2.8,3.4-4.7c0.6-1.7,2.8-3.6,4.1-5.1c1.3,0.3,3,1.9,1.4,4.7c-1.4,2.5,7.5,3,9.5,1.4
			c0.8-0.7,1.4,2.3,3,3.4c1.6,1.1,5.2,2.3,7.8,3.4c1.5,0.6,1.1,1.6,4.4,1.7c3.3,0.1,6.1-0.3,6.4-2.4c0.3-2.1,1.4-3.7,1.4-3.7
			c2.2,1.8,4.1,1,5.4,4.4c0,0,0.6,1.1,5.4,1c4.8-0.1,4.7-3,5.4-3c0.8,0,1,4.1,1,4.1c4.3,1.1,7.3,0.9,11.9,0c0.7,0.3,0.3,2.2,2.4,1
			c2-1.2,4-3.8,5.4-3.7c1.4,0.1,1.5,1.4,3,1.7s5.5,2.8,6.8,3c1.3,0.3,2,0.2,5.4,3c3.4,2.9,6.4,1.1,9.5-2c3.1-3.1,1.6-3,1.4-4.4
			c-0.3-1.4,1.4-1.9,2.7-2c1.3-0.1,0.9-4.3,2-4.7c1.1-0.4,2.6-1.4,3.4,1c0.8,2.5,1.3-0.6,2.4-1c1.1-0.4,2.5,0.8,3,1.7
			c0.6,0.8-1.6,1.9-0.3,2.7c1.3,0.8,3.6,3.3,5.1,2.7c1.5-0.6,3.3,0.2,5.4,0s4.1-2.3,3.4-3.7c-0.8-1.4-2.9-3.2,1.4-4.7
			c4.2-1.5,3.2,2.3,4.4,2.4s1.5-0.6,2.7,0.7s8.4-1.3,9.5-1.4c1.1-0.1,2.3,2.7,4.4,4.4c2.6,0.3,5.7,0.8,7.8-0.3
			c-2.7-4,7.3-6.6,9.1-1.7c2.9-4.6,7.9-1.6,4.7,2.4c1.8,1.3,1.9,0.2,3.7,2c1.8,1.8,0.6,3.6,1.4,4.4c4-3.3,10.8,7.8,5.4,7.1
			c-2.1-1.3-3.1,0.5-1.7,1.7c1.3,1.2,4,6.3,8.5,7.5c5.9,0.7,11.9-0.5,17.3-1c-2.6-4.3-4.5-6.9-1.7-8.1c2.8-1.9,4.4,3.9,7.5,0
			c-0.6-3.5,2.9-3.2,5.1-5.8c0.5-0.7-0.8-2.1-0.7-3c-1.5-1.1-8.3,2.7-8.5,0.7c4.9-4.9,2.6-11.6,1.7-17.3c-5.7-2.4-2.1-8.9,4.1-4.4
			l4.1-6.8c-6.2-3.9-1.1-4.6,9.5-0.3c-1.5-1.2-3.7-4.8,0.1-5c1.8-0.1,3.6,4,3.6,4c2.4-0.4,5,0.2,8.5,0c2.6-4.8,1-5.7-1.7-9.1
			c-3.9,2.9-9.8-0.2-14.6-1.4c1.7-5.7-5.3,0.3-10.5-1c-5.5-4.3-12.1-8.6-19-11.9c1.8-2.3,3.9-5.4,4.4-6.1c-1.4-1.6-4.4-1.8-4.4-4.1
			c-0.4-1.8,2-3.2,3-4.7c0.5,0.5,4.2,1,5.8-1c1.6-2,0.9-3.4-1.4-4.4c-3.7,1.2-3.6-2.2-4.4-2.7c-3.3-0.4-6.4,1.8-8.8,2.7
			c-1.7-2.9-3.4-4.4-4.4-5.8c-0.1-2.8,4.3-2,4.4-3.7c-6.9-4.5,0.9-3.1,1.7-6.1c-1.3-4.4-5.5-3.5-6.1-5.8c9.6,2.5,5.9-16.7-1.4-5.8
			c-3.6-1.2-7.1-4-4.7-4.4c9.9,0.8,4.4-9.9-2.4-4.7c-1.6-5.2,5.6-4.6,3.6-7.6c-3.2-3.3,0.3-4.8,0.4-5.9c-1-0.4-4.1-0.3-4.1-0.3
			c0.5,3.1-3.4,2.4-4.1,1.4c-1.8,1.5-0.2,3.3-0.3,5.1c-4.6,0-7-2.4-10.5-4.1l-3.7,1c-0.8,5.9-1.1,4.3-3,8.8c1.7,2-2.1,4.9-3.7,5.8
			c0.5,2.6-3.5,2.8-5.1,4.1l-2-1c2,4.4-1.3,3.9-3.7,4.4c2.5,6.4-2.6,2.5-4.1,3.7c0-6.3-5.5-0.3-6.1-0.3l-4.1-1
			c-1.5,1.9-3.6,0.2-5.4,0.3c-5.6-4.4-9.6-1.8-13.2,1l-7.5-0.7c-4.3-3.3-12.3,0.2-13.5,3.4c-7.5-7.3-14.8-7-21.7-11.5
			c-2.3-3.9-5.7-5.6-9.5-8.5c-3.6,1.9-8-0.1-11.2-0.7c-0.5,5.3-10.5,2.5-6.8,0.3c1,0.1,2.6,0.3,2.4-0.7c-3.6-0.9-0.7-1.5-2-4.1
			c-2,0.9-3.8,2.5-5.8,3.7c-0.4-2.2,1.4-1.6,2.7-3.7c-5,1.6-4.5-1.1-8.1-2c1.5-2.6,2-4.2-8.9-15.4c-2-2-7.4,2.4-2.6-2.9
			c-2.9-2.8-9.9-5-17.6-7.1l-0.3-2.4l-2,0.3c-1.9-2.3-4.5-3.3-6.8-4.7c0.3-6.1-2.7-7.4-5.4-11.9c-1.6,1-2.4-0.7-3.4-1l-5.1,0.3
			c-0.2-3.6-2.2-1.4-3-0.7l-5.4-8.5c-2.8-0.5-5.8-1.9-8.1-1C1934.6,1080.2,1927.1,1076.2,1923.4,1074.9L1923.4,1074.9z"/>
		<path class="st2" d="M1880.8,1446.2c-0.3-0.5-0.8-1-1.4-1.7c-1.1-1.4-2.2-2.8-2.7-0.7c-0.5,2.1-0.3,2,0,2.7
			c2.6,2.9,3.4,1.5,4.7,3.7c1.4,2.2,3.6,2.4,4.4,2.4c0.8,0,0.1-0.9-1-2.7c-1.1-1.8-1.4,0.4-3-1.7
			C1881,1447.1,1881.1,1446.7,1880.8,1446.2L1880.8,1446.2z"/>
		<path class="st2" d="M1767,1263.6c-2.4,1-1.7,8.6-2,11.5c-0.3,3.4,0,5.4-1.7,4.4s-4.1-0.3-4.1,2.7c0,3-4.1,0-2.7,4.7
			c1.4,4.7,8.8,7.5,13.5,5.8c4.7-1.7,5.1-0.3,4.7,3.4c-0.3,3.7,6.8,4.1,9.8,6.8c3,2.7,3.7-1.7,2.7-3c-1-1.4,5.8-0.3,7.1-1.4
			s-5.8-6.8-8.8-10.2c-3-3.4-4.4-3.4-7.1-5.4c-2.7-2,1-5.8-1-7.5c-2-1.7-5.1-0.3-3.7-1.7c1.4-1.4,1.4-2.7-5.4-10.2
			C1767.9,1263.4,1767.3,1263.4,1767,1263.6z"/>
		<path class="st2" d="M1746,1273.7c-2,0.6-4,4.6-4.7,8.1c-1,4.7,5.8,5.8,8.5,13.2s5.8,14.9,2.7,14.2c-3-0.7-5.8-6.1-6.4-3
			c-0.7,3,0,5.4,2.7,12.9c2.7,7.5,7.1,18.6,12.2,24.7c5.1,6.1,5.8,5.4,8.5,4.7s-2.4-6.1-6.4-18.6c-4.1-12.5-2.7-17.6-2.7-25.1
			s-0.3-6.4-2.4-4.7c-2,1.7-3.4-4.7-8.1-13.2c-2-7.5,1-9.5-1.7-12.5C1747.4,1273.6,1746.7,1273.5,1746,1273.7L1746,1273.7z"/>
		<path class="st2" d="M1784.3,1315.4c-1,0.4-0.2,2,1.4,4.1c2,2.7,0,3.7-1.7,2.4c-1.7-1.4-6.1-0.7-2.4,3c3.7,3.7,4.4,1.7,10.8,4.4
			c6.4,2.7,5.4,5.8,7.5,4.4c2-1.4-1.7-5.4-9.5-11.5c-1.7-1.7-1-6.1-4.4-6.8C1785.1,1315.2,1784.6,1315.3,1784.3,1315.4
			L1784.3,1315.4z"/>
		<path class="st2" d="M1751.4,1336.7c-1,0.1-0.2,2.5,1.4,7.1c2,6.1,2,5.8,2,8.8c0,3,0.7,5.1,3,2.7c2.4-2.4,3,2.4,7.5,6.4
			c4.4,4.1,4.7,4.7,6.1,3.7c1.4-1-1-3.4-6.8-7.5c-5.8-4.1-7.1-8.8-8.8-14.6c-0.3-4.1,0.7-4.4-2.7-6.1
			C1752.3,1337,1751.8,1336.7,1751.4,1336.7z"/>
		<path class="st2" d="M1795.8,1371.6c-1,0.1-1.9,2.5-1.4,3.7c0.7,1.7-3.7,3.4,0,4.7c3.4,0.7,4.7,2,3.7-1.4c-1-3.4,0-4.1-1.4-6.4
			C1796.5,1371.7,1796.1,1371.6,1795.8,1371.6L1795.8,1371.6z"/>
		<path class="st2" d="M1797.8,1392.3c-0.5,0.3,0.3,1.5,2.7,4.1c6.4,3.7,14.9,6.4,7.1,1C1802.8,1394,1798.6,1391.8,1797.8,1392.3
			L1797.8,1392.3z"/>
		<path class="st2" d="M1802.6,1402.8c0,0.3,1.1,1.6,3,4.4c8,11.2,15.7,15.4,19,20.7c3.2,5.3,3.4,3.7,4.1,5.4
			c9,9.3,13.2,11.3,22.7,16.9c9.5,5.6,19.8,12,10.8,4.7c-9-7.3-13.7-8.8-16.9-12.9c-3.2-4.1-3-2.7-8.5-7.8
			c-5.4-5.1-6.9-5.3-11.5-10.2c-4.6-4.9,0.7-3.7-8.1-9.8C1810.5,1409.7,1802.6,1401.8,1802.6,1402.8L1802.6,1402.8z"/>
		<path class="st2" d="M1824.6,1405.5c-0.5,0.5,1.2,2.8,7.1,8.8c5.4,5.8,13,10.2,20.7,17.6c7.6,7.5,16.3,8,13.2,5.8
			s-12.5-11.5-17.3-14.9c-4.7-3.4-13.7-11-18.3-14.6C1827.7,1406.4,1825.1,1405,1824.6,1405.5L1824.6,1405.5z"/>
		<path id="ch" class="st1" d="M1208.9,933.3c-1.2-0.1-1.1,2.1-0.1,3.6c1.2,1.8-3.4,0.6-6.6,1.1c-0.2,0-0.3,0-0.5,0.1
			c-3.2,0.8-4.2,6.8-7.4,11.1c-3.2,4.3,3.1,5.4,4,6.2c0.8,0.8,5.5,1.2,7.1-0.8c1.6-1.9,1.7-2.2,5.5-1.9c3.8,0.3,2.4,0.6-0.3,2.9
			c-2.6,2.3-0.8,1.7,0.3,4.1c1.2,2.4-4.7,2.6-3.2,1.4c1.5-1.3-1-2.6-2.6-3.5c-1.6-0.9-5.1,1.5-7.3,3.8c-2.2,2.3,3.7,1.8,2.5,2.8
			c-1.2,1-3.5,2.4-6.5,1.2c-3-1.2-1.9-0.7-6.5,0c-3.5,0.5-5.3-4-6.3-6.7c-1.4-0.1-2.2-0.2-4-0.2c-0.9,1.2-1.9,2.5-3.3,3.6
			c-6.8,5.7-12.2,4.1-16.9,5.4c-2.3,0.6-3.9-1.9-5-4.8c-3.9,0.7-6.9,1.2-10.7,1.6c-1.6,1.4-3.6,2.6-6.3,2.4
			c-3.7-0.2-5.3-0.7-5.5-1.7c-0.2,0-0.4,0-0.6,0l0.1-0.4l3.7-1.4l-1.5-2.9l2.3-0.9l-4.9-0.1l-4.8,4.6l-1.5,1.5l-5.1-0.8l-2.8,4.1
			c0.4,0.5,0.9,1.2,1.1,1.5c1.4,2.4-3.4,4.2-3.4,4.2l-3.5-3.3c-0.7,0.6-1.5,1.5-2.1,2l3.3,3.4l-4.6,4.7l-6.6-2.2c0,0-5.4,3-7.3,1
			c-1.9-2-2.4,1.2-3.7-0.5c-1.4-1.7-2.2-1.7-0.8-3.9c0,0,0,0,0-0.1c-1.8-1.8-3.6-3.6-6-5.1c-2.2,1.5-3.3,2-4.5,0.8
			c-1.5-1.5-5.2-5.2-6.6-0.7c-0.5,1.7-1.8,2.8-3.2,3.7c0.4,0.8,0.8,1.6,0.8,2.2c0,1-2,0-2,0c-3,4.1-11.5,8.1-9.5,13.2
			c1,5.1,16.6-5.1,16.6,0c-0.9,13.2-5.4,4.7-10.1,6.6c1.2,2.7,2.6,7.3-1.2,9.1c-5.5,2.6-3.3,8.6-10.3,10.3c-1.2,0.3-2.7,0.4-4.1,0.7
			c-3.6,5.9-7,11.6-10.2,14.3c-6,7-19.7,4.2-24,11.8l0.3,0.3c0,0,1.7,2.6,3.1,7.4c1.4,4.8-3.8,8.6-3.8,8.6l1.9,2.6
			c0,0,0.5,0.7-2.4,3.4c-2.9,2.6-8.8,6-12.4,7.4c-3.6,1.4-11.5,10.3-13.4,10.5c-1.9,0.2-6.4,4.8-6.4,4.8l4.5,5l-9.1,9.6l2.4,2.9
			l-2.5,2.3c0.1,0.1,0.1,0.3,0.2,0.4l9.2,7.9l-4.7,4.7c0,0.2,0.1,0.5,0.1,0.7c-0.5,0.6-1.3,1.4-1.5,1.8c-1.9,3.3-0.2,6.9,2.4,8.6
			c0,0-8.4-0.7-12.7,0.7c-4.3,1.4-6.7,3.6-4.1,5c2.6,1.4-1.7,3.8-2.6,7.2c-1,3.3,7.2-1.9,10.5-0.5c3.3,1.4,11.5,1,13.6-3.3
			c2.2-4.3,7.2-2.4,9.3-5.3c2.2-2.9,2.9-4.1-0.7-4.3c-1.8-0.1-3.1-2.7-3.9-5.3l0.8,0.2c-0.2-2.2-0.5-4,1.1-5.6
			c9.2-14.2,37.5-14.2,50.7-8.1c4.1,1-4.1,7.1-3,10.1c0,5.1,6.1,7.1,7.1,12.2c1,6.1-13.2,5.4-7.1,15.6c2,2,8.1-1,9.1,2
			c2,3.1-3,8.1-2,11.2c1,2,5.1-4.1,6.1-2c5.1,5.1,5.4,12.2,9.5,18.3c0.1,0,0.1,0,0.1-0.1c2.2,4,5.3,6.1,8.8,7
			c7.8-5.9,14.7-10.1,17.9-6.5c3.8,4.3,12.4-2.9,15.3-6.2c0,0,2.5-3.1,6.2-2.8c3.7,0.3,6.9,0.2,10.6,4.2c0.7,0.7,1,1.2,1.4,1.7
			c0.8,0.5,1.6,0.8,2.4,1.3c0.9-0.3,2.1-0.6,4.2-0.1c2.4,0.5,4.3,0.8,7.6,1.4c0.1-0.5,0.2-1,0.4-1.5c0.6-2.2,1.4-4.3,2.3-5.5
			c2.4-3.1,7.3,2.6,10.2-1.1c0.7-0.9,1-2,1.1-3.2c0.2-2.4-0.5-5-0.3-6.9c0.1-0.9,0.5-1.7,1.4-2.2c1.7-0.9,3.8-1.8,6.4-3
			c2.6-1.2,5.6-2.7,9-4.8v0c0.1-0.4,0.5-0.9,0.5-1.2c0.1-0.6,0.1-1.1-0.1-1.6c-0.9-3.4-6.2-5.3-7-8.1c-0.1-0.4-0.1-0.8-0.1-1.3v0
			c0,0,0-0.1,0-0.1c0.9-2.8,3.2-4.7,5.8-6.4c3.1-2.1,6.7-3.8,9.4-6c2-1.6,3.8-3.2,5.6-4.8c-0.2-0.1-0.4-0.2-0.5-0.3
			c-3.9-2.2-5.1-3.4-1-5.6c4.1-2.2,12-3.5,12.8-3.6c0.9-0.1,1.5-0.4,2.5,0.2c2,6.1,1,12.2,1,18.3c0,3.1-3,7.1-2,11.2
			c7.1,13.2,23.4,16.3,34.5,20.3c0,0,0,0,0,0c0.1,0,0.1,0,0.2,0.1c1,0,3,2,3,4.1c-0.5,2.2-2.8,4.1-4.7,6c2.4,1.8,4.6,3.7,6.1,5.4
			c5.8,6.8-0.1,15.7,3.5,18c0.9,0.6,1.7,1.2,2.6,1.6c0.8,0.5,1.7,0.8,2.5,0.8c0.8,0,1.7-0.3,2.6-1.1c0.9-0.8,1.9-2,3-3.9
			c4.2-7.4,1.5-9.5-2.4-10.6c-3.9-1.2,1.7-6.8-1.7-10.3c-3.4-3.5,0.8-5.9,4.1-6.4c0.8-0.1,1.2-0.6,1.4-1.2c0.2-0.6,0.1-1.5,0.1-2.3
			c-0.1-1.7-0.3-3.5,0.9-4.2c2.4-1.4,5.9-4.7,7.8-5.6c1.9-0.8,7.1-9.1,9.1-14.4c1.5-3.9,3.4-7,3.8-11.2c0.1-1.4,0.1-2.9-0.1-4.6
			c-0.1-0.5,0-0.8,0-1.3c-0.3-2.1-0.5-4.2-0.4-6.1c0-0.1,0-0.2,0-0.3c0.1-1.6,0.3-3.1,0.9-4.3c0.1-0.1,0.2-0.2,0.2-0.4
			c0.3-0.4,0.5-0.9,0.8-1.2c0.8-0.9,2.1-1.4,3.6-1.7l5,6.3l3.5-3.3c0.9,1.5,1.4,2.7,2,3.7c0.3,1.3,0.5,2.2,0.7,3.1
			c0.7,4.2-2.4,6.8-2.4,6.8s2.5,1,5.1,2.5c2.5,1.5,0.3,6.4,6.4,9c6.1,2.5,9.8-0.7,9.8-0.7l3.4,2.5l3.2-3.7l-2.7-2.7l3.2-2.7l3.2,2.7
			l11.4-6.1c2,0.3,2.9,0.3,5.9,0.8c0.7,0.1,1.3,0.3,1.8,0.7l1.9,3.5l-1.9,1.9c0,0,2.8,1.4,2,3.7c-0.8,2.3,0.8,2.2,3.7,2.8
			c2.9,0.7,2,4.9,1.2,5.6c-0.8,0.7-0.1,1.8,3.7,1.5c3.8-0.3,4.5,1,6.7-1.6c2.2-2.6,2.5-3.5-0.7-7.4c-3.2-3.9-6.2-6.6-3.5-8.4
			c2.7-1.8,1.8-3.1,3.8-3.8c1.9-0.7,2.4-1.7,0.1-4.1c-2.3-2.4-2.7-2.4-4.7-1.5c-1.7,0.8-2.7,1.5-4.3,0.1l0.2-0.2
			c-3.8-2.3-5.3-10.1,0.1-19.9l0.1,0c0.9-1.4,2.1-2.7,4-4.1c2.3-1.7,4.2-2.7,5.9-3.1c3.5-1.1,5.6,0.3,7.5,2.6v5.3l8.5,4.7l2.7-2.2
			l9.5,2.2l3.4-10.6l-3.5-2.9l-4.3-0.3c-2.2-2.3-4.1-4.2-4.1-4.9c2-4.1,5.1-7.1,6.1-11.2c2-4.1,1-9.1,2-13.2c0.1,0.1,0.1,0,0.2,0.1
			c0,0,0-0.1,0-0.1c-0.2-0.1-0.2,0.1-0.3,0c-4.3-1.8,2-6.6,3.1-10.7l-5.9-1.5l-1.8-4.7c-0.6-0.1-0.9-0.3-1.5-0.4
			c-2-0.4-3.8,0.4-5.4,1.6l-1.2,4.1c0,0-1.7,0.4-1.1,1.7c0.6,1.3,0.5,2-3.2,1.7c-0.4,0-0.7,0-1-0.1c-1,1.4-2.1,2.7-3.2,4
			c-0.1,3.7,0.1,5.2-3.7,4.4c-0.2-0.1-0.5-0.3-0.7-0.4c-2.9,1.9-6.4,2.5-11,0.3c-4.3-2.2-9.4-4.7-13.5-8.1c-1.6-1.2-4-1.4-4.4-2
			c0.3-2.7-1.8-4.2,1-8.1c-0.5-1-2.9-2.1-2-2.4c0.9-0.3,2.3-1.3,0.3-1.7c-2-0.4-1.4,0.7-1.4,0.7c-1.3-0.3-3.6,1.5-4.7-1
			c-3-1.2-7.3-2.3-10.1-4.7c-3.1-1.2-2.7,3.1-7.4,0c-1.1,0.7-3.8,1.8-4.4,0c-0.6-1.8-2.7-1.2-3.4-0.7c-0.7,0.6-4.8,0.4-3.7-0.7
			c1-1,1.8-1.2,3.7-2.4c1.9-1.1,0.2-3.5,0.3-5.7c0.1-2.3-2.7-4.9-2.4-7.1c0.4-2.2,3.1-7.3,4.4-9.5c-0.6-2.6,2.1-1.8,1.7-4.7
			c0.5-0.9,2.7-2.1,3.7-3.4c1-1.2,0.8-3.2,2-4.7c1.2-1.5,2.2-0.8,4.7-1.7c2.6-0.9,0.6-2.2-1.7-4.7c0.5-1.8-0.1-4,1.7-5.4
			c-0.2-0.2-0.7-0.3-1.7-0.3c-2.3,0-5.1-3.7-5.1-3.7c-1.3-0.9-3.4-2.9-3.4-6.1v-1c0-0.1,0-0.3,0-0.3c-9.1-5.1-16.2-15.2-26.4-17.2
			c-1,0-34.5,2-34.5,2c-3-1.5-2.6-3.1-3.9-4.7c1.4-2.2,2.9-2.7,1.2-2.7c-2.1,0-1.4-0.3-3.1-1.4c-1.8-1-2.9-2.8-3.9-1.4
			c-1,1.4-1.1,1.2,0.6,3c1.7,1.8-0.8,1.8-0.1,3.1c0.7,1.4-1.7,1.1-2.9-0.8c-1.2-1.9-4.5,0.2-4.7-1.9c-0.3-2.1,4-1,2.5-2.9
			c-1.5-1.9,1.7-2,0.3-3.9c-1.4-1.9-0.8-2.2-3-1.1c-2.1,1.1-2.1-6.5-4.8-5.4c-2.7,1.1,0.6,5-2,5.6c-2.6,0.6-0.8-3.8-3.6-6.4
			C1209.8,933.6,1209.3,933.3,1208.9,933.3L1208.9,933.3z"/>
		<path id="path3877" class="st3" d="M1381,966.7c0.4-0.6-0.2-3.2,1-2.4c0,1-2,2-2,2C1380.2,966.7,1380.7,966.5,1381,966.7
			L1381,966.7z"/>
		<path id="at" class="st1" d="M1782.3,756.3c-0.9-0.1-1.9,0.2-2.7,0.3c-1.1,0.2-1.9,0.6-2.7,1.4c-1,2,1,31.4-1,33.5
			c-2,3.1-9.1-4.1-13.2-1l-8.1,26.7c-7.1,2-14.5-7.1-21.6-7.1c-4.1,0-3,8.1-7.1,9.1c-21.3,8.1-33.4-13.2-49.7-21.3h-1
			c1,3.1,2,6.1,2,9.1c-1,27.5-7,21.3-28.4,16.2c-2,0-4.1,1-5.1,3c-2,10.2,4.1,21.3-6.1,29.4c-9.1,7.1-52.1,17.2-53.1,33.5
			c0,0,24.3,33.5,24.3,34.5c1,1-13.2,13.2-8.1,17.2c11.2,10.2,22.3-4.8,13.2,28.7c0,2-2,5.1-4.1,5.1c-32.5-9.2-7.1-25.7-22.3-26.7
			c-8.1,0-15.5,7.1-23.7,6.1c-4.1-1-3-8.1-6.1-9.1c-6.1-2-12.2,3.1-17.2,1c-2-1,2-7.1,0-7.1c-12.2,1-1,17.2-4.1,18.3
			c-14.2,4.1-37.5-1.7-50.7,3.4c-4.1,2-2,9.1-6.1,11.2c-4.1,3.1-9.1-2-13.2,1c-3.1,1,1,6.1-1,8.1c-1,1-35.5,10.1-39.6,8.1
			c-2-2,0-7.1-2-9.1c-1-2-6.1-2-7.1-4.1c-1-2,5.1-1,4.1-3c-4-12.9-30.9,1.8-39.9-5.7c-1.7,2.4,0.6,12.2-1,17.9
			c0,4.1-19.3,27.4-26.4,20.3c-4.1-4.1,7.1-10.1,4.1-14.2c-1-1-4.1,3-6.1,3c-2,0-5.1-1-6.1-3c-2-3.1,5.1-7.1,0-11.2
			c-4.1-3.1-6.1-8.1-10.1-10.1c-3-2-7.1,3-11.2,2c-2-2,0-7.1-2-9.1c-5.1-4.1-4,14.2-20.3,9.1c-1-1-2-1-3-1v1c0,3.2,2.1,5.2,3.4,6.1
			c0,0,2.8,3.7,5.1,3.7c1,0,1.5,0.2,1.7,0.3c-1.8,1.4-1.1,3.7-1.7,5.4c2.3,2.6,4.3,3.9,1.7,4.7c-2.6,0.9-3.5,0.2-4.7,1.7
			c-1.2,1.5-1,3.5-2,4.7c-1,1.2-3.2,2.4-3.7,3.4c0.4,2.9-2.3,2.1-1.7,4.7c-0.1,0.1-0.3,0.2-0.3,0.3c0.7,0.7,3.4,2,2.7,3
			c-1.4,2,2.7,2.9,2,4.1c-0.7,1.2-1.5,0.3-1,1.7c0.5,1.4-0.9,1.9,0.3,2.7c1.3,0.8,1.8,0.5,2,1.7c0.2,1.2,2.1,0,2.4,0.7
			c0.3,0.7-1.8,0.8-0.3,2.4c1.5,1.6-0.7,1,0,3c0.7,2,1.9,2.8,0,3.7c-1.9,0.9-1.5,0.4-1.7,2.7c3.5,1.7,4-1.1,6.8,0
			c2.8,2.5,7.1,3.5,10.1,4.7c1.2,2.5,3.4,0.7,4.7,1c0,0-0.6-1.1,1.4-0.7c2,0.4,0.5,1.4-0.3,1.7c-0.9,0.3,1.6,1.3,2,2.4
			c-2.8,3.9-0.7,5.4-1,8.1c0.4,0.7,2.8,0.8,4.4,2c4.2,3.4,9.2,5.9,13.5,8.1c4.6,2.3,8,1.6,11-0.3c0.2,0.1,0.5,0.3,0.7,0.4
			c3.7,0.8,3.6-0.6,3.7-4.4c1.1-1.3,2.2-2.6,3.2-4c0.3,0,0.6,0,1,0.1c3.7,0.4,3.8-0.4,3.2-1.7c-0.6-1.3,1.1-1.7,1.1-1.7l1.2-4.1
			c1.6-1.2,3.3-2,5.4-1.6c0.7,0.1,1,0.3,1.5,0.4l1.8,4.7l5.9,1.5c-1.2,4.2-7.4,8.9-3.1,10.7c16.3,8.1,2-2,18.3,0
			c8.1,1,16.5,22.3,32.8,13.2l13.2-27.4c8.1-6.1,43.6-2,52.7-3c14.9-1,26.8-13.5,41.6-14.1c0.1,0,0.2-0.1,0.3-0.1
			c7.4-0.7,7.4-1.4,6.7,3.4c-0.7,4.8-2.4,4.3-8.1,5.3c-5.7,1,0,8.4,1.2,10.8c0.5,0.9,0.1,2.2-0.4,3.4c3.1,0.4,6.5,1.2,9.4,5.6
			c2,3.1-3.1,7.1-1,11.2c1,2,4.1-2,6.1,0c19.3,14.2,34.4,18.6,60.9,22.7c32.4,10.1,29.2-1.4,64.6,6.1c0.2,0.2,0.5,0.2,0.7,0.3
			c0-0.3,0-0.7,0-1c8.7,3.5,14.9-1,18.6,2.4c8.5,5.8,13.2-1.5,24.3,8.1c8.1,1,17.6-8,25-0.3c3.4,4.2,4.9-4.2,10.1,6.4
			c2,1,1-7.8,3-8.8c9.4-1,5-10.1,16.9-10.1c4-3,1.3-8.5,8.1-15.6c2.7,4.1,3.2-1.9,5.1-2.4c3.2-0.7,1.4,8.6,5.7-1
			c2-4.5,11.2-3.6,15.6-3c8.6,1.1,14.7-2.8,18.9-2.4c8.5,0.8,4.9,7.9,11.2,4.4c6.1-3.1-3.1-7.3,14.5-13.9c13.5,4.1,10-10.7,33.1,4.1
			c3-1-3-6.4-4.1-9.5c-2-10.6,3.6-15.8,11.8-18.3c0.5-0.1,0.9-0.3,1.4-0.3c0.2-0.3,3.1-3.8,7.1-9.5c4.6-10.4,12.9-12,18.3-10.1
			s7.3,3.5,5.7-4.1c-1.5-7.6-0.3-10.8,2.4-13.9c2.7-3-5.8,2.9-8.1-2.4s1.4-10.1,4.1-13.9c2.7-3.8-1.1-2.5-3.7-7.8
			c-2.7-5.3,0.8-4.7-0.3-11.2c-1.1-6.4,11.8,2.9,15.2-2c3.4-4.9,4.7-4.4,2-10.5c-2.7-6.1,4.3-5.8,2-11.2c-2.3-5.3-13.7-1.3-18.6-5.1
			c-4.9-3.8-3.8-7.8,0-10.8c3.8-3,3.7-11.7,13.2-7.1c9.5,4.6,16,6.7,18.3,4.1s12.1,3.8,15.6-0.3c3.4-4.2,7.4-5.1,4.7-11.2
			c-2.7-6.1,0.4-4.8-6.1-10.8c-6.4-6.1,3.6-0.2,4.7-7.8c0.9-6.2-4.6-14.8,1.7-16.9c-0.1-0.2-0.2-0.5-0.3-0.7
			c-12.2-13.2-22.3-26.3-31.4-41.6c-8.1-13.2,21.3-34.8,0-50c-3.1-2-7.1,4.1-10.1,4.1c-5.1-1-15.2-14.2-22.3-12.2
			c-5.1,2-7.4,10.1-13.5,13.2c-4.1,1-9.1-1-13.2-1c-27.5-3.1-50.6-25.4-80.1-25.4c-5.1,0-9.1,6.1-14.2,6.1c-2-1,0-6.1-2-7.1
			C1787.8,757.9,1785,756.6,1782.3,756.3L1782.3,756.3z"/>
		<path id="cz" class="st2" d="M1697.6,497.3c-2,5.1,16.3,9.1,12.2,12.2c-12.2,10.2-29.5,11.2-41.7,18.3c-2,1,0,6.1-2,7.1
			c-8.1,4.1-19.3-2-25.4,3c-5.1,4.1-3,12.2-8.1,16.3c-2,2-4.1-5.1-7.1-4.1c-9.1,2-10.5,14.2-16.6,18.3c-3,3.1-9.1-2-12.2,1
			c-3,2,0,8.1-3,11.2c-4.1,5.1-15.2-4.1-18.3-4.1c-25.4,4.1-29.5,23.4-37.6,39.6c-2,4.1-2-10.2-6.1-13.2c-2.8-3.8-6.5-10.2-10.2-7.5
			c-3.1,2.3,3.1,5.1,0.3,6.8c-0.9,0.5-1.8,0.9-2.4,1.4c0.4,1.1,0.8,2.2,3.4,4.1c2.6,1.9,6.5,3.5,6.1,7.5c-0.1,1.5,0,3.8,0,6.1
			c5.2,7.4,11.8,14.6,19,19.3c2,1,9.1,2.4,10.2,8.5c3,14.2-10.2,9.1-12.2,20.3c12.8,10.2,13.3,16.2,24.4,43.4
			c4.5,0.3,7.9,1.1,10.8,6.8c0.7,1.4-3,3.5-1.4,4.7c6.3,4.7,15.3-2.6,23,5.1c7.1,7.1,8.1,18.3,15.2,24.4
			c14.2,10.2,50.1,23.4,57.2,43.7h1c16.3,8.1,28.4,29.5,49.8,21.3c4.1-1,3-9.1,7.1-9.1c7.1,0,14.2,9.1,21.3,7.1l8.1-26.4
			c4.1-3.1,11.2,4.1,13.2,1c2-2,0-31.5,1-33.5c3-3.1,9.1-1,13.2,1c2,1,0,6.1,2,7.1c5.1,0,9.1-6.1,14.2-6.1
			c29.5,0,52.8,22.4,80.3,25.4c4.1,0,9.1,2,13.2,1c6.1-3.1,8.1-11.2,13.2-13.2c7.1-2,17.3,11.2,22.4,12.2c3,0,7.1-6.1,10.2-4.1
			c5.1,4.1,7.1,8.1,7.1,12.2c15.2-60,48.8-9.1,79.3-47.8c2-3.1-1-8.1,1-11.2c3-4.1,10.2-2,13.2-6.1c0,0,8.1-31.5,8.1-32.5
			c9.2-16.3,33.5-29.5,50.8-37.6c-4.1-5.1-1-14.6-5.1-19.6c-4.1-4.1-12.2-1-16.3-4.1c-1-1-10.2-25.4-11.2-26.4
			c-5.1-4.1-14.2-1-20.3-3c-5.1-1-16.3-4.1-20.3-7.1c-2-1-2-5.1-4.1-4.1c-17.3,7.1,16.3,9.1-13.2,12.2c-2,0-5.1-1-7.1-3
			c-3-3.1-2-8.1-5.1-11.2c-4.1-3.1-18.3-4.1-14.2-7.1c13.2-12.2,21.3,3.1,9.1-21.3c0-1-2-1-3,0c-1,2,0,6.1-2,7.1
			c-4.1,2-9.1,0-13.2,0s-9.1,2-13.2,1c-9.1-3.1-26.4-18.3-41.7-16.3c-6.1,1,16.3,23.4,15.2,25.4c-3,6.1-13.2,4.1-18.3,8.1
			c-3,3.1-2,10.2-6.1,12.2c-15.2,6.1-21.3-20.3-24.4-24.4l-23.4-14.2c-2-13.2,36.6-18.3,9.1-31.5c-5.1-3.1-27.4,9.1-27.4,9.1
			c-3-3.1,0-8.1-3-11.2c-1-2-4.1,0-7.1,1c-1,0-2,3-4.1,2c-2-3.1-1-8.1-5.1-11.2c-13.2-8.1-26.4,1-42.7-12.2
			c-11.2-8.1,4.1-16.3-14.2-18.3c-28.5-5.1,7.4,25.3-24.1,20.8c-2,4.1-2.3,7.6-5.3,7.6c-1.8,0.4-3.8-0.4-5.8-1.7
			c-3.8-0.6-7.8-1.6-6.5-6.4c1.3-4.8,2.5-8.9-1.3-6.8c-1.3,0.7-2.4,1.9-3.4,1.7c-1-0.2-1.4-1.5-0.6-5.4c0.8-3.8,0.7-4.6-7.6-6.5
			c-0.9-0.2-1.5-0.2-2.4-0.3c-0.6-0.6-1-1.5-1.9-1.5c-0.9,0-1.5,1.3-3.7,1.4c-2.2,0.1-3.7-3.6-6.5-4.5
			C1701,487.7,1699.3,492.3,1697.6,497.3L1697.6,497.3z"/>
		<path id="sk" class="st2" d="M2329.9,635.5c-5.6,0.3-10.4,1-14.2,2c-3,0-3,6.4-6.1,7.5c-4.1,2-10.2-12.2-13.2,2c0,2,6.1,2,5.1,4.1
			c-3,5.1-8.1,11.2-14.2,11.2c-8.1,0-13.2-11.2-21.3-12.2c-4.1-1-6.1,5.1-10.2,6.1c-4.1,0-8.5-4.1-12.5-3
			c-14.2,3.1-26.4,34.6-27.4,35.6c-4.1,2-8.1-6.1-12.2-5.1c-5.1,1-14.2,9.1-14.2,4.1c0-2,6.1-21.3-1-24.4c-4.1-2-9.1,3-14.2,2
			c-2-1,2-5.1,1-7.1c-1-1-5.1,2-6.1,1c-5.1-5.1-5.1-14.6-11.2-18.6c-10.2-7.1-23.4,45.1-39.6,31.8c-3-3.1,2-10.2-1-13.2
			c-3-3.1-10.2,2-12.2-1c-17.3,8.1-41.7,21.3-50.8,37.6c0,1-8.1,32.5-8.1,32.5c-3,4.1-10.2,2-13.2,6.1c-2,3.1,1,8.1-1,11.2
			c-30.5,37.6-64-12.2-78.2,47.8c1,13.2-14.2,27.4-8.1,37.6c9.2,15.3,19.3,28.4,31.5,41.7c2-1,5.1-2,9.1-1
			c18.3,2,32.5,28.5,51.8,32.5c12.2,2,98.6-13.2,94.5-20.3c-4.1-6.1-18.3-20.3-5.1-28.5c14.2-10.2,45.7-3,56.9-14.2
			c4.1-4.1-1-13.2,2-18.3c8.1-14.2,26.4,8.1,34.5,7.1c25.4-4.1,2-11.2,18.3-21.3c4.1-2,10.5,2,14.6,1c11.2-5.1,7.1-32.5,13.2-40.7
			c15.2-19.3,37.6-1,54.9-4.1c10.2-1,16.3-15.2,26.4-15.2c25.4,1,10.2,20.3,29.5,26.4c3.1,2,7.1-3,11.2-4.1c8.1-2,17.1-1.8,22.7-7.8
			c0.1-0.2,0.5-0.8,0.7-1c-0.3,0-0.4,0-0.7,0c0-8.1-6.8-16.9-4.7-24.1c1-7.1,10.2-9.1,13.2-16.3c3-6.1,2-13.2,3-20.3
			c1-9.7,8.9-23.1,8.6-33.1c-1.7-0.8-3.6-0.8-5.6-1.4c-9.1-1-11.8-1.7-21-4.7c-7.1-2-14.2-2-20.3-6.1c-4.1-2-3-9.1-6.1-12.2
			C2368.8,637.3,2346.7,634.5,2329.9,635.5L2329.9,635.5z"/>
		<path id="hu" class="st2" d="M2348.3,749.8c-10.2,0-16.3,14.2-26.4,15.2c-17.3,3.1-39.6-15.3-54.9,4.1c-6.1,8.1-2,35.6-13.2,40.7
			c-4.1,1-10.5-3.1-14.6-1c-16.3,10.2,7.1,17.3-18.3,21.3c-8.1,1-26.4-21.3-34.6-7.1c-3,5.1,2,14.2-2,18.3
			c-11.2,11.2-42.7,4.1-56.9,14.2c-13.2,8.1,1,22.4,5.1,28.5c4.1,7.1-82.3,22.4-94.5,20.3c-19.3-4.1-33.5-30.5-51.8-32.5
			c-4.1-1-5.7-0.5-9.6,1.2c-3.8,1.7,0,11.4-0.9,17.4c-1.1,7.6-11.2,1.7-4.7,7.8c6.4,6.1,3.4,4.8,6.1,10.8s-1.3,7-4.7,11.2
			c-3.4,4.2-13.3-2.3-15.6,0.3c-2.3,2.7-8.8,0.5-18.3-4.1c-9.5-4.6-9.4,4.1-13.2,7.1s-4.9,7,0,10.8s16.4-0.2,18.6,5.1
			c2.3,5.3-4.7,5.1-2,11.2c2.7,6.1,1.4,5.2-2,10.2c-3.4,4.9-16.4-4.4-15.2,2c1.1,6.4-2.3,5.9,0.3,11.2c2.7,5.3,6.4,4,3.7,7.8
			c-2.7,3.8-6.3,8.6-4.1,13.9c2.3,5.3,10.8-0.7,8.1,2.4c-2.7,3-3.9,6.3-2.4,13.9c1.5,7.6-0.4,6-5.8,4.1c-5.3-1.9-13.7-0.3-18.3,10.2
			c-3.9,5.5-6.4,8.7-6.8,9.1c-0.5,0.2-0.9,0.5-1.4,0.7c0.3-0.1,0.7,0.1,1,0l9.5-1.4c1.5-0.1,2.9-0.3,4.4-0.3c0.5,0,0.9,0.5,1.4,1.4
			c4.1,5.7,10.8,32.4,29.8,47.8c0,0.1,0,0.2,0,0.3c0.6,0,1.3,0.3,2,0.7c1.8,0.8,4.1,0.7,4.1,0.7l5.4,8.5l2-1.4l1,2l5.1-0.3l1,1h2.4
			c2.7,4.4,5.7,5.7,5.4,11.9c3.2,1.2,4.6,3.2,6.8,4.7l2-0.3l0.3,2.4c7.7,2.1,14.7,4.3,17.6,7.1c-4.8,5.3,0.7,1,2.7,3
			c10.9,11.2,10.3,12.7,8.8,15.2c3.7,0.9,3.1,3.6,8.1,2c-1.3,2.1-3.1,1.5-2.7,3.7c1.9-1.2,3.7-2.8,5.8-3.7c1.3,2.6-1.6,3.1,2,4.1
			c0.2,1-1.4,0.8-2.4,0.7c-3.8,2.2,6.3,5,6.8-0.3c3.1,0.6,7.6,2.6,11.2,0.7c3.8,2.8,7.2,4.6,9.5,8.5c6.9,4.5,14.1,4.3,21.7,11.5
			c1.3-3.2,9.3-6.7,13.6-3.4l7.5,0.7c3.6-2.8,7.6-5.4,13.2-1c1.9-0.1,3.9,1.5,5.4-0.3l4.1,1c0.6,0,6.1-5.9,6.1,0.3
			c1.5-1.3,6.6,2.7,4.1-3.7c2.4-0.5,5.7,0,3.7-4.4l2,1c1.6-1.3,5.5-1.5,5.1-4.1c1.6-0.9,5.5-3.7,3.7-5.8c1.9-4.5,2.3-2.9,3-8.8
			l3.7-1c3.5,1.7,5.9,4.1,10.5,4.1c0.1-1.7-1.5-3.6,0.3-5.1c0.7,1.1,4.6,1.7,4.1-1.4c0,0,0.7,0,1,0c0.1-0.3,0.3-0.4,0.3-0.7
			c3.3-3.5,12.3,2,9.5-4.7c-1-1.9,7.7-1.9,7.1-5.8c-0.4-3.1,0.7-4.7,2.4-7.8c4.6-3.8,0.7,6.5,11.2,5.1c11-1.5,5.5-4.4,7.1-6.4
			c4.7-6,5.2-0.6,7.5-2.4c4.6-3.6,8.1-9.4,10.2-13.9c4.2-9.3,5-4.6,8.1-6.4c13.9-8.4,5.8,1.7,18.6,3c7-3,8.6-5.7,12.5-7.1
			c8.3-3,7.1,6,10.8,0.3c2.2-3.2,3.9,2.6,8.8-0.3c3.5-2.1,6.1,3.1,10.2,4.4c-0.2-0.7-0.3-1.6-1-2.7c3.4-11.7,38.7-8.4,46.4-13.2
			c0.6-0.6,1.2-1.1,1.4-1.7c2-4.1-13.2-9.1,5.1-12.2c3.6-0.5,7.1,1,10.5,2.4c1.7,0.7,3.4,1.3,5.1,1.7c1.6,0.4,3.2,0.5,4.7,0
			c3.6-1.3,6.4-3.7,8.5-6.8c9-13.2,5.7-39,9.8-48.1c2-3.1,7.1-3,9.1-6.1l11.2-35.6c1-2.5,2.4-4.8,3.4-7.1c0.5-1.1,1-2.2,1.4-3.4
			c0.3-1.2,0.3-2.5,0.3-3.7c0-0.5-0.2-1-0.7-1.4c-1-0.6-2.8-0.7-3.7-1.4c-0.5-0.3-0.7-0.8-0.7-1.4c0.3-2.3,1.1-5.7,2.4-9.8
			c3.8-12.2,11.1-29.8,14.9-35.9c1-1,2.9-0.9,4.4-1c0.8-0.1,1.5-0.4,2-0.7s0.7-0.6,0.7-1.4c5.1-19.3-2-33.5,20.3-54.9
			c1.8-2,3.5-3.3,5.4-4.1c1-0.4,2-0.5,3-0.7c4.1-0.7,8.7-0.3,13.9-1.4c1.3-0.3,2.7-0.5,4.1-1c8.4-3.8,11-13.4,15.2-21.3
			c0.7-1.3,1.5-2.5,2.4-3.7c0.8-1.2,1.7-2.4,2.7-3.4c-12.2-10.2,4.1-8.1-9.1-17.3c-2-1-5.1-3-8.1-3c-4.1,1-7.1,6.1-11.2,5.1
			c-6.1-4.1-6.8-13.2-12.9-17.3c-3-2-8.1,3-11.2,2c-16.1-6-3.6-17.8-23.7-18c-0.1,0.1-0.2,0.2-0.3,0.3c-2.9,5.9-14.9,6.4-23,8.5
			c-4.1,1-8.1,6.1-11.2,4.1C2358.4,770.1,2373.7,750.8,2348.3,749.8L2348.3,749.8z"/>
		<path id="ad" class="st2" d="M522.2,1594.5c-45.7,13.2-20.3-24.4-18.3-24.4C530.3,1568.1,532.4,1581.3,522.2,1594.5z"/>
		<path id="sm" class="st4" d="M1579.6,1438.8c-0.5-0.1-1.3,0.6-3,2c-3.6,2.9-6.8,3.8-6.1,8.5c0.7,4.7,1.7,0.2,7.5,3.4
			c6.5-3.2,4.5-7.3,3-10.8C1580.3,1440.1,1580.2,1438.9,1579.6,1438.8z"/>
		<path class="st2" d="M712.4,465.1c-11.2,2-23.4,3-35.6,4.1c-9.1,1-42.7,3.1-46.8,15.3c-2,5.1-10.2,53.9-10.2,61
			c0,3.1,5.1,3,5.1,5.1s-4.1-2-6.1,0c-2,2-3,7.1-2,10.2c0.7,4.1,5.7,7,8.1,10.2c-6.8-2.5-9.7-1.4-15.9,10.5c-0.4,0.8-0.4,1.4-0.7,2
			c-0.9,0.3-2,0.3-2.7,0.7c-7.1,4.1-12.2,10.2-19.3,13.2c-18.3,10.2-86.4,12.2-96.5,28.5c-11.3,19.4-7.5,27.8,0.3,31.5l5.7,1
			c-6.6,1.3-11.3,2.1-14.9,5.1c-7.5,6.1-23.7,12.9-34.6,6.1c-10.8-6.8-19.6-10.2-30.5-10.8c-10.8-0.7-35.2-12.2-40.6-5.4
			c-5.4,6.8-4.8,0-4.1-4.7c0.7-4.7-9.5-8.8-11.5-16.3c-2-7.5,10.2-7.4,6.8-16.9c-3.4-9.5-18.3-4.7-22.4-0.7
			c-4.1,4.1-12.9-0.7-21-4.1c-8.1-3.4-17.6-7.5-21.7-7.5c-4.1,0,0.7,6.1,6.1,8.8c5.4,2.7,5.4,10.2,1.4,13.6c-4.1,3.4,2,2,2,10.8
			s4.7,8.1,10.2,17.6c5.4,9.5,2.7,11.5,8.8,16.3c6.1,4.7-1.4,0.7-2,14.9c-0.7,14.2,6.1,5.4,2,20.3c-4.1,14.9-6.1,28.5,4.1,31.8
			c10.2,3.4,10.8,7.5-4.8,6.8c-15.6-0.7-32.5,5.4-28.5-5.4c4.1-10.8-0.7-12.2-8.1-8.1c-7.5,4.1-8.8,4.7-8.8,4.7s-6.8-3.4-10.2,0.7
			c-3.4,4.1-10.2,5.4-7.5-1.4c2.7-6.8-1.3-10.8-14.2-5.4c-12.9,5.4-27.8,15.6-27.8,15.6L212,733l0.7-9.5l-10.8-10.2l3.4-4.7
			c0,0-12.9,4.7-8.8-2c4.1-6.8,6.8-11.5,6.8-11.5c0,0-4.1-2-6.1,1.4c-2,3.4-4.7,4.1-4.7,4.1s4.1-8.1-2.7-6.1
			c-6.8,2-10.2,4.8-10.2,4.8s2-8.8-2.7-6.8c-4.7,2-10.1,9.5-17.6,4.1c-7.5-5.4-8.1-2.7-8.1-2.7l-8.1,2.7c0,0-0.7,8.1,4.1,8.8
			c4.7,0.7-6.1-0.7-4.1,5.4c2,6.1-5.4-2.7-18.3-5.4c-12.9-2.7-4.7,10.2-4.7,10.2s-4.7,0.7-10.2-11.5c-5.4-12.2-5.4-1.4-17.6,0
			c-12.2,1.4-14.9,8.8-19,2c-4.1-6.8-24.4,4.8-34.5,6.1c-10.2,1.4-9.5,16.3-7.5,22.4c2,6.1,11.5,7.5,21,4.1
			c9.5-3.4,25.1-4.8,25.1-4.8s-19.7,4.1-16.3,8.1c2.5,3,9.7,2.3,13.9,1.7c-0.8,0.4-0.6,1.3,2.4,3c6.8,4.1-3.4,6.8-13.6,2
			c-10.2-4.7-8.1-9.5-14.9-4.1c-6.8,5.4,5.4,2,2.7,9.5c-2.7,7.5,1.4,5.4,6.8,2c5.4-3.4,7.4,4.1,13.5,5.4c6.1,1.4,10.9,14.9-4.7,10.8
			s-31.9-4.1-33.9,1.4c-2,5.4,27.1,6.1,28.5,17.6c1.4,11.5,8.1,8.8,2,14.9s6.1,8.8,14.9,8.1c8.8-0.7,2-13.6,8.1-8.1
			c6.1,5.4,12.2,6.1,13.5,1.4c1.4-4.7,2,4.1,12.2,11.5c10.2,7.5,14.2,5.4,21.7,8.8c7.5,3.4,6.8,10.2,12.2,10.8
			c5.2,0.6,5.6-2.9,10.8-6.8c-1.9,2.1-4.1,5.8-2,9.5c4.1,7.5,14.2,2.7,14.2-3.4s11.5-2,2.7,4.8c-8.8,6.8-3.4,1.4-4.8,12.9
			c-1.4,11.5,4.8,15.6,4.8,7.5c0-8.1,4.1,0,10.8-4.1c6.8-4.1,6.1-5.4,10.2-1.4c4.1,4.1,9.5-2,13.5,2c4.1,4.1,0,10.8-10.2,6.8
			c-10.2-4.1-4.1-1.3-0.7,6.1c3.4,7.5,14.2-4.1,23,0c8.8,4.1,12.2,4.7,7.5,10.2c-4.7,5.4,11.5,4.7,0,7.4s-6.1,0-6.8,8.8
			c-0.7,8.8,2.7,7.5,10.8,10.8c8.1,3.4,8.8,5.4,15.6,0.7c6.8-4.7,15.6-9.5,27.1,1.4c11.5,10.8,11.5,14.9,16.2,14.9
			s-4.7,5.4-17.6-6.1c-12.9-11.5-19.6-11.5-22.4-2.7c-2.7,8.8,1.4,10.2-7.4,9.5c-8.8-0.7,4.1,1.4,10.8,6.8
			c6.8,5.4,12.9,8.1,4.1,16.2c-8.8,8.1-13.5,12.9-12.2,21.7c1.4,8.8,16.3,17.6,17.6,33.9c1.4,16.3,2,14.9,2,14.9
			c0,0,29.8,12.9,28.5,20.3c-1.4,7.5,8.1,2.7,12.2,9.5c4.1,6.8,3.4,10.8,10.2,3.4c6.8-7.5,8.1,3.4,4.1,8.8c-4.1,5.4-5.4,2.7-8.8,8.8
			c-3.4,6.1,2.7,0.7,4.8,6.1c2,5.4,6.1,15.6,4.7,19.7c-1.4,4.1-8.1-2.7-6.1,6.1c2,8.8-5.4,10.8-5.4,16.3v6.1c0,0-6.8-7.5-10.2,2
			c-3.4,9.5-3.4,4.7,4.1,9.5c7.5,4.7,16.3,19.7,23.7,29.8c0.1,0.2,0.2,0.2,0.3,0.3c0.6,1,1.2,2,1.7,3c5.4,28.5-0.1,45.2,15.9,63
			l-1.7,9.5c-0.5-1.4-1.3-2.7-2.7-4.1c-7.5-7.5-7.5-6.8-8.1-19.7c-0.7-12.9-2.7-20.3-6.8-35.2c-4.1-14.9-8.8-6.1-12.2-12.9
			c-3.4-6.8,2.7-16.3-4.1-12.9c-6.8,3.4-6.8,4.1-8.8,15.6c-2,11.5-10.2,36.6-13.5,56.2c-3.4,19.6-16.3,44.1-11.5,44.7
			c4.7,0.7,6.1-16.9,10.8-10.8c4.7,6.1,10.8,15.6,4.1,16.2c-6.8,0.7-10.2-2.7-12.2,2c-2,4.7-5.4,10.2-5.4,10.2
			c0,0-26.4,85.4-37.3,113.8c-10.8,28.5-11.5,10.8-12.9,19c0,0.2,0,0.5,0,0.7c-3.1,0.4-6.3,0.6-9.5,0.7c-4.1,2-8.1,3.1-14.2,4.1
			c6.1,6.1,17.3,16.2,17.3,16.2c2,1,1-4.1,2-4.1c5.1,1,11.2,3.1,14.2,7.1c9.1,10.2-20.3,22.3-7.1,28.4c6.1,2,12.2-9.1,14.2-7.1
			c1,2-2,7.1,0,9.1c14.2,13.2,36.6,8.1,49.8,18.3c1,1,11.2,24.7,12.2,24.7c13.2,10.2,26.4-8.1,40.7,4.1c7.1,6.1,2,19.3,15.3,19.3
			c6.1,1,10.1-5.1,16.2-4.1c6.1,1,9.2,8.1,15.3,9.1c3,0,3-6.1,6.1-6.1c10.2-1,19.3,7.1,30.5,8.1c0,0-4.7-23.4,7.5-21.3
			c17.3,3.1,27.4,15.2,38.6,25.4c1,1,4.1,0,6.1,0c5.1,1,11.2,1,14.2,4.1c5.1,4.1,2,13.2,7.1,16.3v1c2-5.1,5.1-9.1,6.1-9.1
			c26.4-2,28.5,11.2,18.3,24.4c7.1,3.1,15.2,5.1,20.3,9.1c2,2,3,13.2,9.1,12.2c8.1-1,15.2-6.1,24.4-6.1c10.2,0,27.4,20.3,37.6,17.3
			c4.1-1,0-9.1,3-11.2c15.2-10.2,33.5-1,49.8,3h4.1c-6.1-5.1-12.2-10.2-14.2-16.3c-7.1-20.3,6.1-15.2,1-33.5c-1-3.1-8.1-2-8.1-5.1
			c1-11.2,14.2-17.3,16.3-27.4c0-3.1-5.1-7.1-3.1-9.1c12.2-17.3,32.5-13.2,42.7-18.3c11.2-6.1,27.4-26.8,38.6-32.9
			c10.2-6.1,20.3,7.1,28.5,11.2c3,2,38.6,6.1,39.6,10.2c1,4.1-13.2,25.7,19.3,12.5c2.3-1,2.1-2.2,0.7-3.7c-4.3-4.5-19.5-11.8-8.8-24
			c2.6-3.5-0.9,17.8,8.8,24c1.5,0.9,3.3,1.6,5.4,1.7c7.1,1,15.2-2,20.3-7.1c3-4.1-8.1-15.6-2-16.6c7.1-1,18.3,5.1,18.3,13.2
			c-1,8.1-19.3,5.4-20.3,13.5c-1,6.1,11.2,4.1,17.3,4.1c4.1,0,8.1-7.1,10.2-4.1c4.1,5.1-1,15.2,4.1,20.3c5.1,5.1,13.2,4.1,20.3,6.1
			c4.1,0,7.1-1,10.2,0c14.2,7.1,7.1,12.2,7.1,14.2c1,2,4,2,7.1,2c3.1,1,7.1,1,9.1-1c2-2-12.2-8.1,1-7.1c20.3,1,13.2,15.2,22.4,12.2
			c8.1-3.1,14.2-12.2,23.4-14.2c6.2-0.9,14.9,2.8,20.3,0.3c0.3,1.7-0.5,1.8,2,0.7c4.4-2,3-3.4,4.1-7.8c1-4.4,6.1-6.8,0.7-6.4
			c-5.4,0.3-8.8-1-1.4-3.4c6.2-2,6.1-5,6.4-9.5c1.1-2.1,1.3-4.5,2-6.1c0.1-0.2,0.5-0.2,0.7-0.4c2-0.6,5.3,0.9,9.5,2.4
			c6.8,2.4,8.1-3.1,11.5-9.5c3.4-6.4-1-6.1,6.4-8.8c1.1-0.4,2.1-0.5,3-0.7c0.1,0,0.2,0,0.3,0c1.9,0.2,3.8,0.1,5.4-0.3
			c0.6,0,0.9-0.3,1.4-0.3c0.2-0.1,0.5-0.2,0.7-0.3c0.6-0.2,1-0.4,1-1.4c0-0.1,0-0.3,0-0.3c0.6-1.4,0.6-3,0.3-4.8
			c-0.1-0.3,0.1-0.7,0-1c0.7-1.9,2.5-3.7,7.1-6.1c7.5-3.9,9.2-5.2,11.2-3.7c0.1,0-0.1,0.3,0,0.3c0,1,0.2,2.2,0.7,2.7
			c1,0,0.7-0.9,0.3-2c0.1,0.1,0.2,0.2,0.3,0.3c1.3,1.4,3.1,1.2,5.4,0c-0.1-0.4-0.3-1-0.3-1.4c-0.3-0.1-0.7,0.1-1,0
			c-2.9-1.2-2.3-4,3-7.5c1.3-0.9,2.6-1.5,3.4-1.7c2.1-0.5,2.1,1.3,2,3.7l2,0.3c2.1-1.6,3.3-2.6,6.1-4.8c0,0,0-0.1,0-0.1
			c-0.2,0-0.5,0.1-0.7,0.1c-0.1-0.3-0.1-0.7-0.2-1c-0.1,0-0.2-0.1-0.2-0.1c-0.2,0-0.4-0.1-0.7-0.3c-0.1-0.1-0.2-0.2-0.3-0.3
			c-0.2-0.3-0.4-0.6-0.7-0.9c-0.4-0.6-0.7-1.5-1-2.3c-0.3-0.8-0.6-1.4-0.8-2.2c-0.3-1-0.3-1.8-0.4-2.7c-0.1-0.8-0.3-1.6-0.3-2.3
			c0-0.2,0.1-0.4,0.2-0.6c0.1-0.4,0.1-0.8,0.3-1c0.3-0.4,0.6-0.7,1.1-0.8c4.7-0.7,6.4-3.4,6.8-6.8c0.1-1.1,0.1-1.9,0.4-2.5
			c0.1-0.1,0.1-0.4,0.1-0.5c0.3-0.3,0.7-0.6,1.4-0.8c0,0,0.1,0,0.2,0c0.6-0.2,1.2-0.3,2.3-0.5c2.8-4.4,5.4-8.5,7.2-12.4l8-5.3
			c0,0-3.5,0.5-5.9-0.7c-1.3-0.6-2.4-1.6-2.2-3.7c0.1-1.2,0.3-2.2,0.5-3.3c-0.5-0.6-1-1.1-1.6-1.7c-5.1-3.1-12.2,1-18.3,2
			c-4.7,0-9.9,0.9-14.9,0.8c-2.7-2.2-6.8-5.3-11.9-8c-4-2-9-2.8-12.5-3.6c-9.5-7.5-17.5-16.9-16.9-25.1c0-2,5.1-2,5.1-4.1
			c-0.2-0.7-1-1.3-1.9-2c-1.1-0.9-2.4-1.8-3.5-2.8c-2.4-1.9-4.2-4.2-2.7-7.4c4-4,8.9-7,12-11.9c-0.4-0.6-0.7-1.1-1-1.7
			c-0.3-0.6-0.4-1.2-0.4-1.8c0-0.1-0.1-0.2-0.1-0.2c0-0.6,0.1-1.3,0.4-1.9c0,0,0,0,0,0c0.3-0.7,0.8-1.3,1.4-1.9
			c1.5-1.5,2.3-2,3.4-1.8h0c1.1,0.1,2.4,0.9,5.2,1.6c0.6,0.1,1,0.2,1.4,0.2c0-1.5-0.2-2.9-0.3-4.4c-0.7-0.7-1.5-1.5-2.5-2
			c-4.1-2.2-3.6-8.4-2.2-13.9c0.2-0.6,0.2-1.2,0.2-1.6v0c-0.1-0.1-0.3-0.2-0.4-0.4c-0.7-0.7-1.3-1.5-2.3-2.3
			c-0.9-0.1-1.9-0.1-2.9,0.1c-1.1,0.2-2.2,0.5-3.2,0.8c-4.1,1.4-7.9-1.2-12.7-5.5c-1.7-1.5-2.4-2.8-2.8-4.3
			c-0.1-0.2-0.2-0.4-0.2-0.7c-0.2-1.2,0-2.7,0.1-4.2c2.1-4.3,0.8-5.9,0-9.1c-0.7-2.9-5.4-2.2-8.5-1.6c-2.1-3.1-3.4-6.3-2.9-9.7
			c0-5.1,9.1-5.1,14.2-6.1c0.9,0,1.7,0.5,2.5,1.2l0,0c0.6,0.5,1.1,1.2,1.7,1.8c0.6,0.7,1.2,1.3,1.9,1.7c1.9-2,4-4.1,5.5-5
			c2.6-1.5,7.4-6.2,14.4-8c9.1-8.4,17.5-18.3,14.7-23.3c-3-6.1-13.2-7.1-16.2-14.2c-3.1-4.1,1-11.2-1-15.3
			c-14.2-24.4-40.7-12.2,6.1-39.6c-2-3-3-6.3-4.1-9.4c0,0,0-0.1,0-0.1c0-0.1-0.1-0.2-0.1-0.3c-1.2-3-2.5-6-5-8.4
			c-0.5-1-1.7-0.1-2.9,0.9l-0.1,0.1c-0.6,0.5-1.2,0.9-1.7,1.2c-0.6,0.3-1.1,0.4-1.4-0.2c-1-3.1,4.1-8.1,2-11.2c-1-3.1-7.1,0-9.1-2
			c-6.1-10.2,8.1-9.5,7.1-15.6c-0.2-1.2-0.8-2.2-1.5-3.2c-1.4-2-3.4-3.6-4.6-5.6c-0.6-1-1-2.1-1-3.4c-0.9-2.6,5-7.5,4.1-9.4
			c-0.2-0.2-0.5-0.5-0.9-0.6c-13.2-6.1-41.7-6.1-50.8,8.1c-0.4,0.4-0.7,0.8-0.9,1.2c-0.2,0.4-0.3,0.8-0.3,1.3v0
			c-0.1,0.9,0,1.9,0.1,2.9l-0.8-0.2c0.6,1.9,1.4,3.9,2.6,4.8c0.4,0.3,0.8,0.5,1.3,0.5c0.9,0.1,1.5,0.2,1.9,0.4
			c1.2,0.6,0.4,1.8-1.2,3.9c-0.5,0.7-1.2,1.1-2,1.4c-0.6,0.2-1.3,0.4-1.9,0.5c-0.2,0.1-0.4,0.1-0.7,0.2c-1.8,0.4-3.6,1-4.6,3.2
			c-1.1,2.2-3.6,3.3-6.4,3.8c-2.7,0.5-5.6,0.2-7.3-0.5c-1.7-0.7-4.5,0.2-6.9,1c-1.2,0.4-2.2,0.7-2.9,0.7c-0.7,0-1-0.3-0.8-1.1
			c0.2-0.8,0.7-1.6,1.2-2.3v0c0.5-0.7,1-1.4,1.5-2c0.9-1.2,1.3-2.2,0-2.9c-1.3-0.7-1.4-1.6-0.6-2.5c0.4-0.5,1-0.9,1.8-1.3
			c0.8-0.4,1.7-0.8,2.8-1.2c1.1-0.4,2.4-0.6,3.8-0.7c4.2-0.4,8.9,0,8.9,0c-0.7-0.4-1.3-1-1.8-1.6c-1-1.2-1.6-2.8-1.5-4.5
			c0.1-0.8,0.3-1.7,0.8-2.5c0.2-0.3,1-1.2,1.4-1.8c0-0.2-0.1-0.5-0.1-0.7l0,0l4.7-4.7l-9.2-7.9l-0.1-0.1c0-0.1-0.1-0.1-0.1-0.2l0,0
			v0l2.5-2.3l-2.4-2.9l9.1-9.6l-4.5-5c0,0,4.5-4.5,6.4-4.8c0.5-0.1,1.3-0.7,2.4-1.5c1.1-0.9,2.3-2.1,3.7-3.3c2.7-2.4,5.5-5,7.3-5.7
			c3.6-1.4,9.6-4.8,12.4-7.4c2.9-2.6,2.4-3.4,2.4-3.4l-1.9-2.6c0,0,5.3-3.8,3.8-8.6c-1.4-4.8-3.1-7.4-3.1-7.4l-0.3-0.3
			c1.1-1.9,2.8-3.1,4.8-4c1.1-0.5,2.3-0.8,3.5-1.1c2.8-0.8,5.7-1.6,8.6-2.5c0.5-0.2,1-0.2,1.5-0.4c0,0,0,0,0.1,0
			c2.2-0.8,4.1-2,5.6-3.7c3.1-2.7,6.6-8.3,10.2-14.3c1.4-0.2,2.9-0.4,4.1-0.7c6.9-1.7,4.8-7.6,10.3-10.3c3.8-1.8,2.4-6.4,1.2-9.1
			c4.7-1.9,9.1,6.6,10.1-6.6c0-5.1-15.5,5.1-16.6,0c-2-5.1,6.4-9.1,9.5-13.2c0,0,2,1,2,0c0-0.6-0.4-1.4-0.8-2.2
			c1.4-0.9,2.7-2,3.2-3.7c1.4-4.6,5.1-0.8,6.6,0.7c1.2,1.2,2.3,0.7,4.5-0.8c2.4,1.5,4.3,3.4,6,5.1c0,0,0,0.1,0,0.1
			c-1.4,2.2-0.5,2.2,0.8,3.9c1.4,1.7,1.9-1.5,3.7,0.5c1.9,2,7.3-1,7.3-1l6.6,2.2l4.6-4.7l-3.3-3.4c0.6-0.5,1.4-1.4,2.1-2l3.5,3.3
			c0,0,4.7-1.9,3.4-4.2c-0.2-0.3-0.7-1-1.1-1.5l2.8-4.1l5.1,0.8l1.5-1.5l0.2-0.2c-0.1,0-0.2-0.1-0.2-0.1c-0.1-0.5-0.1-1-0.2-1.5
			l-0.7-3c-0.5-1.6-1-2.6-1-2.9c0-0.7-4.5-3.1-4.9-7.1c-0.4-3.9-0.3-3.6,1.9-5.3c2.3-1.7,1.4-5.4,0-8.4c-1.4-3,5.8-6.6,4.1-9.3
			s1.8-4.3,1.8-7.1c0-2.7,3.5-6.7,4.8-8.8c1.3-2-2.4-4.2-8.2-9.9c0-0.1-0.1-0.1-0.1-0.1c-1-5.1,1-10.2,3-15.2l14.2-23.4
			c0.4-2.3,0.9-8,1.4-13.4l-0.2-0.2c0.8-8.6,1.8-17.8,3.7-22.2c8.1-16.3,28.5-28.5,39.6-47.8c0.2-0.4,0.2-0.8,0-1.3
			c-4.1-6.6-57-13-60.8-15.8c0,0,0-0.1-0.1-0.2c0,0-0.1,0-0.1,0c-3-3-1.1-8.9-4-12c-5.3-3.9-37.5,9.1-39.5,6.1c0,0,0-0.1,0-0.1
			c0,0-0.1,0-0.2,0c-1-3,3-7,1-9.1c-30.2-27.1-10,14.3-22.2,1.1c0,0-0.1-0.1-0.1-0.1l0,0c-1.2-1.2-2.3-2.6-3.4-4.2
			c-6.8-9.7-11.4-24.7-17-31.7c0,0,0,0,0,0c-0.9-1.1-1.8-1.9-2.7-2.5c-2.6-2.6-7.2-0.9-9.9-2.2c-2.7-2.4-5.4-5.1-5.6-6.6
			c-0.4-3-10.8-5.2-12.8-2c-0.9,1.4-1.3,2.1-1.8,2.7c-1.6,0.3-3.3,0.9-5,1.6c-3.3,0.4-7.6,0.8-7.7-2c-0.2-3.2-10.4-4.3-10.2-6.5
			c0.2-2.2-1.7-2.2-5-3.3c-1.9-0.6-3.3,1.6-4.2,3.8c-2-0.6-4-1.1-6-1.1c-7.1-1-14.2,6.1-20.3,3c-5.1-2-1-11.2-4.1-15.2
			c-2-3-7.1-1-10.2-3c-1-1,4.1-3.1,4.1-4.1c-1-2-2-4.1-4.1-5.1c-2-1-5.1,3-6.1,2c-1.2-0.9-2.2-2.2-3-3.5c-0.9-0.3-1.9-0.6-2.7-1.1
			c-2.6-1.5-2.8-5.2-5.8-6.7c-0.8-0.4-1.9-1.3-2.9-2.1c-6.2-0.8-12.9-0.1-16.1-4.9c-4.1-4.1,4.1-10.1,4.1-15.2
			c-0.8-3.2-4.6-4.6-6.3-6.9c1.5-3.2,3.3-7.4,2.3-9c-1.4-2.4,6.4-11,6.4-11l-4.1-1.2l-12.7,10.5l-0.4,9.1h-0.1c0,0-9.5,0.7-12.5,3.3
			c-2.3,2-9,2-14.2,0c-12.3-0.2-23.5-4.4-21.7-8.1c3.1-5.1,8.1-8.1,8.1-13.2c0-3.1-8.1-3.1-7.1-7.1c0-4.9,5.1-9.1,7.2-13.7l-2.8,0.9
			l-8.9-14.2c-0.4-0.1-0.7-0.2-1.1-0.3c-3.3,1-5.4,1.6-8.6,2.5c-6,1.7-5.6-2-11.9-3c-6.3-0.9-5.8,6.5-8.4,4.7
			c-1.8-1.3-3.1-4.1-2.7-8.8c-0.2-0.2-0.4-0.5-0.5-0.7c-0.7-2.7,0.4-5.8,0.9-8.8c-0.5-1.3-1.2-2.7-1.5-3.9c-1.3-4.7-5-3.4-9.3-3.4
			c-3.7,0-3.8-0.8,0.1-5.1c-1.8,0-3.6,0-5.5,0.1c-4.7,4.1-8,4.9-10.8,1.7c-2.9-3.3-6.5-5.9-5.1-10.5c-1.1-4.5-0.9-11.1-1.5-17.6
			c-1.7-1.1-2.1-2.2-3.1-4.8c-1.5-3.9-0.8-6.3-3.4-6.5c-2.6-0.2-5,1.3-7.2,0.9c-2.2-0.4-5.8,1.9-8.4,3.2c-2.6,1.3-2,6.1-6,6.7
			c-3.9,0.6-9.6-4.1-11.3-9.3c-2.6-2.3-4.7-5.4-6.3-9c-0.5-0.1-1-0.3-1.5-0.2c-3.5,0.9-4.1-3.7-4.8-9.1c-0.7-4.9-1.3-6.7,1.3-8.3
			C713.7,478.6,713.1,470.2,712.4,465.1L712.4,465.1z"/>
		<path class="st2" d="M-6.1,711.4c-5.4,2-9.5,6.1-4.8,6.8C-6.1,718.8,0.6,718.1-6.1,711.4z"/>
		<path class="st2" d="M138.2,841.5c-3.2,0.2-3.7,4.2,1.4,6.8c6.8,3.4,10.8,0.7,2.7-5.4C140.7,841.8,139.3,841.4,138.2,841.5z"/>
		<path class="st2" d="M155.8,881.1c-4.1,1.4-3.8,9.7,8.1,15.9c15.6,8.1,4.7-8.8-3.4-14.9c-1-0.6-1.9-0.9-2.7-1
			C157.1,881,156.4,880.9,155.8,881.1z"/>
		<path class="st2" d="M235.1,943.1c0,0-7.5,7.5,0.7,9.5c8.1,2,11.5,6.8,7.5,1.4C239.1,948.5,247.9,945.8,235.1,943.1z"/>
		<polygon class="st2" points="1128.5,959.2 1123.9,963.7 1128.5,959.2 1133.3,959.3 1133.4,959.3 		"/>
		<path class="st2" d="M1151.9,962.6c0.2,0.4,0.4,0.7,0.6,1.1l0,0C1152.4,963.3,1152.1,963,1151.9,962.6L1151.9,962.6z"/>
		<path class="st2" d="M1138.4,966c-1,0.4-2.2,0.7-3.5,0.6c-1.8-0.1-3.1-0.2-4-0.5c0.9,0.3,2.2,0.4,4,0.5
			C1136.2,966.7,1137.4,966.4,1138.4,966z"/>
		<polygon class="st2" points="221.5,978.3 217.4,986.5 230.3,988.5 		"/>
		<path class="st2" d="M284.5,1058.3c-6.8,0-11.5,5.4-1.4,6.8c10.2,1.4,15.6,10.8,22.4,10.8C312.3,1075.9,298.8,1058.3,284.5,1058.3
			z"/>
		<path class="st2" d="M294,1088.8c-4.7,4.7-2,16.9,3.4,26.4c5.4,9.5,8.8-0.7,8.1-8.1C304.9,1099.6,300.8,1096.9,294,1088.8z"/>
		<path id="path5742" class="st0" d="M998,608.4c-4.2-0.7-4,4.5-6.8,6.2c-4.3,0.8-6.1,4.6-5.9,8.8c0.7,3.9-3.2,4.6-5,7
			c1.7,2.5,0.3,4.9-2.6,5.5c-0.7,1.4-2.1,3.3-2.9,5.1c-0.8,1.8-0.8,3.6,1.2,4.7c-1.4,2.3-3.4,4.9-3.1,8.1c-0.5,2.4,0.7,3.2,2.1,3.8
			c1.4,0.6,3.1,1.2,3.5,3.1c0.3,3.6,1.9,6.2,5,7.9c-1.1,1.9-2,4.1,0.4,5.8c2.3,3.5-3.1,6.5-2.8,10.2c0.7,2.4-1.6,4.2-3.1,6.1
			c1.3,0.4,2.7,0.8,2.6,2.6c-0.2,2.2,10.1,3.4,10.2,6.5c0.2,2.6,4.1,2.3,7.4,2c1.9-0.9,3.7-1.5,5.5-1.8c0.5-0.6,0.9-1.3,1.7-2.6
			c2-3.2,12.5-0.9,12.8,2c0.1,0.7,1.5,2.1,2.6,3.3c1.6-2,3.6-3,2.9-5.1c-1.4-4.1-1.3-9.2,1.6-11s1.6-4.5,3.5-6.9
			c1.9-2.4-0.7-4.9,4.1-7.6c2.4-1.4,3.2-3.5,3.5-5.7c0.3-2.3,0-4.7,0.1-6.6c0.2-3.8-0.7-3.5-5-2.9c-4.3,0.6-2.7-0.8-5-4.1
			c-2.3-3.2-3.7,1.8-5.4-1.9s-4.9-3.4-6.2-7.9c-1.3-4.5-1.3-7.1-4.1-6c-2.7,1.1-3.2-6.7-3.6-10.1c0-0.3-2.3-5.7-0.4-7.1
			c1.9-1.4,3-2,0.9-4.6c-1.7-2-0.6-2.6-1.2-3.7c-1.1-2.5-2.6-1.4-4.1,0C999.1,613.3,1000.1,608.9,998,608.4L998,608.4z"/>
		<path id="si" class="st1" d="M1913,1034.2c-15.2,0-29.8,3.7-26.8,20c1,3.1,7.1,8.5,4.1,9.5c-23.2-14.8-19.7,0.1-33.2-4.1
			c-17.6,6.6-8.5,10.8-14.6,13.9c-6.3,3.5-2.6-3.6-11.2-4.4c-4.3-0.4-10.4,3.5-19,2.4c-4.4-0.5-13.6-1.4-15.6,3
			c-4.3,9.6-2.6,0.3-5.8,1c-1.9,0.4-2.4,6.5-5.1,2.4c-6.8,7.1-4.1,12.6-8.1,15.6c-11.9,0-7.5,9.2-16.9,10.2c-2,1-1,9.8-3,8.8
			c-5.3-10.7-6.8-2.2-10.2-6.4c-7.5-7.6-16.6,1.4-24.7,0.3c-11.2-9.7-15.9-2.4-24.4-8.1c-3.7-3.3-9.9,1.1-18.6-2.4
			c-0.5,15.2-29.4,23.7-29.1,35.6c-2,12.2,18.6,7.8,23.7,11.9c7.1,6.1-8.5,12.9-11.5,22c-4.1,13.2,12.2-1,14.2,4.1
			c2,5.1-11.9,16.9-4.7,21c10.2,6.1,47.3,31.6,18,29.8c-4.8-3-6.4,2-6.4,2s7.8,2.8-0.3,5.1c-2.6,0.7-4.9,2.2-7.5,1.7
			c-2-0.4-1.3,2.6-5.1,2c3.9,3.6,2.7,6.8,2.7,6.8c1.3,0.6,2.5,1.2,3.7,1.7c2.4,0.9,4.7,1.5,6.4,0.7c4.7-1.6,6.9-3.5,10.5,0.3
			c0.5,1.7,3.4,2.2,5.8,2.7c7.3-9.5,10.8-0.5,11.5-7.8c-8.5-5.7,0.6-8,3.4-4.1c6.1,2.1,10.2,3.6,16.6,3.4c0,0-0.7-4.7,2.4-4.7
			c4.6-0.1,3.7,2.8,8.5,4.1c5.7-3.5,11.1-5.1,15.6-11.9c1.2-5.2-2.2-4.1,1-7.5c2.4-2.7,3.8-11.9,8.1-9.8c3.1,1.5,0.3,4.4,0.3,6.4
			c0,2,4,2.6,7.1,4.7c3.9,2.7-0.2,5.8,1,6.8c12.5,4.4,14.6,10.2,18.6,8.1c4.9-1.7,3.2-2.6,3.4-5.8c0.3-5.4,16.5,1.2,23.4,8.8
			c0.6-0.1,4.9-0.4,7.1-1.4c0.2-2,3.4-5.7,8.5-2.7c2.6,0.1,7.9-5.2,5.8-5.1c-7.6,0.5-11.1-8.5-9.5-16.6c1.8-2,4.2-2.7,4.1-4.4
			c1.2-1.5,3,3.5,5.4-0.3c-2.7-4.8-8.5-11.5-8.5-3.4c-3.2-2.8-4-2-5.1-7.1c1-1.2,3.3-4,8.8-7.1c5.5-3.1,8.3-2.6,9.5-2.7
			c1.2-0.1-0.9-1.7-0.3-3c0.6-1.3,1.8-1.5,3.4-0.7s3-3.7,3-3.7s1.8,1,2-0.7c0.2,0.1,6.3,1.6,7.8,2.7c0.4-1.1,2.7-2.6,5.1-3
			c2.4-0.5-1.1-2-2.4-3.4c-1.3-1.4,0.1-3.9,0.3-4.4c0.7-4.6,1.9-8.3,0.7-13.2c0-1.9,1.4-5.2,0.7-6.4c-5.2-2.8-9.6-3-10.8-9.5
			c0.2-2-1.8-2-1.4-2.4c1.9-3.7,3.4-7.1,5.1-10.8c1.7-1,5.3,0,7.5,0c2.2,0,1.1,1,2,1.7c4.4-4.6,1-5.7,3.4-8.1
			c2.2-2.3,0.9,4.2,23.7-12.9c1.3-0.8-3.1-4.8-2.4-6.4c0.7-1.6,5.6-1.1,7.8-2c2.2-1,2.5,0.7,4.1,2.4c0.8,0.7,4.2,1.7,4.7-1
			c0,0,1,0.8,3,1c2,0.2,3.4,0,3.4,0c0.4-2.1-0.1-4.2-2.4-4.7c-1.3-3.3-3.5-6.1-4.4-10.2c-0.5-2.2,10.5-10.2,12.5-9.5
			c3.7,1.3,11.1,5.3,18.6,9.1c0.6-0.2,1.4-0.4,2-0.3c0-0.1,0-0.2,0-0.3C1922.8,1066,1917.1,1034.2,1913,1034.2L1913,1034.2z"/>
		<path class="st2" d="M304.8-42.7c2.7,5.6-7.8,14.9,4.4,19c4.1,1,9.1-11.2,11.2-7.1c3,8.1-14.6,25.1-5.4,25.1
			c14.2-1,28.5-21.4,29.5-6.1c1,8.1-4.7,8.5-7.8,15.6s5.1,4.1,4.1,10.2c0,12.2-23.7-11.3-20.3,25.1c2,6.1,13.2-0.7,15.2,5.4
			c1,5.1-9.1,2-13.2,5.1c-5.1,4.1-11.2,9.1-12.2,15.2c-0.5,2.8,4.2,15.5,4.4,18.6c0.1,0.8,4.2,10.1,6.8,12.9c0.9,1,3.9,3.1,6.4,3.4
			c0.7,0.1,2.8-2.1,5.1-2.7c10.8-2.7,4.9,0.7,2.4,1.7c-2.7,1.1-5.8,4-7.5,4.4c-6.5,1.6-10.6-3.9-10.8-4.1
			c-0.9-0.8-5.9-17.4-5.4-15.9c-5.6-1.5-10-0.9-10.5,1c-2,7.1,9.1,18.3,3,22.4s-7.4-7.5-12.5-12.5c-6.7-6-8.8,2.4-23,0.3
			c-7.1-1-11.9-8.5-19-9.5c-3-1,1.7,4.7-0.3,5.8c-9.7,3.5-17.4,4.9-22.4,4.4L207.3,105c-0.3,0.4,0.4,4.1-1.7,7.8
			c-1.8,3.2-4.4,4.3-9.5,7.1c-10.2,5.7-16.8,6.2-21.7,10.5c-5.7,5-10.6,6.5-9.5,7.8c0.3,0.6,0.9,2.6,2,3c0.9,0.3,7.5-3.5,11.2-2.4
			c2.4,0.7,4.3,6.4,7.8,5.1c1.4-0.5-0.8-9.6,12.9-10.5c11.9-0.8,15.6,3.7,15.2,6.4c-1.9,13,6.8,11.8,5.4,20
			c-1.3,8.2-8.8,10.5-9.1,16.9c-0.8,12.9,3,7.8,3.4,15.9c-6.1,14.2-22.3,28.8-38.6,32.9c-14.6,7.1-19.5,2.5-24.4,3.7
			c-9.5,2.4-17.6,6.4-23.7,8.5c-10.6-6.8-13.2,4.2-21,4.4c-8,0.2-14.6,5.9-13.2,6.1c18,2.4,17.3,5.4,16.6,12.9
			c-0.4,2.6-14,4.7-12.2,7.5c4.7,7.3,19.8,5.3,20.7,8.1c-6.1,1-15.9-1.7-9.8,3c-2,4.1,2.7,8.1,7.8,9.1c6.1,2,0.3-6.8,14.9-1.7
			c2.7,0.9,4.7-6.1,7.8-6.1c24.4-7.1,15.2,1,22.4,0c2,0,3-6.1,4.1-4.1c1.8,3.5-0.4,11.9,5.1,15.2c5.5,3.4,18.6,1.8,18.3,4.4
			c-0.7,5.3-28.3,0.5-18.3,10.8c10.2,5.1,27.4-7.5,35.6,0.7c9.1,9.2,4.3,26.4,15.9,30.8c35.9,13.6,25.1-2.7,49.1-9.1
			c3-1,5.4,3.4,8.5,3.4c5.1-1,8.1-2.4,13.2-4.4c4.1-3.1,20.3-2,14.2,5.1s-32.5,15.2-36.6,18.6c-5.2,4.4,0,15.9-6.1,21
			c-9.7,7.6-5.2-2.7-23.4-0.3c-16.9,2.2-9.2-10.1-43-13.9c-28.5-5.1-34.5-1-36.2,6.8c-0.8,3.5,4,8.5,1.4,9.8
			c-4.4,2.1-9.2,3.3-17.3,6.8c-4.1-1-5.8-8.8-9.8-7.8c-7.1,3.1-9.1,26.1-12.2,30.2c-5.1,6.1-11.9,7.1-16.9,12.2c-3,2-3,6.4-6.1,8.5
			c-3,1-15.6,2.4-18.6,4.4c-7.1,5.1-1.7,7.8-8.8,13.9c-2,1-5.1,0.3-7.1,2.4c-2,1-0.3,5.1-2.4,6.1c-3,4.1-18.4,15.8-31.5,12.9
			c-1,0-21.3,3.4-21.3,10.5c0,5.6,0.7,8.8,7.8,8.1c3.6-0.3,7.2-4.9,11.9-5.4c4.7-0.6,10.3,2.9,11.9,5.4c4.1,5.1,2.7,14.9,8.8,15.9
			c4.1,0,11.2-4.7,13.2-9.8c-9.7-3-5.9-4.2-0.7-5.1c7-1.1,18.3-9.5,24.4-11.5c4.1-2,2-11.5,7.1-12.5c14.2-4.1,31.5,8.5,43.7,11.5
			c9.9,2.3,3.9-4.3,2.4-6.4c0.2,0.1,0.3-0.2,0.7,0c8.1,4.1,29.5,33.9,41.7,28.8c15.2-7.1,16.2-32.5,32.2-46.7
			c28-12,52.2-10.2,65.4,3c5.1,4.1,11.5,9.5,13.5,14.6c1,3.1,0.3,9.8,2.4,7.8c3-5.1-1.7-11.9,4.4-14.9c5.1-2,17.3,5.8,22.4,8.8
			l5.4,1.4c3,0.8,10.5,0.7,11.5-2.4c2.7-11.7-10.5-9.1-7.5-14.2c2-3.1,58.6,8.8,59.6-1.4c1-6.1-9.8-11.5-5.8-16.6
			c3-3.1,8.5,16.3,20.7,20.3c3,1-2.7-14.9,4.4-5.8c2,3.1,0,6.4,3,7.5c3,1,2.7-7.5,5.8-6.4c3,0,1.2,2.8-1,7.8c1,2,3.7,2,5.8,1
			c2-3.1,0-11.2,6.1-7.1c10.2,7.1-2.7,2-1.7,7.1c3,11.2,48.1,2.4,55.2,3.4c9.1,2,33.2,16.9,42.3,16.9c6.1,0,5.1-9.1,10.2-11.2
			c11.2-5.1,16.9,1.4,28.1-5.8c11.2-7.1,17.1,3.1,23,0.3c5.1-2,2-13.5,6.1-16.6c10.2-5.1,30.8-2.7,33.9-12.9c2.2-8.6-1.9-8.3-0.3-19
			c1-4.1,8.5-6.8,4.4-7.8c-15.2-6.1-24.6-3.4-43-0.7c-9.5-2.3-10.4-3.2-14.2-7.5c-7.4-0.1-10.4-3.2-12.5-6.4c2.3-1.2,5-2.4,5.8-3
			c2.3-2,3.5,0.3,7.5,1.7c3.9,1.4,0.3-3.1-1.4-5.1c-1.7-2-13.1-3-17.3-3c-1.4,0-2.4,0.8-3.4,1.7c-2-0.4-4.3-0.4-7.8,0.3
			c-3-2,7.1-5.8,10.2-6.8c11.2-4.1,30.5,9.5,38.6-3.7c3-5.1,7.8-15.9,3.7-20c-4.1-5.1-22.4,7.7-19.3-2c8-4.3,15.6-8.9,24.4-11.9
			c1,0,3.4,6.4,4.4,6.4c3,2,3.4,3,6.4,2c27.4-7.5,15-7.7,6.8-12.5l5.4-5.1l-10.8-2.7c0.1-1.2,0.3-2.3,1-3.7c2-5.1,10.8,6.4,16.9,4.4
			c7.4-1.5,8.9-7.1,14.2-12.2c5.3-5,11.2-9.7,12.9-17.3c3.2-14.8,12.7-25.6,14.2-34.2c9-68.7-46-71.5-80.6-76.6
			c-21.3-3.1-5.1,7.1-25.4,20.3c-3,2-2.2-4.7-11.2-6.1c-4.3-0.6-4.1-9.1-8.1-12.2c-2-2-10.2,2-9.1-1c17.5-18.1,17.6-9.1,31.8-23.4
			c10.7-13.1-0.2-50.1-19.3-61.7c-4.5-3.5-14.2-17.8-17.3-20.7c-1.2-1.1-6.9-6.3-14.9-4.7c-5.8,1.1-9.8-0.6-11.9-3
			c-0.4-0.5-9.1,0.7-9.1,0.7s6.6-5.6,13.5-2.7c5.1,2.1,17.6,0.8,23.7,1c10,18.3,19.2,17.6,20.7,18c5.7,1.4,9.3,10,6.8,0.3
			c-4.1-14.2-23.4-41-19.3-57.3c1-6.1,12.1-4.3,11.5-8.1c0.6-6-11.1-3.2-19-20c-5.1-8.1-3-18.3-9.1-25.4
			c-17.3-21.4-12.5-14.2-30.8-25.4c-4.1-2-7.1-7.1-11.2-8.1c-2-1-4.1,5.1-5.1,3"/>
		<path class="st2" d="M205.6,64.3c-1.7-0.2-3.2,0-4.1,0.3c-8.3,3.4-7.8,6.2-7.8,11.2c0.1,13,5.2,17.9,11.5,25.7
			c0,0,30.2-13.9,29.5-15.9c-1.9-5-2.4-4.9-11.5-1.4c-1.1,0.4-3.8-5.5-3.7-14.6C217.9,67.3,210.6,64.9,205.6,64.3L205.6,64.3z"/>
		<path class="st2" d="M186.6,73.5c-0.3,0.1-0.8,0.6-1,1c-0.8,1.9,0.5,3,1.4,4.1c2.5,1.9,0.7,4.9,3.4,5.8c2.7,0.8,3.4,1.5,3-0.7
			c-0.3-2.2-1.5-6.3-3.4-8.1C188.6,74.1,187.6,73.1,186.6,73.5L186.6,73.5z"/>
		<path class="st2" d="M581.6,390.6c-2.7,1.1-3.8,3.8-2.7,5.1c3.4,4.4,5.7,3.5,8.1,4.7c2.4,1.3,9.2,2.6,6.4-1.4
			C590.6,395.1,584.2,389.4,581.6,390.6z"/>
		<path class="st2" d="M396.6,455.9c-1.2-0.1-2.4,0.9-4.7,2.7c-4.6,3.7-5.5,0.9-13.2,3c-1.8,0.6-4.2,1.7-6.4,3.4
			c-2.3,1.7,4.6,1.6,8.8,3c4.2,1.4,7.9,7.6,11.5,11.5c3.7,3.9,8.5,1.7,10.2-0.7c1.7-2.4,3.2-7.9,9.1-8.5c5.9-0.6,0.8-5.2-3-7.5
			c-3.8-2.3-6.4-1.4-8.8-4.4C398.8,457.2,397.8,456.1,396.6,455.9z"/>
		<path id="gg" class="st4" d="M285.5,600c-0.6,0-1.4,0.1-2.7,0.3c-5.2,0.8-2.2,2.8,0.7,1.7
			C286.5,600.7,287.4,600,285.5,600L285.5,600z M251.7,623.1c-0.4,0-0.7,0.3-0.3,0.7c0.7,0.7,0.7,1.2-1,0.7
			c-1.7-0.5-3.8,3.5-5.8,3.4c-1.9-0.1-3.6,0-3,1.4c0.6,1.3,0,1.7-2,1.4c-2-0.4,0.1,2.7,5.1,3c5,0.4,6.8,1.1,7.1-1
			c0.5-2.8,0-3.7,1.7-4.7c1.7-1.1,1.8-2,1.7-3.7c-0.1-1.7-1.3,0.4-2-0.3C252.7,623.4,252.1,623,251.7,623.1L251.7,623.1z
			 M258.8,627.1c-0.7,0.1-0.4,1,0,2c0.5,1.3,2.1-0.1,1-1.7C259.4,627.3,259,627.1,258.8,627.1L258.8,627.1z M266.6,631.9
			c-0.3,0-0.3,0.3-0.3,1c0,1.4-3.2,4.8-1.4,4.4c1.8-0.4,3.5-2.1,2.7-4.4C267.3,632.4,266.9,631.9,266.6,631.9L266.6,631.9z"/>
		<path id="je" class="st4" d="M273.7,657.3c-0.4,0.2-0.2,0.7,0.7,1.4c1.7,1.3,1.9,5.7,0.3,6.8
			c-1.6,1.1-0.4,2.7,2.4,1.7c2.8-1,0.9,0.4,1.7,1c0.8,0.6,2.4,1.1,1.7-1s0.7-1.2,2.7-1.4c2-0.1,1.1,3.3,2.4,2.7
			c1.3-0.6,0.6,1.6,3.4,1.4c2.8-0.2,3.2,0.6,3-1.4c-0.1-1.9,1.7-0.9,1-2.4c-0.7-1.4,0.5-2.8-0.7-4.4c-1.2-1.6-3.7-0.2-4.4-2
			c-0.7-1.8-3.9-2.7-6.1-1.7c-2.2,1-3.9,0.3-6.1-0.7C274.9,657.1,274.1,657.1,273.7,657.3L273.7,657.3z"/>
		<path class="st2" d="M1194.8-101.9c27.1,28.4,7.9-0.6,14.6,0c4.2,0.4,6.1,5.9,11.2,10.5c-2.5,1.1-5.3,2.6-5.8,3.4
			c-1,1.7-1,2,0.7,6.1c1.9,8.1,7.5,12.7,7.5,9.1s1.4-8.9-1.7-10.8c-3.1-1.9-3.5-3.9,1-3.4c1.5,0.2,2.2-0.4,2.7-1.4
			c2.4,1.3,5.2,2.6,8.8,3c4.1,4.1,1,13.2,2,19.3c0,7.1,2.3,13.3,2,20.3c-0.9,5.1-4.1,10.2-4.1,15.2c-1,6.1-1,11.2-1,16.3
			c7.1,1,19.3,0,22.4,0c13.2,2,26.4,9.1,39.6,11.2c3-4.1,9.1-13.2,14.2-15.2c1.5,6.7,6.7,8.6,9.8,8.1c-2.7-5.4-4.6-8.9,1.4-7.1
			c0.9,0.3,1.4-0.2,1.4-1c1.5,1.5,3.6,2.1,5.1,1.4c2.1-1.1,2.6-2.9,8.1,1.7c5.5,4.6,4.8,2,7.5,1c2.7-1-0.3-5.6-5.8-14.2
			c-3.9-5.3-6.3-3.5-10.8-8.1s-9.6-3.6-13.2-2.4c-3.7,1.3-2.5,3.2,0,5.8c2.5,2.5,5.7,1.7,8.8,1.7c3,0-1.1,6-1,10.2
			c-1.9-4.1-6.4-10.3-12.9-13.6c-3.1-2-11.2,4.4-11.2,0.3c0.5-2.8,4.3-0.4,6.4-3.4c2.9-4.1-2.4-6-3-8.5c-0.7-2.4,3.6-5.5,4.7-6.4
			c6.5-5.1,8.2,6.9,11.5-7.8c0.7-3-2.7-3-3.7-6.1c-2-5.1-1.8-10-4.4-16.9c0-3.1,9.7-4.3,4.1-8.1c-2-4.1-12.9,2.4-10.8-1.7
			c0-1,10.7-4.1,16.6-7.5c5.9-3.4,11.6-11.2,10.2-11.2"/>
		<path class="st2" d="M1381.8-112c-1.4,0.2-1.3,4.2-1.7,7.8c1.9,2.8,3.4,5.3,4.4,7.5c1.4,3.1-1.7,6.2-5.8,8.1
			c-4.1,1.9-5.8,5.7-8.5,3c-1.4-4.6,5.8-6.3,5.8-10.8c0-0.7-0.3-2-0.3-3c-5.7-2.3-9.1-9.5-15.9-10.8c-10-0.7-6.4,4.8-20.3,8.5
			c-3.1,2.2-4.7,5.1-8.8,5.1c0,0-3.4-6.4-4.4-6.4c-3.6,1.4-5.1,4.9-7.5,6.4c0,0-4.7,0.3-4.7,2c-0.1,5.2,12.5,10.5,8.8,15.2
			c-3.7,4.8,0.6,4.2,4.7,5.8c2,8.1-0.3,10.2,3.7,13.9c9.4,6.6,1.2,13.7,6.4,13.9c10.3,0.3-7-7.8,6.4-9.1c10.9,11.9-4.1,7.8,4.1,13.9
			c7.6,6,4.4-0.7,7.5-0.7c5.9,5.4,12.5,7.5,20.7,8.5c24.6-1.5,28.6-23.6,21.3-31.5c-7.8-8.5,12.1,5.9-3-12.9
			c-2.6-3.2-3.8-7.1-5.8-9.8c-7.1-14.2,15.1,12.7-3-19.3C1383.7-110.8,1382.6-112.2,1381.8-112L1381.8-112z"/>
		<path class="st2" d="M1224.9-52.4c-2.2-0.2-3,2-2,11.9c1,9.8,2.4,4.9,5.1,2c2.6-2.9,0.8-4.5,2-8.8
			C1231.2-51.7,1230.9-52.2,1224.9-52.4z"/>
		<path class="st2" d="M1411.9-49c-1.1,0.3-2.8,3.9-4.7,9.8c-3.9,11.8-6.5,11.3-11.2,17.6c-4.6,6.3-2.1,5.7-3.4,9.8
			c-1.3,4.1-1.4,4.4-4.1,3.4c-2.7-1-1.2,0.5,1,2.7c2.3,2.3,3.3,6.7,3.7,11.2c0.4,4.5,6-1.3,7.5-9.1c1.4-7.9,2.4-9.5,3.4-11.2
			c4.6-11.4,5.9-9.6,8.1-24.1C1413.4-46.1,1413-49.3,1411.9-49z"/>
		<path class="st2" d="M1507.8-38.2c-2.2-0.2-3.2,0.3-0.3,1.7c5.6,2.8,5.4,2.2,4.7,5.8c-0.7,3.5-4.2,4.1-5.8,2.4
			c-1.5-1.7-2.7,0.5-4.4,2.7c-1.7,2.3-3.2,3.4-1.4,6.1c1.8,2.7,4.5,6,6.8,4.1c2.3-2,4.4-6.4,6.1-7.8c6.5-5.3,8.9-3.5,14.2-1.7
			c5.3,1.8,8.1-1.9,2.7-8.1c-5.3-6.2-10.3,0.4-14.9-2.4C1513.3-36.9,1510-38,1507.8-38.2L1507.8-38.2z"/>
		<path class="st2" d="M1473.6-25.3c-0.6,0.1-1.1,0.8-2,2c-3.1,2.2,1,2.9,1.7,9.1c0,0.1,0.3,0.2,0.3,0.3c0.1,0.2,0.3,0.9,0.3,1
			c0.4,2.8,2,1.6,4.1,3.4s0.3,2,0.3,3.7s2,2.2,3.7,3.7c1.7,1.5,1.9,4.7,2,6.8c0.1,2.1,1.1,3.1,0,5.8c-0.2,0.6-0.8,1.1-1,1.7
			c0.7,1.8,1.3,8.6,6.8,13.9c3.5,2.6,1-11.5,1.7-16.6c2.7-4.4,4.4-8.1,6.8-12.2c3.4-4.1,9.5-6.5,3-13.2c-17-1.6-6.9-4.2-14.2-6.8
			c-3.6,3.1-3.8,0.9-5.1-1c-3.9-3.8-2.7,1.3-4.4,1.4C1476.3-22.3,1475.5-25.8,1473.6-25.3L1473.6-25.3z"/>
		<path class="st2" d="M1358.1-24.3c-1.1,0,2.5,5.9,4.7,8.5c7.9,9.6,9.8,11.5,11.5,10.5c1.7-1,2-3.2,5.1-3c3.1,0.1,3.7-0.8,0.3-4.1
			c-3.4-3.2-1.8,3.6-4.7,0.3c-3-3.2-4.5-0.9-6.8-3.7C1366-18.7,1359.2-24.3,1358.1-24.3L1358.1-24.3z"/>
		<path class="st2" d="M1429.6-24.3c-12.4,1.3-16.1,18.6-10.8,25.7c4.1,4.1,12.9,4.1,18,7.1c7.1,4.1,6.1,10.2,14.2,11.2
			c6.1,1,3.1-4.9,14.9-5.8c9.5,2.4,12.9,3.3,15.9-0.7c0.1-2.6-0.6-4-2.4-5.8c-2-2-0.5-2.4,1-2.4c1.5,0,2.5-1.7,2-4.1
			c-0.4-2.4-3.2-5-5.4-6.1c-2.3-1.1-1.6-4-3.4-5.4c-1.1-0.9-0.9-1.9-0.7-2.7c-0.4-0.4-0.6-0.7-1-1c-0.8-0.2-2-0.5-3-1
			c-1.9-1-3.5-2.9-4.1-3.4c-0.1,0-0.2,0-0.3,0c0.2,0.4,1,2.6,2,5.1c1.1,2.7-5.9,2.1-7.5,2.7c-1.5,0.6,2.7,3.7,2.7,3.7
			s-3.1-1.1-6.4-1.4c-3.4-0.3-3.6-3.3-6.4-5.1c-2-1.3-3.4-3.6-5.1-7.5c-1.3-0.4-2.6-0.7-4.1-1.4C1435.9-24,1432.4-24.6,1429.6-24.3
			L1429.6-24.3z"/>
		<path class="st2" d="M1328.6-15.5c-0.4,0.3-0.2,1.4,1.4,3c3.7,2.3,9.2,0.9,4.7-1.4C1331.9-15.2,1329.2-16.1,1328.6-15.5z"/>
		<path id="li" class="st3" d="M1296.5,1006.6c-1.4,2.3-3.7,7-4.1,9.1c-0.4,2.2,2.5,4.8,2.4,7.1c-0.1,2.3,1.6,4.6-0.3,5.7
			c-1.9,1.1-2.7,1.3-3.7,2.4c-1,1,3.1,1.2,3.7,0.7c0.7-0.6,2.8-1.1,3.4,0.7c0.6,1.8,3.3,0.7,4.4,0c0.4,0.3,0.3-0.2,0.7,0
			c0.2-2.3-0.2-1.8,1.7-2.7c1.9-0.9,0.7-1.7,0-3.7c-0.7-2,1.5-1.4,0-3c-1.5-1.6,0.6-1.6,0.3-2.4c-0.3-0.7-2.1,0.5-2.4-0.7
			c-0.2-1.2-0.8-0.9-2-1.7c-1.3-0.8,0.1-1.3-0.3-2.7c-0.5-1.4,0.3-0.5,1-1.7c0.7-1.2-3.4-2-2-4.1
			C1299.9,1008.7,1297.2,1007.3,1296.5,1006.6z"/>
		<path id="mc" class="st4" d="M1092.5,1471c0.1-2.4,0.1-4.3-1.4-3.9c-1.4,0.4-2.7,1-4.1,1.9c-5.4,3.5-5.9,6.3-3,7.5
			c0.3,0.1,0.7-0.1,1,0L1092.5,1471z"/>
	</g>
	<g id="trail-path">
		<path class="st5" d="M301.1,458.6c-32.6-23.1,98.4,74.9,98.4,198.5c-3.3,0.8-35.7,13.8-39,14.6c0,2,290.4,195.8,457.9-94.2
			c0,0,87.6-11.2,148.1,43.7c36.4-51,38-49,58.6-93.3c8.4-18-75.6-91.4-17.2-159.6c4.7-5.5,93.9-9.7,55.3,58.9
			c150.6,47.4,327.7,59.3,541.4,529.8"/>
	</g>
	<g id="camera-path" class="st6">
		<path class="st7" d="M658.9,630.7c0,0-280.5,125.2-251.4,200.1c15.5,39.7,127.7-9,169.5-17.2c53.1-10.5,156.5-46.3,204.4-71.7
			c69.9-37.1,178-209.9,254.3-188.7c95.8,26.7,132.3,375.2,132.3,375.2"/>
	</g>
	<g id="points_1_">
		<circle id="Kehlsteinhaus_1_" class="st8" cx="1604.7" cy="956.9" r="7.3"/>
		<circle id="Wesel" class="st8" cx="1063.4" cy="427.1" r="7.3"/>
		<circle id="Aachen" class="st8" cx="1025.2" cy="527.9" r="7.3"/>
		<circle id="Low_Countries" class="st8" cx="818.4" cy="577.5" r="7.3"/>
		<circle id="Arnhem" class="st8" cx="1008.1" cy="368.2" r="7.3"/>
		<circle id="Bastogne" class="st8" cx="966.6" cy="621.2" r="7.3"/>
		<circle id="Carentan" class="st8" cx="399.5" cy="657.1" r="7.3"/>
		<circle id="Omaha_Beach_1_" class="st8" cx="360.6" cy="671.7" r="7.3"/>
		<circle id="Invasion_Departure" class="st8" cx="302.3" cy="457.1" r="7.3"/>
	</g>
</g>
</svg>
