<?xml version="1.0" encoding="utf-8"?>
<!-- Generator: Adobe Illustrator 21.0.2, SVG Export Plug-In . SVG Version: 6.00 Build 0)  -->
<svg version="1.1" id="Layer_1" xmlns="http://www.w3.org/2000/svg" xmlns:xlink="http://www.w3.org/1999/xlink" x="0px" y="0px"
	 viewBox="0 0 191.5 191.5" style="enable-background:new 0 0 191.5 191.5;" xml:space="preserve">
<style type="text/css">
	.st0{fill:#231F20;}
</style>
<path class="st0" d="M95.8,0C42.9,0,0,42.9,0,95.8s42.9,95.8,95.8,95.8s95.8-42.9,95.8-95.8S148.6,0,95.8,0z M85.5,22.2v17.2h20
	V22.2c34.6,4.8,61.6,33.4,63.8,68.8h-64.5l-9.3-16l-9.3,16H21.2C23.4,55.5,50.7,26.7,85.5,22.2z M22.6,111h63v58.3
	C54.2,165.2,29,141.6,22.6,111z M105.5,169.3V111h62.4C161.6,141.4,136.6,165,105.5,169.3z"/>
</svg>
