<?xml version="1.0" encoding="utf-8"?>
<!-- Generator: Adobe Illustrator 21.0.2, SVG Export Plug-In . SVG Version: 6.00 Build 0)  -->
<svg version="1.1" id="Layer_1" xmlns="http://www.w3.org/2000/svg" xmlns:xlink="http://www.w3.org/1999/xlink" x="0px" y="0px"
	 viewBox="0 0 149.9 199.2" style="enable-background:new 0 0 149.9 199.2;" xml:space="preserve">
<style type="text/css">
	.st0{fill:#231F20;}
</style>
<path class="st0" d="M0.1,181h40V84L36,79.9V48.8c0,0-0.2-15.5-15.9-33.5C4.2,33.7,4.6,49,4.6,49v30.5L0,84.1L0.1,181z"/>
<path class="st0" d="M109.9,181h40V84l-4.1-4.1V48.8c0,0-0.2-15.5-15.9-33.5C114,33.7,114.4,49,114.4,49v30.5l-4.6,4.6L109.9,181z"
	/>
<path class="st0" d="M51.6,199.2H99V81.4l-4.9-4.9V39.7c0,0-0.2-18.4-18.8-39.7C56.5,21.8,57,40,57,40v36.1l-5.5,5.5L51.6,199.2z"/>
</svg>
